<svg width="21" height="24" viewBox="0 0 21 24" fill="none" xmlns="http://www.w3.org/2000/svg">
<path d="M13.6 3.2002H2.4C1.07452 3.2002 0 4.27471 0 5.6002V21.6002C0 22.9257 1.07452 24.0002 2.4 24.0002H13.6C14.9255 24.0002 16 22.9257 16 21.6002V5.6002C16 4.27471 14.9255 3.2002 13.6 3.2002Z" fill="white" fill-opacity="1"/>
<path d="M20.8003 2.4V18.4C20.7984 19.0359 20.545 19.6453 20.0953 20.095C19.6456 20.5446 19.0363 20.7981 18.4003 20.8H17.6003V5.6C17.6003 4.53913 17.1789 3.52172 16.4288 2.77157C15.6786 2.02143 14.6612 1.6 13.6003 1.6H4.94434C5.10939 1.13316 5.41479 0.728799 5.81868 0.442351C6.22258 0.155903 6.70518 0.00139161 7.20034 0H18.4003C19.0363 0.00189927 19.6456 0.255365 20.0953 0.705042C20.545 1.15472 20.7984 1.76406 20.8003 2.4Z" fill="white" fill-opacity="1"/>
</svg>
