<svg width="868" height="232" viewBox="0 0 868 232" fill="none" xmlns="http://www.w3.org/2000/svg">
<path d="M148.602 15.0648V25.0848C148.602 26.3248 148.222 27.3048 147.462 28.0248C146.716 28.7448 145.729 29.1048 144.502 29.1048C143.276 29.1048 142.282 28.7448 141.522 28.0248C140.776 27.3048 140.402 26.3248 140.402 25.0848H142.702C142.716 25.6982 142.869 26.1848 143.162 26.5448C143.469 26.9048 143.916 27.0848 144.502 27.0848C145.089 27.0848 145.536 26.9048 145.842 26.5448C146.149 26.1715 146.302 25.6848 146.302 25.0848V15.0648H148.602ZM157.091 29.1448C156.051 29.1448 155.111 28.9115 154.271 28.4448C153.431 27.9648 152.771 27.2982 152.291 26.4448C151.811 25.5782 151.571 24.5782 151.571 23.4448C151.571 22.3248 151.818 21.3315 152.311 20.4648C152.805 19.5982 153.478 18.9315 154.331 18.4648C155.185 17.9982 156.138 17.7648 157.191 17.7648C158.245 17.7648 159.198 17.9982 160.051 18.4648C160.905 18.9315 161.578 19.5982 162.071 20.4648C162.565 21.3315 162.811 22.3248 162.811 23.4448C162.811 24.5648 162.558 25.5582 162.051 26.4248C161.545 27.2915 160.851 27.9648 159.971 28.4448C159.105 28.9115 158.145 29.1448 157.091 29.1448ZM157.091 27.1648C157.678 27.1648 158.225 27.0248 158.731 26.7448C159.251 26.4648 159.671 26.0448 159.991 25.4848C160.311 24.9248 160.471 24.2448 160.471 23.4448C160.471 22.6448 160.318 21.9715 160.011 21.4248C159.705 20.8648 159.298 20.4448 158.791 20.1648C158.285 19.8848 157.738 19.7448 157.151 19.7448C156.565 19.7448 156.018 19.8848 155.511 20.1648C155.018 20.4448 154.625 20.8648 154.331 21.4248C154.038 21.9715 153.891 22.6448 153.891 23.4448C153.891 24.6315 154.191 25.5515 154.791 26.2048C155.405 26.8448 156.171 27.1648 157.091 27.1648ZM166.225 16.4848C165.812 16.4848 165.465 16.3448 165.185 16.0648C164.905 15.7848 164.765 15.4382 164.765 15.0248C164.765 14.6115 164.905 14.2648 165.185 13.9848C165.465 13.7048 165.812 13.5648 166.225 13.5648C166.625 13.5648 166.965 13.7048 167.245 13.9848C167.525 14.2648 167.665 14.6115 167.665 15.0248C167.665 15.4382 167.525 15.7848 167.245 16.0648C166.965 16.3448 166.625 16.4848 166.225 16.4848ZM167.345 17.9448V28.9648H165.065V17.9448H167.345ZM175.899 17.7648C176.765 17.7648 177.539 17.9448 178.219 18.3048C178.912 18.6648 179.452 19.1982 179.839 19.9048C180.225 20.6115 180.419 21.4648 180.419 22.4648V28.9648H178.159V22.8048C178.159 21.8182 177.912 21.0648 177.419 20.5448C176.925 20.0115 176.252 19.7448 175.399 19.7448C174.545 19.7448 173.865 20.0115 173.359 20.5448C172.865 21.0648 172.619 21.8182 172.619 22.8048V28.9648H170.339V17.9448H172.619V19.2048C172.992 18.7515 173.465 18.3982 174.039 18.1448C174.625 17.8915 175.245 17.7648 175.899 17.7648Z" fill="#FF00C1"/>
<path d="M391.087 29.1048C390.153 29.1048 389.313 28.9448 388.567 28.6248C387.82 28.2915 387.233 27.8248 386.807 27.2248C386.38 26.6248 386.167 25.9248 386.167 25.1248H388.607C388.66 25.7248 388.893 26.2182 389.307 26.6048C389.733 26.9915 390.327 27.1848 391.087 27.1848C391.873 27.1848 392.487 26.9982 392.927 26.6248C393.367 26.2382 393.587 25.7448 393.587 25.1448C393.587 24.6782 393.447 24.2982 393.167 24.0048C392.9 23.7115 392.56 23.4848 392.147 23.3248C391.747 23.1648 391.187 22.9915 390.467 22.8048C389.56 22.5648 388.82 22.3248 388.247 22.0848C387.687 21.8315 387.207 21.4448 386.807 20.9248C386.407 20.4048 386.207 19.7115 386.207 18.8448C386.207 18.0448 386.407 17.3448 386.807 16.7448C387.207 16.1448 387.767 15.6848 388.487 15.3648C389.207 15.0448 390.04 14.8848 390.987 14.8848C392.333 14.8848 393.433 15.2248 394.287 15.9048C395.153 16.5715 395.633 17.4915 395.727 18.6648H393.207C393.167 18.1582 392.927 17.7248 392.487 17.3648C392.047 17.0048 391.467 16.8248 390.747 16.8248C390.093 16.8248 389.56 16.9915 389.147 17.3248C388.733 17.6582 388.527 18.1382 388.527 18.7648C388.527 19.1915 388.653 19.5448 388.907 19.8248C389.173 20.0915 389.507 20.3048 389.907 20.4648C390.307 20.6248 390.853 20.7982 391.547 20.9848C392.467 21.2382 393.213 21.4915 393.787 21.7448C394.373 21.9982 394.867 22.3915 395.267 22.9248C395.68 23.4448 395.887 24.1448 395.887 25.0248C395.887 25.7315 395.693 26.3982 395.307 27.0248C394.933 27.6515 394.38 28.1582 393.647 28.5448C392.927 28.9182 392.073 29.1048 391.087 29.1048ZM401.237 19.8048V25.9048C401.237 26.3182 401.33 26.6182 401.517 26.8048C401.717 26.9782 402.05 27.0648 402.517 27.0648H403.917V28.9648H402.117C401.09 28.9648 400.303 28.7248 399.757 28.2448C399.21 27.7648 398.937 26.9848 398.937 25.9048V19.8048H397.637V17.9448H398.937V15.2048H401.237V17.9448H403.917V19.8048H401.237ZM405.258 23.4048C405.258 22.2982 405.485 21.3182 405.938 20.4648C406.405 19.6115 407.032 18.9515 407.818 18.4848C408.618 18.0048 409.498 17.7648 410.458 17.7648C411.325 17.7648 412.078 17.9382 412.718 18.2848C413.372 18.6182 413.892 19.0382 414.278 19.5448V17.9448H416.578V28.9648H414.278V27.3248C413.892 27.8448 413.365 28.2782 412.698 28.6248C412.032 28.9715 411.272 29.1448 410.418 29.1448C409.472 29.1448 408.605 28.9048 407.818 28.4248C407.032 27.9315 406.405 27.2515 405.938 26.3848C405.485 25.5048 405.258 24.5115 405.258 23.4048ZM414.278 23.4448C414.278 22.6848 414.118 22.0248 413.798 21.4648C413.492 20.9048 413.085 20.4782 412.578 20.1848C412.072 19.8915 411.525 19.7448 410.938 19.7448C410.352 19.7448 409.805 19.8915 409.298 20.1848C408.792 20.4648 408.378 20.8848 408.058 21.4448C407.752 21.9915 407.598 22.6448 407.598 23.4048C407.598 24.1648 407.752 24.8315 408.058 25.4048C408.378 25.9782 408.792 26.4182 409.298 26.7248C409.818 27.0182 410.365 27.1648 410.938 27.1648C411.525 27.1648 412.072 27.0182 412.578 26.7248C413.085 26.4315 413.492 26.0048 413.798 25.4448C414.118 24.8715 414.278 24.2048 414.278 23.4448ZM423.933 23.4648L429.013 28.9648H425.933L421.853 24.2248V28.9648H419.573V14.1648H421.853V22.7648L425.853 17.9448H429.013L423.933 23.4648ZM440.747 23.1848C440.747 23.5982 440.72 23.9715 440.667 24.3048H432.247C432.314 25.1848 432.64 25.8915 433.227 26.4248C433.814 26.9582 434.534 27.2248 435.387 27.2248C436.614 27.2248 437.48 26.7115 437.987 25.6848H440.447C440.114 26.6982 439.507 27.5315 438.627 28.1848C437.76 28.8248 436.68 29.1448 435.387 29.1448C434.334 29.1448 433.387 28.9115 432.547 28.4448C431.72 27.9648 431.067 27.2982 430.587 26.4448C430.12 25.5782 429.887 24.5782 429.887 23.4448C429.887 22.3115 430.114 21.3182 430.567 20.4648C431.034 19.5982 431.68 18.9315 432.507 18.4648C433.347 17.9982 434.307 17.7648 435.387 17.7648C436.427 17.7648 437.354 17.9915 438.167 18.4448C438.98 18.8982 439.614 19.5382 440.067 20.3648C440.52 21.1782 440.747 22.1182 440.747 23.1848ZM438.367 22.4648C438.354 21.6248 438.054 20.9515 437.467 20.4448C436.88 19.9382 436.154 19.6848 435.287 19.6848C434.5 19.6848 433.827 19.9382 433.267 20.4448C432.707 20.9382 432.374 21.6115 432.267 22.4648H438.367Z" fill="#FF00C1"/>
<path d="M34.2895 47.1957C44.591 47.1957 52.942 38.8446 52.942 28.5431C52.942 18.2416 44.591 9.89062 34.2895 9.89062C23.988 9.89062 15.637 18.2416 15.637 28.5431C15.637 38.8446 23.988 47.1957 34.2895 47.1957Z" fill="url(#paint0_linear_47_59)"/>
<path d="M67.5512 69.0599L67.0412 67.803C65.3255 63.494 62.3758 59.7875 58.5618 57.1485C54.7477 54.5095 50.2393 53.0554 45.6021 52.9688H23.0721C18.4349 53.0554 13.9265 54.5095 10.1125 57.1485C6.29845 59.7875 3.34869 63.494 1.63301 67.803L1.08745 68.9888C0.230733 70.9533 -0.128685 73.0986 0.0409083 75.2351C0.210501 77.3715 0.90396 79.4333 2.05988 81.238C3.00401 82.7793 4.32645 84.0535 5.90169 84.9397C7.47693 85.8259 9.25261 86.2946 11.06 86.3014H57.5905C59.4006 86.2919 61.1786 85.8222 62.7572 84.9365C64.3358 84.0507 65.6631 82.778 66.6143 81.238C67.7525 79.4387 68.433 77.3882 68.5963 75.2654C68.7596 73.1426 68.4008 71.0121 67.5512 69.0599Z" fill="url(#paint1_linear_47_59)"/>
<path d="M286.859 47.1957C297.16 47.1957 305.511 38.8446 305.511 28.5431C305.511 18.2416 297.16 9.89062 286.859 9.89062C276.557 9.89062 268.206 18.2416 268.206 28.5431C268.206 38.8446 276.557 47.1957 286.859 47.1957Z" fill="url(#paint2_linear_47_59)"/>
<path d="M320.12 69.0599L319.61 67.803C317.894 63.494 314.945 59.7875 311.131 57.1485C307.317 54.5095 302.808 53.0554 298.171 52.9688H275.641C271.004 53.057 266.497 54.5117 262.683 57.1505C258.869 59.7893 255.919 63.4949 254.202 67.803L253.656 68.9888C252.801 70.9542 252.444 73.1001 252.616 75.2366C252.787 77.3731 253.483 79.4343 254.641 81.238C255.581 82.7799 256.901 84.0549 258.475 84.9413C260.048 85.8277 261.823 86.296 263.629 86.3014H310.159C311.97 86.2919 313.747 85.8222 315.326 84.9365C316.905 84.0507 318.232 82.778 319.183 81.238C320.321 79.4387 321.002 77.3882 321.165 75.2654C321.328 73.1426 320.97 71.0121 320.12 69.0599Z" fill="url(#paint3_linear_47_59)"/>
<path d="M217.842 48.2969H103.164V49.4827H217.842V48.2969Z" fill="#666666"/>
<path d="M471.601 44.4336H356.923V45.6194H471.601V44.4336Z" fill="#666666"/>
<path d="M522.828 56.0188C525.028 56.0228 527.227 55.8842 529.409 55.6037V32.7061C527.227 32.4257 525.028 32.287 522.828 32.2911C509.784 32.2911 499.219 37.0342 499.219 42.9632V45.3348C499.219 51.2282 509.796 56.0188 522.828 56.0188ZM522.828 67.9716C525.028 67.9756 527.227 67.837 529.409 67.5565V60.845C527.227 61.1254 525.028 61.264 522.828 61.26C511.444 61.26 501.946 57.6077 499.717 52.746C499.396 53.4334 499.227 54.1813 499.219 54.9397V57.3113C499.219 63.181 509.796 67.9716 522.828 67.9716ZM529.409 73.3195V72.7977C527.227 73.0782 525.028 73.2168 522.828 73.2128C511.444 73.2128 501.946 69.5605 499.717 64.7106C499.395 65.3935 499.225 66.1378 499.219 66.8925V69.2641C499.219 75.193 509.796 79.9362 522.828 79.9362C525.324 79.9412 527.817 79.7588 530.287 79.3907C529.711 78.2297 529.411 76.9515 529.409 75.6555V73.3195ZM556.86 14.1484C543.816 14.1484 533.263 18.9509 533.263 24.8206V27.1922C533.263 33.1211 543.828 37.8643 556.86 37.8643C569.892 37.8643 580.469 33.1211 580.469 27.1922V24.8206C580.469 18.9865 569.904 14.1484 556.86 14.1484ZM556.86 43.1292C545.488 43.1292 535.99 39.477 533.761 34.6152C533.435 35.3008 533.265 36.0499 533.263 36.8089V39.1805C533.263 45.1095 543.828 49.8526 556.86 49.8526C569.892 49.8526 580.469 45.1095 580.469 39.1805V36.8089C580.467 36.0499 580.297 35.3008 579.971 34.6152C577.742 39.477 568.244 43.1292 556.86 43.1292ZM556.86 55.082C545.488 55.082 535.99 51.4297 533.761 46.568C533.435 47.2536 533.265 48.0027 533.263 48.7617V51.1333C533.263 57.0623 543.828 61.8054 556.86 61.8054C569.892 61.8054 580.469 57.0623 580.469 51.1333V48.7617C580.467 48.0027 580.297 47.2536 579.971 46.568C577.742 51.4297 568.244 55.082 556.86 55.082ZM556.86 67.687C545.488 67.687 535.99 64.0347 533.761 59.173C533.433 59.8578 533.263 60.6074 533.263 61.3667V63.7383C533.263 69.6672 543.828 74.4104 556.86 74.4104C569.892 74.4104 580.469 69.6672 580.469 63.7383V61.3667C580.469 60.6074 580.299 59.8578 579.971 59.173C577.742 64.0466 568.244 67.687 556.86 67.687ZM556.86 79.6397C545.488 79.6397 535.99 75.9875 533.761 71.1258C533.434 71.8109 533.264 72.5603 533.263 73.3195V75.6911C533.263 81.62 543.828 86.3632 556.86 86.3632C569.892 86.3632 580.469 81.62 580.469 75.6911V73.3195C580.469 72.5602 580.299 71.8105 579.971 71.1258C577.742 75.9875 568.244 79.6397 556.86 79.6397Z" fill="url(#paint4_linear_47_59)"/>
<path d="M724.103 50.5273H609.425V51.7131H724.103V50.5273Z" fill="#666666"/>
<path d="M36.0835 152.648L31.2573 164.447L36.0835 161.649L40.8978 164.447L36.0835 152.648Z" fill="#666666"/>
<path d="M192.691 217.274H35.5737V161.02H36.7595V216.088H192.691V217.274Z" fill="#666666"/>
<path d="M792.097 217.274H643.364V216.088H790.912V152.648H792.097V217.274Z" fill="#666666"/>
<path d="M634.979 216.682L646.778 211.867L643.98 216.682L646.778 221.508L634.979 216.682Z" fill="#666666"/>
<path d="M790.627 77.5968V75.9011C790.633 75.8578 790.633 75.8139 790.627 75.7706C789.963 69.0946 787.07 64.6835 782.196 63.0234L777.607 61.4225L769.306 54.4145C768.693 53.9001 767.91 53.6322 767.11 53.6629C766.31 53.6936 765.551 54.0207 764.978 54.5805C764.474 55.0805 764.15 55.7339 764.058 56.438C763.966 57.1421 764.11 57.8569 764.468 58.4699L763.804 58.1616L760.069 53.6556L758.373 49.3393C758.067 48.5765 757.499 47.9476 756.771 47.5653C756.043 47.1829 755.203 47.072 754.401 47.2523C753.927 47.3632 753.482 47.5739 753.095 47.8704C752.709 48.1669 752.39 48.5423 752.16 48.9717C751.926 49.3981 751.787 49.8699 751.752 50.3549C751.718 50.8399 751.788 51.3267 751.958 51.7821L753.891 57.0233C753.921 57.1106 753.961 57.1942 754.01 57.2723L759.18 65.2171C759.205 65.2652 759.236 65.3092 759.275 65.3475C761.067 67.4605 763.296 69.1596 765.808 70.3279C768.395 71.3986 770.756 72.9474 772.769 74.8931C773.51 75.7036 773.971 76.7301 774.085 77.8221C773.719 78.0443 773.418 78.358 773.21 78.7322C773.002 79.1065 772.895 79.5284 772.899 79.9565V83.6324C772.899 84.2929 773.162 84.9263 773.629 85.3933C774.096 85.8603 774.729 86.1226 775.39 86.1226H789.821C790.481 86.1226 791.115 85.8603 791.582 85.3933C792.049 84.9263 792.311 84.2929 792.311 83.6324V79.9565C792.31 79.437 792.147 78.9308 791.846 78.5079C791.544 78.0851 791.118 77.7666 790.627 77.5968ZM766.911 68.0393C764.754 67.0391 762.838 65.5874 761.291 63.7823L756.239 56.0153L754.366 50.9046C754.312 50.7853 754.284 50.6559 754.284 50.5251C754.284 50.3943 754.312 50.265 754.366 50.1457C754.43 50.0297 754.519 49.9286 754.625 49.849C754.731 49.7693 754.853 49.7128 754.982 49.6832C755.199 49.6342 755.426 49.6647 755.622 49.7692C755.818 49.8737 755.969 50.0452 756.049 50.2524L757.816 54.7347C757.866 54.8584 757.934 54.9742 758.018 55.0786L762.073 59.964C762.191 60.1076 762.342 60.2213 762.512 60.296L768.714 63.1538L771.986 66.8772C772.104 67.0093 772.249 67.1154 772.41 67.1889C772.571 67.2624 772.746 67.3016 772.923 67.3041C773.231 67.3091 773.529 67.1943 773.753 66.9839C774 66.763 774.15 66.4534 774.17 66.1225C774.19 65.7915 774.079 65.4661 773.86 65.2171L770.421 61.304L766.745 57.3316C766.623 57.2017 766.554 57.0299 766.554 56.8513C766.554 56.6727 766.623 56.5009 766.745 56.3711C766.874 56.2519 767.044 56.1857 767.22 56.1857C767.395 56.1857 767.565 56.2519 767.694 56.3711L776.137 63.4858C776.255 63.5866 776.392 63.6632 776.54 63.7111L781.354 65.3831C785.255 66.723 787.532 70.2804 788.113 75.9604V77.4782H776.575C776.374 75.8818 775.692 74.3846 774.619 73.1856C772.396 71.0005 769.781 69.2545 766.911 68.0393ZM789.821 83.6087H775.413V79.9683H789.821V83.6087Z" fill="#EEEEEE"/>
<path d="M834.264 48.96C834.034 48.5306 833.715 48.1551 833.329 47.8587C832.942 47.5622 832.497 47.3515 832.023 47.2406C831.221 47.0602 830.381 47.1712 829.653 47.5535C828.925 47.9359 828.357 48.5648 828.05 49.3276L826.367 53.6439L822.643 58.1143L821.979 58.4108C822.327 57.8002 822.465 57.092 822.37 56.3956C822.276 55.6991 821.955 55.053 821.457 54.5569C820.885 53.9971 820.125 53.67 819.325 53.6394C818.525 53.6087 817.743 53.8766 817.129 54.3909L808.829 61.399L804.228 62.9998C799.378 64.6599 796.461 69.071 795.797 75.747C795.791 75.7903 795.791 75.8342 795.797 75.8775V77.585C795.308 77.7595 794.886 78.0815 794.589 78.5063C794.292 78.9312 794.134 79.438 794.137 79.9566V83.6326C794.137 83.9596 794.201 84.2834 794.326 84.5855C794.451 84.8876 794.635 85.1622 794.866 85.3934C795.097 85.6246 795.372 85.808 795.674 85.9332C795.976 86.0583 796.3 86.1227 796.627 86.1227H811.058C811.718 86.1227 812.352 85.8604 812.819 85.3934C813.286 84.9264 813.548 84.293 813.548 83.6326V79.9566C813.551 79.5272 813.444 79.1041 813.236 78.7282C813.029 78.3524 812.728 78.0362 812.362 77.8103C812.485 76.7241 812.945 75.7037 813.679 74.8933C815.691 72.9475 818.053 71.3987 820.639 70.328C823.152 69.1598 825.381 67.4606 827.173 65.3477C827.211 65.3094 827.243 65.2654 827.268 65.2172L832.438 57.2724C832.486 57.1919 832.53 57.1088 832.568 57.0234L834.489 51.7822C834.658 51.3235 834.725 50.8336 834.686 50.3464C834.648 49.8591 834.503 49.3861 834.264 48.96ZM811.07 83.6089H796.663V79.9685H811.07V83.6089ZM832.13 50.9047L830.256 56.0155L825.205 63.7824C823.657 65.5875 821.741 67.0392 819.584 68.0394C816.699 69.2487 814.068 70.9905 811.829 73.1739C810.756 74.3728 810.073 75.8701 809.872 77.4665H798.334V75.9012C798.916 70.2213 801.192 66.6639 805.094 65.3239L809.908 63.652C810.056 63.604 810.193 63.5275 810.311 63.4267L818.754 56.3119C818.883 56.1927 819.052 56.1266 819.228 56.1266C819.404 56.1266 819.573 56.1927 819.702 56.3119C819.822 56.4411 819.888 56.6105 819.888 56.7862C819.888 56.962 819.822 57.1313 819.702 57.2606L816.027 61.2448L812.576 65.1579C812.358 65.4085 812.249 65.7348 812.271 66.0658C812.293 66.3967 812.446 66.7055 812.694 66.9248C812.916 67.1323 813.209 67.2469 813.513 67.2449C813.692 67.2434 813.868 67.2046 814.032 67.1311C814.195 67.0576 814.341 66.951 814.461 66.818L817.722 63.0946L823.924 60.2369C824.096 60.1651 824.247 60.0508 824.363 59.9049L828.418 55.0194C828.506 54.9181 828.574 54.8016 828.62 54.6755L830.386 50.1932C830.466 49.9861 830.618 49.8145 830.814 49.71C831.01 49.6055 831.237 49.575 831.454 49.624C831.585 49.6499 831.708 49.705 831.815 49.785C831.921 49.8651 832.009 49.9681 832.07 50.0865C832.142 50.2091 832.185 50.3468 832.196 50.4887C832.206 50.6306 832.183 50.773 832.13 50.9047Z" fill="#EEEEEE"/>
<path d="M814.058 23.098L816.797 25.2798L815.86 28.6594C815.765 29.0056 815.778 29.3727 815.896 29.7116C816.015 30.0506 816.234 30.3453 816.524 30.5566C816.828 30.777 817.193 30.8973 817.568 30.9005C817.914 30.9012 818.253 30.7979 818.54 30.6041L821.457 28.6831L824.386 30.6041C824.681 30.8129 825.033 30.925 825.394 30.925C825.755 30.925 826.108 30.8129 826.402 30.6041C826.693 30.3928 826.912 30.098 827.03 29.7591C827.149 29.4201 827.161 29.053 827.066 28.7068L826.129 25.3273L828.869 23.1454C829.15 22.923 829.357 22.6197 829.461 22.2762C829.565 21.9327 829.561 21.5656 829.45 21.2244C829.336 20.8869 829.122 20.5923 828.835 20.3803C828.549 20.1683 828.205 20.0491 827.849 20.0386L824.351 19.8726L823.165 16.5999C823.046 16.2538 822.823 15.9535 822.525 15.7409C822.227 15.5283 821.871 15.4141 821.505 15.4141C821.141 15.4165 820.787 15.5319 820.492 15.7444C820.197 15.9568 819.975 16.2558 819.857 16.5999L818.671 19.8726L815.173 20.0386C814.817 20.0491 814.472 20.1683 814.186 20.3803C813.9 20.5923 813.686 20.8869 813.572 21.2244C813.46 21.55 813.447 21.9012 813.533 22.2343C813.62 22.5674 813.802 22.8678 814.058 23.098ZM819.513 22.2561C819.756 22.2431 819.991 22.1601 820.189 22.0171C820.387 21.8741 820.539 21.6771 820.627 21.4497L821.469 19.2204L822.299 21.4497C822.388 21.6771 822.54 21.8741 822.738 22.0171C822.936 22.1601 823.17 22.2431 823.414 22.2561L825.786 22.3628L823.924 23.845C823.728 23.9929 823.583 24.1977 823.509 24.4313C823.435 24.6649 823.435 24.9158 823.509 25.1494L824.137 27.438L822.157 26.1336C821.951 26.0047 821.713 25.9349 821.469 25.932C821.222 25.9327 820.98 26.0026 820.77 26.1336L818.789 27.438L819.418 25.1494C819.492 24.9158 819.492 24.6649 819.418 24.4313C819.343 24.1977 819.198 23.9929 819.003 23.845L817.141 22.3628L819.513 22.2561Z" fill="#EEEEEE"/>
<path d="M757.615 23.0991L760.354 25.281L759.417 28.6605C759.322 29.0067 759.335 29.3738 759.453 29.7127C759.572 30.0517 759.791 30.3464 760.081 30.5577C760.376 30.7665 760.728 30.8787 761.089 30.8787C761.45 30.8787 761.803 30.7665 762.097 30.5577L765.026 28.6368L767.943 30.5577C768.231 30.7503 768.569 30.8535 768.915 30.8542C769.291 30.8525 769.656 30.7322 769.959 30.5103C770.253 30.3025 770.475 30.008 770.594 29.6679C770.714 29.3278 770.723 28.9591 770.623 28.613L769.686 25.2335L772.425 23.0517C772.707 22.8293 772.914 22.5259 773.018 22.1824C773.121 21.839 773.118 21.4719 773.006 21.1307C772.893 20.7932 772.678 20.4986 772.392 20.2866C772.106 20.0746 771.762 19.9553 771.406 19.9449L767.848 19.7789L766.662 16.5061C766.544 16.162 766.322 15.8631 766.027 15.6506C765.732 15.4382 765.378 15.3228 765.014 15.3203C764.648 15.3203 764.292 15.4346 763.994 15.6472C763.696 15.8598 763.473 16.1601 763.354 16.5061L762.168 19.7789L758.611 19.9449C758.255 19.957 757.912 20.0769 757.626 20.2886C757.34 20.5004 757.125 20.7941 757.01 21.1307C756.891 21.4807 756.885 21.8594 756.993 22.2129C757.102 22.5664 757.319 22.8766 757.615 23.0991ZM763.069 22.2572C763.313 22.2442 763.548 22.1612 763.746 22.0182C763.943 21.8752 764.096 21.6782 764.184 21.4509L765.026 19.2216L765.856 21.4509C765.945 21.6782 766.097 21.8752 766.295 22.0182C766.492 22.1612 766.727 22.2442 766.971 22.2572L769.342 22.3639L767.492 23.8462C767.295 23.9925 767.148 24.1966 767.071 24.4303C766.995 24.664 766.993 24.9157 767.066 25.1505L767.694 27.4391L765.726 26.0992C765.521 25.9655 765.282 25.8943 765.038 25.8943C764.794 25.8943 764.555 25.9655 764.35 26.0992L762.37 27.4035L762.998 25.115C763.063 24.8796 763.057 24.6305 762.981 24.3986C762.905 24.1667 762.763 23.9623 762.571 23.8106L760.71 22.3283L763.069 22.2572Z" fill="#EEEEEE"/>
<path d="M785.884 8.46658L788.623 10.6484L787.686 14.0279C787.593 14.3743 787.606 14.7408 787.725 15.0794C787.843 15.418 788.061 15.7128 788.35 15.9252C788.646 16.1307 788.998 16.2409 789.358 16.2409C789.719 16.2409 790.07 16.1307 790.366 15.9252L793.295 13.9924L796.212 15.9252C796.502 16.1141 796.839 16.2169 797.185 16.2217C797.56 16.22 797.925 16.0997 798.228 15.8778C798.518 15.6665 798.738 15.3717 798.856 15.0328C798.975 14.6938 798.987 14.3268 798.892 13.9805L797.955 10.601L800.694 8.41914C800.977 8.19483 801.184 7.88939 801.288 7.54385C801.392 7.19831 801.388 6.82927 801.276 6.48631C801.163 6.14786 800.949 5.85232 800.663 5.64008C800.376 5.42784 800.031 5.30925 799.675 5.30051L796.177 5.1345L794.991 1.84985C794.873 1.50576 794.651 1.20682 794.356 0.994382C794.06 0.781949 793.706 0.666523 793.343 0.664062C792.977 0.665811 792.621 0.780772 792.324 0.993134C792.027 1.2055 791.803 1.50481 791.682 1.84985L790.497 5.1345L786.999 5.30051C786.642 5.30925 786.297 5.42784 786.011 5.64008C785.724 5.85232 785.51 6.14786 785.398 6.48631C785.264 6.82616 785.239 7.19903 785.326 7.55364C785.413 7.90825 785.608 8.2272 785.884 8.46658ZM791.339 7.62466C791.584 7.61218 791.82 7.52802 792.019 7.3826C792.217 7.23718 792.368 7.03687 792.453 6.80646L793.295 4.58903L794.125 6.80646C794.211 7.03687 794.362 7.23718 794.56 7.3826C794.758 7.52802 794.994 7.61218 795.24 7.62466L797.611 7.73137L795.75 9.21362C795.554 9.36147 795.409 9.56628 795.335 9.79987C795.261 10.0335 795.261 10.2843 795.335 10.518L795.963 12.8066L793.983 11.5022C793.781 11.3615 793.541 11.2869 793.295 11.2888C793.049 11.2869 792.809 11.3615 792.607 11.5022L790.615 12.8066L791.256 10.518C791.328 10.2832 791.326 10.0315 791.25 9.79777C791.174 9.56408 791.026 9.35994 790.829 9.21362L788.967 7.73137L791.339 7.62466Z" fill="#EEEEEE"/>
<path d="M780.643 35.1367L783.951 40.8641H790.639L793.947 35.1367H780.643Z" fill="url(#paint5_linear_47_59)"/>
<path d="M793.247 19.3516C790.475 19.35 787.729 19.8948 785.166 20.9549C782.604 22.0149 780.276 23.5694 778.315 25.5295C776.354 27.4896 774.798 29.817 773.736 32.3786C772.675 34.9402 772.128 37.6859 772.128 40.4587C772.128 43.2315 772.675 45.9771 773.736 48.5387C774.798 51.1004 776.354 53.4277 778.315 55.3878C780.276 57.348 782.604 58.9025 785.166 59.9625C787.729 61.0225 790.475 61.5673 793.247 61.5658C796.019 61.5658 798.764 61.0198 801.325 59.9591C803.886 58.8984 806.212 57.3436 808.172 55.3836C810.132 53.4237 811.687 51.0968 812.748 48.536C813.809 45.9752 814.354 43.2305 814.354 40.4587C814.354 34.8607 812.131 29.492 808.172 25.5337C804.214 21.5753 798.845 19.3516 793.247 19.3516ZM793.247 51.8897L790.081 46.4114C789.713 45.7769 789.197 45.2402 788.578 44.8461C787.959 44.452 787.255 44.2121 786.524 44.1465H785.884L788.848 49.2691L787.33 51.8897L782.86 44.1465L777.654 35.1345L776.148 32.5139H798.512L797.006 35.1345L791.813 44.1228L794.789 49.281L793.247 51.8897ZM806.291 39.5456H803.315L805.817 35.1345H802.888L797.742 44.1228L799.212 46.6604L801.429 42.8184H804.453L799.212 51.8897L794.73 44.1228L801.429 32.5139H810.394L806.291 39.5456Z" fill="url(#paint6_linear_47_59)"/>
<path d="M11.3422 103.602V110.306C11.3422 111.309 11.5609 112.056 11.9982 112.546C12.4462 113.037 13.0702 113.282 13.8702 113.282C14.6596 113.282 15.2729 113.037 15.7102 112.546C16.1582 112.056 16.3822 111.309 16.3822 110.306V103.602H18.2062V110.306C18.2062 111.853 17.8062 113.026 17.0062 113.826C16.2062 114.616 15.1502 115.01 13.8382 115.01C12.5369 115.01 11.4916 114.616 10.7022 113.826C9.91289 113.026 9.51822 111.853 9.51822 110.306V103.602H11.3422ZM23.5486 105.97C24.5833 105.97 25.4099 106.237 26.0286 106.77C26.6579 107.293 27.0419 107.997 27.1806 108.882H25.4526C25.3779 108.402 25.1699 108.018 24.8286 107.73C24.4979 107.432 24.0553 107.282 23.5006 107.282C23.0419 107.282 22.6846 107.394 22.4286 107.618C22.1833 107.832 22.0606 108.125 22.0606 108.498C22.0606 108.776 22.1513 109 22.3326 109.17C22.5139 109.341 22.7379 109.474 23.0046 109.57C23.2819 109.666 23.6713 109.773 24.1726 109.89C24.8339 110.04 25.3673 110.194 25.7726 110.354C26.1886 110.514 26.5406 110.77 26.8286 111.122C27.1273 111.464 27.2766 111.933 27.2766 112.53C27.2766 113.266 26.9939 113.864 26.4286 114.322C25.8739 114.781 25.1219 115.01 24.1726 115.01C23.0739 115.01 22.1833 114.754 21.5006 114.242C20.8286 113.73 20.4233 113.016 20.2846 112.098H22.0606C22.1139 112.578 22.3273 112.968 22.7006 113.266C23.0739 113.565 23.5646 113.714 24.1726 113.714C24.6099 113.714 24.9513 113.602 25.1966 113.378C25.4526 113.144 25.5806 112.85 25.5806 112.498C25.5806 112.189 25.4846 111.944 25.2926 111.762C25.1006 111.581 24.8606 111.442 24.5726 111.346C24.2846 111.24 23.8899 111.133 23.3886 111.026C22.7486 110.877 22.2259 110.728 21.8206 110.578C21.4259 110.429 21.0846 110.189 20.7966 109.858C20.5193 109.517 20.3806 109.058 20.3806 108.482C20.3806 107.736 20.6579 107.133 21.2126 106.674C21.7779 106.205 22.5566 105.97 23.5486 105.97ZM37.6177 110.066C37.6177 110.365 37.5964 110.626 37.5537 110.85H30.7697C30.8017 111.757 31.0524 112.429 31.5217 112.866C31.9911 113.304 32.5724 113.522 33.2657 113.522C33.8737 113.522 34.3857 113.368 34.8017 113.058C35.2284 112.749 35.4897 112.338 35.5857 111.826H37.5377C37.4204 112.445 37.1751 112.994 36.8017 113.474C36.4284 113.954 35.9431 114.333 35.3457 114.61C34.7484 114.877 34.0817 115.01 33.3457 115.01C32.4924 115.01 31.7351 114.829 31.0737 114.466C30.4231 114.104 29.9111 113.581 29.5377 112.898C29.1644 112.216 28.9777 111.41 28.9777 110.482C28.9777 109.565 29.1644 108.765 29.5377 108.082C29.9111 107.4 30.4231 106.877 31.0737 106.514C31.7351 106.152 32.4924 105.97 33.3457 105.97C34.2097 105.97 34.9617 106.152 35.6017 106.514C36.2524 106.866 36.7484 107.357 37.0897 107.986C37.4417 108.605 37.6177 109.298 37.6177 110.066ZM35.7777 110.018C35.7991 109.442 35.6977 108.962 35.4737 108.578C35.2604 108.184 34.9617 107.896 34.5777 107.714C34.2044 107.522 33.7937 107.426 33.3457 107.426C32.6311 107.426 32.0337 107.645 31.5537 108.082C31.0737 108.52 30.8124 109.165 30.7697 110.018H35.7777ZM41.5228 107.81C41.8215 107.234 42.2482 106.781 42.8028 106.45C43.3575 106.109 43.9975 105.938 44.7228 105.938V107.922H44.1788C43.3788 107.922 42.7335 108.12 42.2428 108.514C41.7628 108.898 41.5228 109.538 41.5228 110.434V114.898H39.6988V106.082H41.5228V107.81ZM57.2155 112.45H52.4475L51.5835 114.898H49.6315L53.7915 103.778H55.8875L60.0315 114.898H58.0795L57.2155 112.45ZM56.7035 111.042L54.8315 105.762L52.9595 111.042H56.7035Z" fill="white" fill-opacity="0.8"/>
<path d="M265.017 103.602V110.306C265.017 111.309 265.235 112.056 265.673 112.546C266.121 113.037 266.745 113.282 267.545 113.282C268.334 113.282 268.947 113.037 269.385 112.546C269.833 112.056 270.057 111.309 270.057 110.306V103.602H271.881V110.306C271.881 111.853 271.481 113.026 270.681 113.826C269.881 114.616 268.825 115.01 267.513 115.01C266.211 115.01 265.166 114.616 264.377 113.826C263.587 113.026 263.193 111.853 263.193 110.306V103.602H265.017ZM277.223 105.97C278.258 105.97 279.084 106.237 279.703 106.77C280.332 107.293 280.716 107.997 280.855 108.882H279.127C279.052 108.402 278.844 108.018 278.503 107.73C278.172 107.432 277.73 107.282 277.175 107.282C276.716 107.282 276.359 107.394 276.103 107.618C275.858 107.832 275.735 108.125 275.735 108.498C275.735 108.776 275.826 109 276.007 109.17C276.188 109.341 276.412 109.474 276.679 109.57C276.956 109.666 277.346 109.773 277.847 109.89C278.508 110.04 279.042 110.194 279.447 110.354C279.863 110.514 280.215 110.77 280.503 111.122C280.802 111.464 280.951 111.933 280.951 112.53C280.951 113.266 280.668 113.864 280.103 114.322C279.548 114.781 278.796 115.01 277.847 115.01C276.748 115.01 275.858 114.754 275.175 114.242C274.503 113.73 274.098 113.016 273.959 112.098H275.735C275.788 112.578 276.002 112.968 276.375 113.266C276.748 113.565 277.239 113.714 277.847 113.714C278.284 113.714 278.626 113.602 278.871 113.378C279.127 113.144 279.255 112.85 279.255 112.498C279.255 112.189 279.159 111.944 278.967 111.762C278.775 111.581 278.535 111.442 278.247 111.346C277.959 111.24 277.564 111.133 277.063 111.026C276.423 110.877 275.9 110.728 275.495 110.578C275.1 110.429 274.759 110.189 274.471 109.858C274.194 109.517 274.055 109.058 274.055 108.482C274.055 107.736 274.332 107.133 274.887 106.674C275.452 106.205 276.231 105.97 277.223 105.97ZM291.292 110.066C291.292 110.365 291.271 110.626 291.228 110.85H284.444C284.476 111.757 284.727 112.429 285.196 112.866C285.665 113.304 286.247 113.522 286.94 113.522C287.548 113.522 288.06 113.368 288.476 113.058C288.903 112.749 289.164 112.338 289.26 111.826H291.212C291.095 112.445 290.849 112.994 290.476 113.474C290.103 113.954 289.617 114.333 289.02 114.61C288.423 114.877 287.756 115.01 287.02 115.01C286.167 115.01 285.409 114.829 284.748 114.466C284.097 114.104 283.585 113.581 283.212 112.898C282.839 112.216 282.652 111.41 282.652 110.482C282.652 109.565 282.839 108.765 283.212 108.082C283.585 107.4 284.097 106.877 284.748 106.514C285.409 106.152 286.167 105.97 287.02 105.97C287.884 105.97 288.636 106.152 289.276 106.514C289.927 106.866 290.423 107.357 290.764 107.986C291.116 108.605 291.292 109.298 291.292 110.066ZM289.452 110.018C289.473 109.442 289.372 108.962 289.148 108.578C288.935 108.184 288.636 107.896 288.252 107.714C287.879 107.522 287.468 107.426 287.02 107.426C286.305 107.426 285.708 107.645 285.228 108.082C284.748 108.52 284.487 109.165 284.444 110.018H289.452ZM295.197 107.81C295.496 107.234 295.923 106.781 296.477 106.45C297.032 106.109 297.672 105.938 298.397 105.938V107.922H297.853C297.053 107.922 296.408 108.12 295.917 108.514C295.437 108.898 295.197 109.538 295.197 110.434V114.898H293.373V106.082H295.197V107.81ZM310.042 109.074C310.725 109.213 311.274 109.538 311.69 110.05C312.117 110.562 312.33 111.16 312.33 111.842C312.33 112.781 312.015 113.528 311.386 114.082C310.757 114.626 309.845 114.898 308.65 114.898H304.154V103.602H308.57C309.701 103.602 310.565 103.858 311.162 104.37C311.77 104.872 312.074 105.565 312.074 106.45C312.074 107.165 311.887 107.746 311.514 108.194C311.141 108.632 310.65 108.925 310.042 109.074ZM305.978 108.466H308.234C308.874 108.466 309.359 108.317 309.69 108.018C310.031 107.72 310.202 107.304 310.202 106.77C310.202 106.248 310.031 105.837 309.69 105.538C309.359 105.24 308.853 105.09 308.17 105.09H305.978V108.466ZM308.282 113.394C308.975 113.394 309.509 113.24 309.882 112.93C310.266 112.61 310.458 112.168 310.458 111.602C310.458 111.037 310.266 110.594 309.882 110.274C309.498 109.954 308.959 109.794 308.266 109.794H305.978V113.394H308.282Z" fill="white" fill-opacity="0.8"/>
<path d="M496.335 105.314V103.602H499.951V114.898H498.031V105.314H496.335ZM503.145 113.41C502.505 112.386 502.185 110.973 502.185 109.17C502.185 107.378 502.505 105.976 503.145 104.962C503.785 103.949 504.852 103.442 506.345 103.442C507.839 103.442 508.905 103.954 509.545 104.978C510.185 105.992 510.505 107.389 510.505 109.17C510.505 110.962 510.185 112.37 509.545 113.394C508.905 114.418 507.839 114.93 506.345 114.93C504.852 114.93 503.785 114.424 503.145 113.41ZM508.201 112.162C508.521 111.469 508.681 110.472 508.681 109.17C508.681 107.89 508.521 106.909 508.201 106.226C507.881 105.533 507.263 105.186 506.345 105.186C505.417 105.186 504.793 105.528 504.473 106.21C504.153 106.893 503.993 107.88 503.993 109.17C503.993 110.472 504.153 111.469 504.473 112.162C504.793 112.856 505.417 113.202 506.345 113.202C507.263 113.202 507.881 112.856 508.201 112.162ZM513.434 113.41C512.794 112.386 512.474 110.973 512.474 109.17C512.474 107.378 512.794 105.976 513.434 104.962C514.074 103.949 515.141 103.442 516.634 103.442C518.127 103.442 519.194 103.954 519.834 104.978C520.474 105.992 520.794 107.389 520.794 109.17C520.794 110.962 520.474 112.37 519.834 113.394C519.194 114.418 518.127 114.93 516.634 114.93C515.141 114.93 514.074 114.424 513.434 113.41ZM518.49 112.162C518.81 111.469 518.97 110.472 518.97 109.17C518.97 107.89 518.81 106.909 518.49 106.226C518.17 105.533 517.551 105.186 516.634 105.186C515.706 105.186 515.082 105.528 514.762 106.21C514.442 106.893 514.282 107.88 514.282 109.17C514.282 110.472 514.442 111.469 514.762 112.162C515.082 112.856 515.706 113.202 516.634 113.202C517.551 113.202 518.17 112.856 518.49 112.162ZM523.723 113.41C523.083 112.386 522.763 110.973 522.763 109.17C522.763 107.378 523.083 105.976 523.723 104.962C524.363 103.949 525.429 103.442 526.923 103.442C528.416 103.442 529.483 103.954 530.123 104.978C530.763 105.992 531.083 107.389 531.083 109.17C531.083 110.962 530.763 112.37 530.123 113.394C529.483 114.418 528.416 114.93 526.923 114.93C525.429 114.93 524.363 114.424 523.723 113.41ZM528.779 112.162C529.099 111.469 529.259 110.472 529.259 109.17C529.259 107.89 529.099 106.909 528.779 106.226C528.459 105.533 527.84 105.186 526.923 105.186C525.995 105.186 525.371 105.528 525.051 106.21C524.731 106.893 524.571 107.88 524.571 109.17C524.571 110.472 524.731 111.469 525.051 112.162C525.371 112.856 525.995 113.202 526.923 113.202C527.84 113.202 528.459 112.856 528.779 112.162ZM542.433 103.49C543.82 103.49 544.972 103.842 545.889 104.546C546.807 105.25 547.425 106.205 547.745 107.41H545.809C545.543 106.728 545.116 106.189 544.529 105.794C543.953 105.389 543.244 105.186 542.401 105.186C541.729 105.186 541.127 105.352 540.593 105.682C540.071 106.013 539.655 106.488 539.345 107.106C539.047 107.714 538.897 108.429 538.897 109.25C538.897 110.061 539.047 110.776 539.345 111.394C539.655 112.002 540.071 112.472 540.593 112.802C541.127 113.133 541.729 113.298 542.401 113.298C543.244 113.298 543.953 113.101 544.529 112.706C545.116 112.301 545.543 111.762 545.809 111.09H547.745C547.425 112.296 546.807 113.25 545.889 113.954C544.972 114.648 543.82 114.994 542.433 114.994C541.367 114.994 540.423 114.754 539.601 114.274C538.78 113.784 538.145 113.106 537.697 112.242C537.249 111.368 537.025 110.37 537.025 109.25C537.025 108.13 537.249 107.138 537.697 106.274C538.145 105.4 538.78 104.717 539.601 104.226C540.423 103.736 541.367 103.49 542.433 103.49ZM553.917 105.97C554.771 105.97 555.539 106.152 556.221 106.514C556.904 106.877 557.437 107.4 557.821 108.082C558.205 108.765 558.397 109.565 558.397 110.482C558.397 111.41 558.205 112.216 557.821 112.898C557.437 113.581 556.904 114.104 556.221 114.466C555.539 114.829 554.771 115.01 553.917 115.01C553.064 115.01 552.296 114.829 551.613 114.466C550.941 114.104 550.408 113.581 550.013 112.898C549.629 112.205 549.437 111.4 549.437 110.482C549.437 109.565 549.629 108.765 550.013 108.082C550.408 107.4 550.941 106.877 551.613 106.514C552.296 106.152 553.064 105.97 553.917 105.97ZM553.917 107.554C553.448 107.554 553.016 107.661 552.621 107.874C552.227 108.088 551.907 108.418 551.661 108.866C551.427 109.304 551.309 109.842 551.309 110.482C551.309 111.133 551.427 111.677 551.661 112.114C551.907 112.552 552.227 112.877 552.621 113.09C553.016 113.304 553.448 113.41 553.917 113.41C554.387 113.41 554.819 113.304 555.213 113.09C555.608 112.877 555.923 112.552 556.157 112.114C556.403 111.677 556.525 111.133 556.525 110.482C556.525 109.842 556.403 109.304 556.157 108.866C555.923 108.418 555.608 108.088 555.213 107.874C554.819 107.661 554.387 107.554 553.917 107.554ZM560.215 103.522C560.215 103.213 560.322 102.957 560.535 102.754C560.748 102.552 561.031 102.45 561.383 102.45C561.735 102.45 562.018 102.552 562.231 102.754C562.455 102.957 562.567 103.213 562.567 103.522C562.567 103.832 562.455 104.082 562.231 104.274C562.018 104.466 561.735 104.562 561.383 104.562C561.031 104.562 560.748 104.466 560.535 104.274C560.322 104.082 560.215 103.832 560.215 103.522ZM562.295 106.082V114.898H560.471V106.082H562.295ZM569.75 105.938C570.774 105.938 571.596 106.269 572.214 106.93C572.833 107.592 573.142 108.536 573.142 109.762V114.898H571.318V109.954C571.318 109.165 571.116 108.557 570.71 108.13C570.305 107.693 569.75 107.474 569.046 107.474C568.321 107.474 567.74 107.709 567.302 108.178C566.865 108.637 566.646 109.314 566.646 110.21V114.898H564.822V106.082H566.646V108.018C566.881 107.357 567.276 106.845 567.83 106.482C568.385 106.12 569.025 105.938 569.75 105.938ZM578.491 105.97C579.526 105.97 580.353 106.237 580.971 106.77C581.601 107.293 581.985 107.997 582.123 108.882H580.395C580.321 108.402 580.113 108.018 579.771 107.73C579.441 107.432 578.998 107.282 578.443 107.282C577.985 107.282 577.627 107.394 577.371 107.618C577.126 107.832 577.003 108.125 577.003 108.498C577.003 108.776 577.094 109 577.275 109.17C577.457 109.341 577.681 109.474 577.947 109.57C578.225 109.666 578.614 109.773 579.115 109.89C579.777 110.04 580.31 110.194 580.715 110.354C581.131 110.514 581.483 110.77 581.771 111.122C582.07 111.464 582.219 111.933 582.219 112.53C582.219 113.266 581.937 113.864 581.371 114.322C580.817 114.781 580.065 115.01 579.115 115.01C578.017 115.01 577.126 114.754 576.443 114.242C575.771 113.73 575.366 113.016 575.227 112.098H577.003C577.057 112.578 577.27 112.968 577.643 113.266C578.017 113.565 578.507 113.714 579.115 113.714C579.553 113.714 579.894 113.602 580.139 113.378C580.395 113.144 580.523 112.85 580.523 112.498C580.523 112.189 580.427 111.944 580.235 111.762C580.043 111.581 579.803 111.442 579.515 111.346C579.227 111.24 578.833 111.133 578.331 111.026C577.691 110.877 577.169 110.728 576.763 110.578C576.369 110.429 576.027 110.189 575.739 109.858C575.462 109.517 575.323 109.058 575.323 108.482C575.323 107.736 575.601 107.133 576.155 106.674C576.721 106.205 577.499 105.97 578.491 105.97Z" fill="white" fill-opacity="0.8"/>
<path d="M764.69 105.042H759.106V108.402C759.362 108.072 759.725 107.81 760.194 107.618C760.663 107.416 761.181 107.314 761.746 107.314C762.535 107.314 763.191 107.485 763.714 107.826C764.237 108.157 764.621 108.6 764.866 109.154C765.122 109.709 765.25 110.322 765.25 110.994C765.25 112.178 764.919 113.138 764.258 113.874C763.597 114.6 762.637 114.962 761.378 114.962C760.194 114.962 759.239 114.648 758.514 114.018C757.789 113.389 757.394 112.552 757.33 111.506H759.122C759.218 112.082 759.453 112.536 759.826 112.866C760.21 113.197 760.695 113.362 761.282 113.362C762.007 113.362 762.551 113.144 762.914 112.706C763.277 112.269 763.458 111.688 763.458 110.962C763.458 110.28 763.271 109.746 762.898 109.362C762.525 108.968 761.991 108.77 761.298 108.77C760.807 108.77 760.375 108.877 760.002 109.09C759.639 109.304 759.373 109.586 759.202 109.938H757.426V103.426H764.69V105.042ZM768.13 113.41C767.49 112.386 767.17 110.973 767.17 109.17C767.17 107.378 767.49 105.976 768.13 104.962C768.77 103.949 769.837 103.442 771.33 103.442C772.824 103.442 773.89 103.954 774.53 104.978C775.17 105.992 775.49 107.389 775.49 109.17C775.49 110.962 775.17 112.37 774.53 113.394C773.89 114.418 772.824 114.93 771.33 114.93C769.837 114.93 768.77 114.424 768.13 113.41ZM773.186 112.162C773.506 111.469 773.666 110.472 773.666 109.17C773.666 107.89 773.506 106.909 773.186 106.226C772.866 105.533 772.248 105.186 771.33 105.186C770.402 105.186 769.778 105.528 769.458 106.21C769.138 106.893 768.978 107.88 768.978 109.17C768.978 110.472 769.138 111.469 769.458 112.162C769.778 112.856 770.402 113.202 771.33 113.202C772.248 113.202 772.866 112.856 773.186 112.162ZM786.841 103.49C788.228 103.49 789.38 103.842 790.297 104.546C791.214 105.25 791.833 106.205 792.153 107.41H790.217C789.95 106.728 789.524 106.189 788.937 105.794C788.361 105.389 787.652 105.186 786.809 105.186C786.137 105.186 785.534 105.352 785.001 105.682C784.478 106.013 784.062 106.488 783.753 107.106C783.454 107.714 783.305 108.429 783.305 109.25C783.305 110.061 783.454 110.776 783.753 111.394C784.062 112.002 784.478 112.472 785.001 112.802C785.534 113.133 786.137 113.298 786.809 113.298C787.652 113.298 788.361 113.101 788.937 112.706C789.524 112.301 789.95 111.762 790.217 111.09H792.153C791.833 112.296 791.214 113.25 790.297 113.954C789.38 114.648 788.228 114.994 786.841 114.994C785.774 114.994 784.83 114.754 784.009 114.274C783.188 113.784 782.553 113.106 782.105 112.242C781.657 111.368 781.433 110.37 781.433 109.25C781.433 108.13 781.657 107.138 782.105 106.274C782.553 105.4 783.188 104.717 784.009 104.226C784.83 103.736 785.774 103.49 786.841 103.49ZM798.325 105.97C799.178 105.97 799.946 106.152 800.629 106.514C801.312 106.877 801.845 107.4 802.229 108.082C802.613 108.765 802.805 109.565 802.805 110.482C802.805 111.41 802.613 112.216 802.229 112.898C801.845 113.581 801.312 114.104 800.629 114.466C799.946 114.829 799.178 115.01 798.325 115.01C797.472 115.01 796.704 114.829 796.021 114.466C795.349 114.104 794.816 113.581 794.421 112.898C794.037 112.205 793.845 111.4 793.845 110.482C793.845 109.565 794.037 108.765 794.421 108.082C794.816 107.4 795.349 106.877 796.021 106.514C796.704 106.152 797.472 105.97 798.325 105.97ZM798.325 107.554C797.856 107.554 797.424 107.661 797.029 107.874C796.634 108.088 796.314 108.418 796.069 108.866C795.834 109.304 795.717 109.842 795.717 110.482C795.717 111.133 795.834 111.677 796.069 112.114C796.314 112.552 796.634 112.877 797.029 113.09C797.424 113.304 797.856 113.41 798.325 113.41C798.794 113.41 799.226 113.304 799.621 113.09C800.016 112.877 800.33 112.552 800.565 112.114C800.81 111.677 800.933 111.133 800.933 110.482C800.933 109.842 800.81 109.304 800.565 108.866C800.33 108.418 800.016 108.088 799.621 107.874C799.226 107.661 798.794 107.554 798.325 107.554ZM804.622 103.522C804.622 103.213 804.729 102.957 804.942 102.754C805.156 102.552 805.438 102.45 805.79 102.45C806.142 102.45 806.425 102.552 806.638 102.754C806.862 102.957 806.974 103.213 806.974 103.522C806.974 103.832 806.862 104.082 806.638 104.274C806.425 104.466 806.142 104.562 805.79 104.562C805.438 104.562 805.156 104.466 804.942 104.274C804.729 104.082 804.622 103.832 804.622 103.522ZM806.702 106.082V114.898H804.878V106.082H806.702ZM814.158 105.938C815.182 105.938 816.003 106.269 816.622 106.93C817.24 107.592 817.55 108.536 817.55 109.762V114.898H815.726V109.954C815.726 109.165 815.523 108.557 815.118 108.13C814.712 107.693 814.158 107.474 813.454 107.474C812.728 107.474 812.147 107.709 811.71 108.178C811.272 108.637 811.054 109.314 811.054 110.21V114.898H809.23V106.082H811.054V108.018C811.288 107.357 811.683 106.845 812.238 106.482C812.792 106.12 813.432 105.938 814.158 105.938ZM822.899 105.97C823.934 105.97 824.76 106.237 825.379 106.77C826.008 107.293 826.392 107.997 826.531 108.882H824.803C824.728 108.402 824.52 108.018 824.179 107.73C823.848 107.432 823.406 107.282 822.851 107.282C822.392 107.282 822.035 107.394 821.779 107.618C821.534 107.832 821.411 108.125 821.411 108.498C821.411 108.776 821.502 109 821.683 109.17C821.864 109.341 822.088 109.474 822.355 109.57C822.632 109.666 823.022 109.773 823.523 109.89C824.184 110.04 824.718 110.194 825.123 110.354C825.539 110.514 825.891 110.77 826.179 111.122C826.478 111.464 826.627 111.933 826.627 112.53C826.627 113.266 826.344 113.864 825.779 114.322C825.224 114.781 824.472 115.01 823.523 115.01C822.424 115.01 821.534 114.754 820.851 114.242C820.179 113.73 819.774 113.016 819.635 112.098H821.411C821.464 112.578 821.678 112.968 822.051 113.266C822.424 113.565 822.915 113.714 823.523 113.714C823.96 113.714 824.302 113.602 824.547 113.378C824.803 113.144 824.931 112.85 824.931 112.498C824.931 112.189 824.835 111.944 824.643 111.762C824.451 111.581 824.211 111.442 823.923 111.346C823.635 111.24 823.24 111.133 822.739 111.026C822.099 110.877 821.576 110.728 821.171 110.578C820.776 110.429 820.435 110.189 820.147 109.858C819.87 109.517 819.731 109.058 819.731 108.482C819.731 107.736 820.008 107.133 820.563 106.674C821.128 106.205 821.907 105.97 822.899 105.97ZM735.344 133.898L732.528 129.386H731.232V133.898H729.408V122.602H733.392C734.683 122.602 735.659 122.917 736.32 123.546C736.992 124.176 737.328 125.008 737.328 126.042C737.328 126.928 737.077 127.653 736.576 128.218C736.085 128.784 735.371 129.146 734.432 129.306L737.392 133.898H735.344ZM731.232 128.09H733.248C734.72 128.09 735.456 127.44 735.456 126.138C735.456 125.52 735.275 125.04 734.912 124.698C734.56 124.346 734.005 124.17 733.248 124.17H731.232V128.09ZM747.483 129.066C747.483 129.365 747.461 129.626 747.419 129.85H740.635C740.667 130.757 740.917 131.429 741.387 131.866C741.856 132.304 742.437 132.522 743.131 132.522C743.739 132.522 744.251 132.368 744.667 132.058C745.093 131.749 745.355 131.338 745.451 130.826H747.403C747.285 131.445 747.04 131.994 746.667 132.474C746.293 132.954 745.808 133.333 745.211 133.61C744.613 133.877 743.947 134.01 743.211 134.01C742.357 134.01 741.6 133.829 740.939 133.466C740.288 133.104 739.776 132.581 739.403 131.898C739.029 131.216 738.843 130.41 738.843 129.482C738.843 128.565 739.029 127.765 739.403 127.082C739.776 126.4 740.288 125.877 740.939 125.514C741.6 125.152 742.357 124.97 743.211 124.97C744.075 124.97 744.827 125.152 745.467 125.514C746.117 125.866 746.613 126.357 746.955 126.986C747.307 127.605 747.483 128.298 747.483 129.066ZM745.643 129.018C745.664 128.442 745.563 127.962 745.339 127.578C745.125 127.184 744.827 126.896 744.443 126.714C744.069 126.522 743.659 126.426 743.211 126.426C742.496 126.426 741.899 126.645 741.419 127.082C740.939 127.52 740.677 128.165 740.635 129.018H745.643ZM753.676 123.258C752.961 123.226 752.46 123.344 752.172 123.61C751.884 123.866 751.74 124.309 751.74 124.938V125.082H753.676V126.65H751.74V133.898H749.9V126.65H748.7V125.082H749.9V124.794C749.9 123.717 750.214 122.912 750.844 122.378C751.473 121.834 752.417 121.594 753.676 121.658V123.258ZM759.574 123.258C758.859 123.226 758.358 123.344 758.07 123.61C757.782 123.866 757.638 124.309 757.638 124.938V125.082H759.574V126.65H757.638V133.898H755.798V126.65H754.598V125.082H755.798V124.794C755.798 123.717 756.113 122.912 756.742 122.378C757.371 121.834 758.315 121.594 759.574 121.658V123.258ZM769.552 129.066C769.552 129.365 769.531 129.626 769.488 129.85H762.704C762.736 130.757 762.987 131.429 763.456 131.866C763.925 132.304 764.507 132.522 765.2 132.522C765.808 132.522 766.32 132.368 766.736 132.058C767.163 131.749 767.424 131.338 767.52 130.826H769.472C769.355 131.445 769.109 131.994 768.736 132.474C768.363 132.954 767.877 133.333 767.28 133.61C766.683 133.877 766.016 134.01 765.28 134.01C764.427 134.01 763.669 133.829 763.008 133.466C762.357 133.104 761.845 132.581 761.472 131.898C761.099 131.216 760.912 130.41 760.912 129.482C760.912 128.565 761.099 127.765 761.472 127.082C761.845 126.4 762.357 125.877 763.008 125.514C763.669 125.152 764.427 124.97 765.28 124.97C766.144 124.97 766.896 125.152 767.536 125.514C768.187 125.866 768.683 126.357 769.024 126.986C769.376 127.605 769.552 128.298 769.552 129.066ZM767.712 129.018C767.733 128.442 767.632 127.962 767.408 127.578C767.195 127.184 766.896 126.896 766.512 126.714C766.139 126.522 765.728 126.426 765.28 126.426C764.565 126.426 763.968 126.645 763.488 127.082C763.008 127.52 762.747 128.165 762.704 129.018H767.712ZM773.457 126.81C773.756 126.234 774.182 125.781 774.737 125.45C775.292 125.109 775.932 124.938 776.657 124.938V126.922H776.113C775.313 126.922 774.668 127.12 774.177 127.514C773.697 127.898 773.457 128.538 773.457 129.434V133.898H771.633V125.082H773.457V126.81ZM781.88 124.97C782.68 124.97 783.362 125.168 783.928 125.562C784.493 125.957 784.893 126.48 785.128 127.13V125.082H786.952V133.898H785.128V131.85C784.893 132.501 784.493 133.024 783.928 133.418C783.362 133.813 782.68 134.01 781.88 134.01C781.112 134.01 780.424 133.829 779.816 133.466C779.218 133.104 778.749 132.581 778.408 131.898C778.066 131.216 777.896 130.41 777.896 129.482C777.896 128.565 778.066 127.765 778.408 127.082C778.749 126.4 779.218 125.877 779.816 125.514C780.424 125.152 781.112 124.97 781.88 124.97ZM782.44 126.57C781.629 126.57 780.978 126.832 780.488 127.354C780.008 127.866 779.768 128.576 779.768 129.482C779.768 130.389 780.008 131.104 780.488 131.626C780.978 132.138 781.629 132.394 782.44 132.394C782.952 132.394 783.41 132.277 783.816 132.042C784.221 131.797 784.541 131.456 784.776 131.018C785.01 130.581 785.128 130.069 785.128 129.482C785.128 128.906 785.01 128.4 784.776 127.962C784.541 127.514 784.221 127.173 783.816 126.938C783.41 126.693 782.952 126.57 782.44 126.57ZM791.285 122.058V133.898H789.461V122.058H791.285ZM803.818 133.898L801.002 129.386H799.706V133.898H797.882V122.602H801.866C803.157 122.602 804.133 122.917 804.794 123.546C805.466 124.176 805.802 125.008 805.802 126.042C805.802 126.928 805.551 127.653 805.05 128.218C804.559 128.784 803.845 129.146 802.906 129.306L805.866 133.898H803.818ZM799.706 128.09H801.722C803.194 128.09 803.93 127.44 803.93 126.138C803.93 125.52 803.749 125.04 803.386 124.698C803.034 124.346 802.479 124.17 801.722 124.17H799.706V128.09ZM815.956 129.066C815.956 129.365 815.935 129.626 815.892 129.85H809.108C809.14 130.757 809.391 131.429 809.86 131.866C810.33 132.304 810.911 132.522 811.604 132.522C812.212 132.522 812.724 132.368 813.14 132.058C813.567 131.749 813.828 131.338 813.924 130.826H815.876C815.759 131.445 815.514 131.994 815.14 132.474C814.767 132.954 814.282 133.333 813.684 133.61C813.087 133.877 812.42 134.01 811.684 134.01C810.831 134.01 810.074 133.829 809.412 133.466C808.762 133.104 808.25 132.581 807.876 131.898C807.503 131.216 807.316 130.41 807.316 129.482C807.316 128.565 807.503 127.765 807.876 127.082C808.25 126.4 808.762 125.877 809.412 125.514C810.074 125.152 810.831 124.97 811.684 124.97C812.548 124.97 813.3 125.152 813.94 125.514C814.591 125.866 815.087 126.357 815.428 126.986C815.78 127.605 815.956 128.298 815.956 129.066ZM814.116 129.018C814.138 128.442 814.036 127.962 813.812 127.578C813.599 127.184 813.3 126.896 812.916 126.714C812.543 126.522 812.132 126.426 811.684 126.426C810.97 126.426 810.372 126.645 809.892 127.082C809.412 127.52 809.151 128.165 809.108 129.018H814.116ZM830.39 125.082L827.942 133.898H825.926L823.75 127.082L821.542 133.898H819.542L817.094 125.082H818.934L820.614 132.218L822.822 125.082H824.742L826.982 132.218L828.662 125.082H830.39ZM835.487 124.97C836.287 124.97 836.97 125.168 837.535 125.562C838.101 125.957 838.501 126.48 838.735 127.13V125.082H840.559V133.898H838.735V131.85C838.501 132.501 838.101 133.024 837.535 133.418C836.97 133.813 836.287 134.01 835.487 134.01C834.719 134.01 834.031 133.829 833.423 133.466C832.826 133.104 832.357 132.581 832.015 131.898C831.674 131.216 831.503 130.41 831.503 129.482C831.503 128.565 831.674 127.765 832.015 127.082C832.357 126.4 832.826 125.877 833.423 125.514C834.031 125.152 834.719 124.97 835.487 124.97ZM836.047 126.57C835.237 126.57 834.586 126.832 834.095 127.354C833.615 127.866 833.375 128.576 833.375 129.482C833.375 130.389 833.615 131.104 834.095 131.626C834.586 132.138 835.237 132.394 836.047 132.394C836.559 132.394 837.018 132.277 837.423 132.042C837.829 131.797 838.149 131.456 838.383 131.018C838.618 130.581 838.735 130.069 838.735 129.482C838.735 128.906 838.618 128.4 838.383 127.962C838.149 127.514 837.829 127.173 837.423 126.938C837.018 126.693 836.559 126.57 836.047 126.57ZM844.892 126.81C845.191 126.234 845.617 125.781 846.172 125.45C846.727 125.109 847.367 124.938 848.092 124.938V126.922H847.548C846.748 126.922 846.103 127.12 845.612 127.514C845.132 127.898 844.892 128.538 844.892 129.434V133.898H843.068V125.082H844.892V126.81ZM853.315 124.97C854.115 124.97 854.797 125.168 855.363 125.562C855.928 125.957 856.323 126.48 856.547 127.13V122.058H858.387V133.898H856.547V131.85C856.323 132.501 855.928 133.024 855.363 133.418C854.797 133.813 854.115 134.01 853.315 134.01C852.547 134.01 851.859 133.829 851.251 133.466C850.653 133.104 850.184 132.581 849.843 131.898C849.501 131.216 849.331 130.41 849.331 129.482C849.331 128.565 849.501 127.765 849.843 127.082C850.184 126.4 850.653 125.877 851.251 125.514C851.859 125.152 852.547 124.97 853.315 124.97ZM853.875 126.57C853.064 126.57 852.413 126.832 851.923 127.354C851.443 127.866 851.203 128.576 851.203 129.482C851.203 130.389 851.443 131.104 851.923 131.626C852.413 132.138 853.064 132.394 853.875 132.394C854.387 132.394 854.845 132.277 855.251 132.042C855.656 131.797 855.976 131.456 856.211 131.018C856.445 130.581 856.563 130.069 856.563 129.482C856.563 128.906 856.445 128.4 856.211 127.962C855.976 127.514 855.656 127.173 855.251 126.938C854.845 126.693 854.387 126.57 853.875 126.57Z" fill="white" fill-opacity="0.8"/>
<path d="M369.856 188.673V195.377C369.856 196.379 370.075 197.126 370.512 197.617C370.96 198.107 371.584 198.353 372.384 198.353C373.173 198.353 373.787 198.107 374.224 197.617C374.672 197.126 374.896 196.379 374.896 195.377V188.673H376.72V195.377C376.72 196.923 376.32 198.097 375.52 198.897C374.72 199.686 373.664 200.081 372.352 200.081C371.051 200.081 370.005 199.686 369.216 198.897C368.427 198.097 368.032 196.923 368.032 195.377V188.673H369.856ZM382.062 191.041C383.097 191.041 383.924 191.307 384.542 191.841C385.172 192.363 385.556 193.067 385.694 193.953H383.966C383.892 193.473 383.684 193.089 383.342 192.801C383.012 192.502 382.569 192.353 382.014 192.353C381.556 192.353 381.198 192.465 380.942 192.689C380.697 192.902 380.574 193.195 380.574 193.569C380.574 193.846 380.665 194.07 380.846 194.241C381.028 194.411 381.252 194.545 381.518 194.641C381.796 194.737 382.185 194.843 382.686 194.961C383.348 195.11 383.881 195.265 384.286 195.425C384.702 195.585 385.054 195.841 385.342 196.193C385.641 196.534 385.79 197.003 385.79 197.601C385.79 198.337 385.508 198.934 384.942 199.393C384.388 199.851 383.636 200.081 382.686 200.081C381.588 200.081 380.697 199.825 380.014 199.313C379.342 198.801 378.937 198.086 378.798 197.169H380.574C380.628 197.649 380.841 198.038 381.214 198.337C381.588 198.635 382.078 198.785 382.686 198.785C383.124 198.785 383.465 198.673 383.71 198.449C383.966 198.214 384.094 197.921 384.094 197.569C384.094 197.259 383.998 197.014 383.806 196.833C383.614 196.651 383.374 196.513 383.086 196.417C382.798 196.31 382.404 196.203 381.902 196.097C381.262 195.947 380.74 195.798 380.334 195.649C379.94 195.499 379.598 195.259 379.31 194.929C379.033 194.587 378.894 194.129 378.894 193.553C378.894 192.806 379.172 192.203 379.726 191.745C380.292 191.275 381.07 191.041 382.062 191.041ZM396.132 195.137C396.132 195.435 396.11 195.697 396.068 195.921H389.284C389.316 196.827 389.566 197.499 390.036 197.937C390.505 198.374 391.086 198.593 391.78 198.593C392.388 198.593 392.9 198.438 393.316 198.129C393.742 197.819 394.004 197.409 394.1 196.897H396.052C395.934 197.515 395.689 198.065 395.316 198.545C394.942 199.025 394.457 199.403 393.86 199.681C393.262 199.947 392.596 200.081 391.86 200.081C391.006 200.081 390.249 199.899 389.588 199.537C388.937 199.174 388.425 198.651 388.052 197.969C387.678 197.286 387.492 196.481 387.492 195.553C387.492 194.635 387.678 193.835 388.052 193.153C388.425 192.47 388.937 191.947 389.588 191.585C390.249 191.222 391.006 191.041 391.86 191.041C392.724 191.041 393.476 191.222 394.116 191.585C394.766 191.937 395.262 192.427 395.604 193.057C395.956 193.675 396.132 194.369 396.132 195.137ZM394.292 195.089C394.313 194.513 394.212 194.033 393.988 193.649C393.774 193.254 393.476 192.966 393.092 192.785C392.718 192.593 392.308 192.497 391.86 192.497C391.145 192.497 390.548 192.715 390.068 193.153C389.588 193.59 389.326 194.235 389.284 195.089H394.292ZM400.037 192.881C400.335 192.305 400.762 191.851 401.317 191.521C401.871 191.179 402.511 191.009 403.237 191.009V192.993H402.693C401.893 192.993 401.247 193.19 400.757 193.585C400.277 193.969 400.037 194.609 400.037 195.505V199.969H398.213V191.153H400.037V192.881ZM415.729 197.521H410.961L410.097 199.969H408.145L412.305 188.849H414.401L418.545 199.969H416.593L415.729 197.521ZM415.217 196.113L413.345 190.833L411.473 196.113H415.217ZM427.826 191.041C428.626 191.041 429.308 191.238 429.874 191.633C430.439 192.027 430.839 192.55 431.074 193.201V191.153H432.898V200.065C432.898 200.886 432.727 201.611 432.386 202.241C432.055 202.881 431.575 203.382 430.946 203.745C430.316 204.107 429.57 204.289 428.706 204.289C427.468 204.289 426.466 203.995 425.698 203.409C424.94 202.822 424.466 202.027 424.274 201.025H426.082C426.231 201.547 426.519 201.953 426.946 202.241C427.372 202.539 427.916 202.689 428.578 202.689C429.303 202.689 429.9 202.465 430.37 202.017C430.839 201.569 431.074 200.918 431.074 200.065V197.921C430.839 198.571 430.439 199.094 429.874 199.489C429.308 199.883 428.626 200.081 427.826 200.081C427.058 200.081 426.37 199.899 425.762 199.537C425.164 199.174 424.695 198.651 424.354 197.969C424.012 197.286 423.842 196.481 423.842 195.553C423.842 194.635 424.012 193.835 424.354 193.153C424.695 192.47 425.164 191.947 425.762 191.585C426.37 191.222 427.058 191.041 427.826 191.041ZM428.386 192.641C427.575 192.641 426.924 192.902 426.434 193.425C425.954 193.937 425.714 194.646 425.714 195.553C425.714 196.459 425.954 197.174 426.434 197.697C426.924 198.209 427.575 198.465 428.386 198.465C428.898 198.465 429.356 198.347 429.762 198.113C430.167 197.867 430.487 197.526 430.722 197.089C430.956 196.651 431.074 196.139 431.074 195.553C431.074 194.977 430.956 194.47 430.722 194.033C430.487 193.585 430.167 193.243 429.762 193.009C429.356 192.763 428.898 192.641 428.386 192.641ZM443.598 195.137C443.598 195.435 443.577 195.697 443.534 195.921H436.75C436.782 196.827 437.033 197.499 437.502 197.937C437.972 198.374 438.553 198.593 439.246 198.593C439.854 198.593 440.366 198.438 440.782 198.129C441.209 197.819 441.47 197.409 441.566 196.897H443.518C443.401 197.515 443.156 198.065 442.782 198.545C442.409 199.025 441.924 199.403 441.326 199.681C440.729 199.947 440.062 200.081 439.326 200.081C438.473 200.081 437.716 199.899 437.054 199.537C436.404 199.174 435.892 198.651 435.518 197.969C435.145 197.286 434.958 196.481 434.958 195.553C434.958 194.635 435.145 193.835 435.518 193.153C435.892 192.47 436.404 191.947 437.054 191.585C437.716 191.222 438.473 191.041 439.326 191.041C440.19 191.041 440.942 191.222 441.582 191.585C442.233 191.937 442.729 192.427 443.07 193.057C443.422 193.675 443.598 194.369 443.598 195.137ZM441.758 195.089C441.78 194.513 441.678 194.033 441.454 193.649C441.241 193.254 440.942 192.966 440.558 192.785C440.185 192.593 439.774 192.497 439.326 192.497C438.612 192.497 438.014 192.715 437.534 193.153C437.054 193.59 436.793 194.235 436.75 195.089H441.758ZM450.112 198.385V199.969H448.992C448.053 199.969 447.338 199.745 446.848 199.297C446.368 198.838 446.128 198.081 446.128 197.025V192.705H444.864V191.153H446.128V188.961H447.968V191.153H450.096V192.705H447.968V197.057C447.968 197.558 448.058 197.905 448.24 198.097C448.432 198.289 448.762 198.385 449.232 198.385H450.112ZM455.036 191.041C456.071 191.041 456.898 191.307 457.516 191.841C458.146 192.363 458.53 193.067 458.668 193.953H456.94C456.866 193.473 456.658 193.089 456.316 192.801C455.986 192.502 455.543 192.353 454.988 192.353C454.53 192.353 454.172 192.465 453.916 192.689C453.671 192.902 453.548 193.195 453.548 193.569C453.548 193.846 453.639 194.07 453.82 194.241C454.002 194.411 454.226 194.545 454.492 194.641C454.77 194.737 455.159 194.843 455.66 194.961C456.322 195.11 456.855 195.265 457.26 195.425C457.676 195.585 458.028 195.841 458.316 196.193C458.615 196.534 458.764 197.003 458.764 197.601C458.764 198.337 458.482 198.934 457.916 199.393C457.362 199.851 456.61 200.081 455.66 200.081C454.562 200.081 453.671 199.825 452.988 199.313C452.316 198.801 451.911 198.086 451.772 197.169H453.548C453.602 197.649 453.815 198.038 454.188 198.337C454.562 198.635 455.052 198.785 455.66 198.785C456.098 198.785 456.439 198.673 456.684 198.449C456.94 198.214 457.068 197.921 457.068 197.569C457.068 197.259 456.972 197.014 456.78 196.833C456.588 196.651 456.348 196.513 456.06 196.417C455.772 196.31 455.378 196.203 454.876 196.097C454.236 195.947 453.714 195.798 453.308 195.649C452.914 195.499 452.572 195.259 452.284 194.929C452.007 194.587 451.868 194.129 451.868 193.553C451.868 192.806 452.146 192.203 452.7 191.745C453.266 191.275 454.044 191.041 455.036 191.041Z" fill="white" fill-opacity="0.8"/>
<path d="M291.122 216.503H284.966V219.752C285.232 219.422 285.612 219.156 286.106 218.954C286.6 218.738 287.126 218.631 287.683 218.631C288.696 218.631 289.526 218.852 290.172 219.296C290.818 219.739 291.287 220.309 291.578 221.006C291.869 221.69 292.015 222.424 292.015 223.21C292.015 224.666 291.597 225.838 290.761 226.725C289.938 227.611 288.76 228.055 287.227 228.055C285.783 228.055 284.63 227.694 283.769 226.972C282.908 226.25 282.42 225.306 282.306 224.141H284.89C285.004 224.647 285.257 225.053 285.65 225.357C286.055 225.661 286.568 225.813 287.189 225.813C287.936 225.813 288.5 225.578 288.88 225.11C289.26 224.641 289.45 224.02 289.45 223.248C289.45 222.462 289.254 221.867 288.861 221.462C288.481 221.044 287.917 220.835 287.17 220.835C286.638 220.835 286.195 220.968 285.84 221.234C285.485 221.5 285.232 221.854 285.08 222.298H282.534V214.166H291.122V216.503ZM294.04 220.949C294.04 218.757 294.432 217.041 295.218 215.8C296.016 214.558 297.333 213.938 299.17 213.938C301.006 213.938 302.317 214.558 303.103 215.8C303.901 217.041 304.3 218.757 304.3 220.949C304.3 223.153 303.901 224.882 303.103 226.136C302.317 227.39 301.006 228.017 299.17 228.017C297.333 228.017 296.016 227.39 295.218 226.136C294.432 224.882 294.04 223.153 294.04 220.949ZM301.678 220.949C301.678 220.011 301.614 219.226 301.488 218.593C301.374 217.947 301.133 217.421 300.766 217.016C300.411 216.61 299.879 216.408 299.17 216.408C298.46 216.408 297.922 216.61 297.555 217.016C297.2 217.421 296.959 217.947 296.833 218.593C296.719 219.226 296.662 220.011 296.662 220.949C296.662 221.911 296.719 222.722 296.833 223.381C296.947 224.027 297.187 224.552 297.555 224.958C297.922 225.35 298.46 225.547 299.17 225.547C299.879 225.547 300.417 225.35 300.785 224.958C301.152 224.552 301.393 224.027 301.507 223.381C301.621 222.722 301.678 221.911 301.678 220.949ZM315.752 231.798C314.523 230.607 313.567 229.087 312.883 227.238C312.212 225.388 311.876 223.406 311.876 221.291C311.876 219.125 312.231 217.092 312.94 215.192C313.649 213.279 314.682 211.715 316.037 210.499H318.716V210.746C317.323 212.076 316.259 213.672 315.524 215.534C314.802 217.396 314.441 219.315 314.441 221.291C314.441 223.216 314.783 225.078 315.467 226.877C316.164 228.663 317.152 230.214 318.431 231.532V231.798H315.752ZM329.382 216.503H323.226V219.752C323.492 219.422 323.872 219.156 324.366 218.954C324.86 218.738 325.385 218.631 325.943 218.631C326.956 218.631 327.786 218.852 328.432 219.296C329.078 219.739 329.546 220.309 329.838 221.006C330.129 221.69 330.275 222.424 330.275 223.21C330.275 224.666 329.857 225.838 329.021 226.725C328.197 227.611 327.019 228.055 325.487 228.055C324.043 228.055 322.89 227.694 322.029 226.972C321.167 226.25 320.68 225.306 320.566 224.141H323.15C323.264 224.647 323.517 225.053 323.91 225.357C324.315 225.661 324.828 225.813 325.449 225.813C326.196 225.813 326.76 225.578 327.14 225.11C327.52 224.641 327.71 224.02 327.71 223.248C327.71 222.462 327.513 221.867 327.121 221.462C326.741 221.044 326.177 220.835 325.43 220.835C324.898 220.835 324.454 220.968 324.1 221.234C323.745 221.5 323.492 221.854 323.34 222.298H320.794V214.166H329.382V216.503ZM331.995 217.605C331.995 216.642 332.274 215.888 332.831 215.344C333.401 214.799 334.13 214.527 335.016 214.527C335.903 214.527 336.625 214.799 337.182 215.344C337.752 215.888 338.037 216.642 338.037 217.605C338.037 218.58 337.752 219.34 337.182 219.885C336.625 220.429 335.903 220.702 335.016 220.702C334.13 220.702 333.401 220.429 332.831 219.885C332.274 219.34 331.995 218.58 331.995 217.605ZM344.193 214.755L336.726 228.055H334.142L341.59 214.755H344.193ZM334.997 216.123C334.301 216.123 333.952 216.617 333.952 217.605C333.952 218.605 334.301 219.106 334.997 219.106C335.339 219.106 335.605 218.985 335.795 218.745C335.985 218.491 336.08 218.111 336.08 217.605C336.08 216.617 335.719 216.123 334.997 216.123ZM340.336 225.186C340.336 224.21 340.615 223.457 341.172 222.925C341.742 222.38 342.471 222.108 343.357 222.108C344.244 222.108 344.96 222.38 345.504 222.925C346.062 223.457 346.34 224.21 346.34 225.186C346.34 226.161 346.062 226.921 345.504 227.466C344.96 228.01 344.244 228.283 343.357 228.283C342.458 228.283 341.73 228.01 341.172 227.466C340.615 226.921 340.336 226.161 340.336 225.186ZM343.338 223.704C342.616 223.704 342.255 224.198 342.255 225.186C342.255 226.186 342.616 226.687 343.338 226.687C344.048 226.687 344.402 226.186 344.402 225.186C344.402 224.198 344.048 223.704 343.338 223.704ZM347.672 231.798V231.532C348.952 230.214 349.933 228.663 350.617 226.877C351.314 225.078 351.662 223.216 351.662 221.291C351.662 219.315 351.295 217.396 350.56 215.534C349.838 213.672 348.781 212.076 347.387 210.746V210.499H350.066C351.422 211.715 352.454 213.279 353.163 215.192C353.873 217.092 354.227 219.125 354.227 221.291C354.227 223.406 353.885 225.388 353.201 227.238C352.53 229.087 351.58 230.607 350.351 231.798H347.672ZM366.741 214.793C368.135 214.793 369.357 215.065 370.408 215.61C371.472 216.154 372.289 216.933 372.859 217.947C373.442 218.947 373.733 220.113 373.733 221.443C373.733 222.773 373.442 223.938 372.859 224.939C372.289 225.927 371.472 226.693 370.408 227.238C369.357 227.782 368.135 228.055 366.741 228.055H362.105V214.793H366.741ZM366.646 225.794C368.04 225.794 369.116 225.414 369.876 224.654C370.636 223.894 371.016 222.823 371.016 221.443C371.016 220.062 370.636 218.985 369.876 218.213C369.116 217.427 368.04 217.035 366.646 217.035H364.765V225.794H366.646ZM377.073 216.275C376.605 216.275 376.212 216.129 375.895 215.838C375.591 215.534 375.439 215.16 375.439 214.717C375.439 214.273 375.591 213.906 375.895 213.615C376.212 213.311 376.605 213.159 377.073 213.159C377.542 213.159 377.928 213.311 378.232 213.615C378.549 213.906 378.707 214.273 378.707 214.717C378.707 215.16 378.549 215.534 378.232 215.838C377.928 216.129 377.542 216.275 377.073 216.275ZM378.384 217.529V228.055H375.724V217.529H378.384ZM383.672 219.163C384.014 218.605 384.458 218.168 385.002 217.852C385.56 217.535 386.193 217.377 386.902 217.377V220.17H386.199C385.363 220.17 384.73 220.366 384.299 220.759C383.881 221.151 383.672 221.835 383.672 222.811V228.055H381.012V217.529H383.672V219.163ZM398.479 222.564C398.479 222.944 398.454 223.286 398.403 223.59H390.708C390.771 224.35 391.037 224.945 391.506 225.376C391.975 225.806 392.551 226.022 393.235 226.022C394.223 226.022 394.926 225.597 395.344 224.749H398.213C397.909 225.762 397.326 226.598 396.465 227.257C395.604 227.903 394.546 228.226 393.292 228.226C392.279 228.226 391.367 228.004 390.556 227.561C389.758 227.105 389.131 226.465 388.675 225.642C388.232 224.818 388.01 223.868 388.01 222.792C388.01 221.702 388.232 220.746 388.675 219.923C389.118 219.099 389.739 218.466 390.537 218.023C391.335 217.579 392.253 217.358 393.292 217.358C394.293 217.358 395.186 217.573 395.971 218.004C396.769 218.434 397.383 219.049 397.814 219.847C398.257 220.632 398.479 221.538 398.479 222.564ZM395.724 221.804C395.711 221.12 395.464 220.575 394.983 220.17C394.502 219.752 393.913 219.543 393.216 219.543C392.557 219.543 392 219.745 391.544 220.151C391.101 220.543 390.828 221.094 390.727 221.804H395.724ZM399.737 222.792C399.737 221.702 399.958 220.752 400.402 219.942C400.845 219.118 401.459 218.485 402.245 218.042C403.03 217.586 403.929 217.358 404.943 217.358C406.247 217.358 407.324 217.687 408.173 218.346C409.034 218.992 409.61 219.904 409.902 221.082H407.033C406.881 220.626 406.621 220.271 406.254 220.018C405.899 219.752 405.456 219.619 404.924 219.619C404.164 219.619 403.562 219.897 403.119 220.455C402.675 220.999 402.454 221.778 402.454 222.792C402.454 223.792 402.675 224.571 403.119 225.129C403.562 225.673 404.164 225.946 404.924 225.946C406 225.946 406.703 225.464 407.033 224.502H409.902C409.61 225.642 409.034 226.547 408.173 227.219C407.311 227.89 406.235 228.226 404.943 228.226C403.929 228.226 403.03 228.004 402.245 227.561C401.459 227.105 400.845 226.471 400.402 225.661C399.958 224.837 399.737 223.881 399.737 222.792ZM414.947 219.714V224.806C414.947 225.16 415.03 225.42 415.194 225.585C415.372 225.737 415.663 225.813 416.068 225.813H417.303V228.055H415.631C413.389 228.055 412.268 226.965 412.268 224.787V219.714H411.014V217.529H412.268V214.926H414.947V217.529H417.303V219.714H414.947ZM430.584 228.055L427.658 222.887H426.404V228.055H423.744V214.793H428.722C429.748 214.793 430.622 214.976 431.344 215.344C432.066 215.698 432.604 216.186 432.959 216.807C433.326 217.415 433.51 218.099 433.51 218.859C433.51 219.733 433.257 220.524 432.75 221.234C432.243 221.93 431.49 222.412 430.489 222.678L433.662 228.055H430.584ZM426.404 220.892H428.627C429.349 220.892 429.887 220.721 430.242 220.379C430.597 220.024 430.774 219.536 430.774 218.916C430.774 218.308 430.597 217.839 430.242 217.51C429.887 217.168 429.349 216.997 428.627 216.997H426.404V220.892ZM445.701 222.564C445.701 222.944 445.675 223.286 445.625 223.59H437.93C437.993 224.35 438.259 224.945 438.728 225.376C439.196 225.806 439.773 226.022 440.457 226.022C441.445 226.022 442.148 225.597 442.566 224.749H445.435C445.131 225.762 444.548 226.598 443.687 227.257C442.825 227.903 441.768 228.226 440.514 228.226C439.5 228.226 438.588 228.004 437.778 227.561C436.98 227.105 436.353 226.465 435.897 225.642C435.453 224.818 435.232 223.868 435.232 222.792C435.232 221.702 435.453 220.746 435.897 219.923C436.34 219.099 436.961 218.466 437.759 218.023C438.557 217.579 439.475 217.358 440.514 217.358C441.514 217.358 442.407 217.573 443.193 218.004C443.991 218.434 444.605 219.049 445.036 219.847C445.479 220.632 445.701 221.538 445.701 222.564ZM442.946 221.804C442.933 221.12 442.686 220.575 442.205 220.17C441.723 219.752 441.134 219.543 440.438 219.543C439.779 219.543 439.222 219.745 438.766 220.151C438.322 220.543 438.05 221.094 437.949 221.804H442.946ZM452.468 219.714H450.625V228.055H447.927V219.714H446.73V217.529H447.927V216.997C447.927 215.705 448.295 214.755 449.029 214.147C449.764 213.539 450.872 213.254 452.354 213.292V215.534C451.708 215.521 451.259 215.629 451.005 215.857C450.752 216.085 450.625 216.496 450.625 217.092V217.529H452.468V219.714ZM463.977 222.564C463.977 222.944 463.952 223.286 463.901 223.59H456.206C456.269 224.35 456.535 224.945 457.004 225.376C457.473 225.806 458.049 226.022 458.733 226.022C459.721 226.022 460.424 225.597 460.842 224.749H463.711C463.407 225.762 462.824 226.598 461.963 227.257C461.102 227.903 460.044 228.226 458.79 228.226C457.777 228.226 456.865 228.004 456.054 227.561C455.256 227.105 454.629 226.465 454.173 225.642C453.73 224.818 453.508 223.868 453.508 222.792C453.508 221.702 453.73 220.746 454.173 219.923C454.616 219.099 455.237 218.466 456.035 218.023C456.833 217.579 457.751 217.358 458.79 217.358C459.791 217.358 460.684 217.573 461.469 218.004C462.267 218.434 462.881 219.049 463.312 219.847C463.755 220.632 463.977 221.538 463.977 222.564ZM461.222 221.804C461.209 221.12 460.962 220.575 460.481 220.17C460 219.752 459.411 219.543 458.714 219.543C458.055 219.543 457.498 219.745 457.042 220.151C456.599 220.543 456.326 221.094 456.225 221.804H461.222ZM468.579 219.163C468.921 218.605 469.364 218.168 469.909 217.852C470.466 217.535 471.099 217.377 471.809 217.377V220.17H471.106C470.27 220.17 469.636 220.366 469.206 220.759C468.788 221.151 468.579 221.835 468.579 222.811V228.055H465.919V217.529H468.579V219.163ZM480.788 219.163C481.13 218.605 481.573 218.168 482.118 217.852C482.675 217.535 483.308 217.377 484.018 217.377V220.17H483.315C482.479 220.17 481.845 220.366 481.415 220.759C480.997 221.151 480.788 221.835 480.788 222.811V228.055H478.128V217.529H480.788V219.163ZM495.594 222.564C495.594 222.944 495.569 223.286 495.518 223.59H487.823C487.887 224.35 488.153 224.945 488.621 225.376C489.09 225.806 489.666 226.022 490.35 226.022C491.338 226.022 492.041 225.597 492.459 224.749H495.328C495.024 225.762 494.442 226.598 493.58 227.257C492.719 227.903 491.661 228.226 490.407 228.226C489.394 228.226 488.482 228.004 487.671 227.561C486.873 227.105 486.246 226.465 485.79 225.642C485.347 224.818 485.125 223.868 485.125 222.792C485.125 221.702 485.347 220.746 485.79 219.923C486.234 219.099 486.854 218.466 487.652 218.023C488.45 217.579 489.369 217.358 490.407 217.358C491.408 217.358 492.301 217.573 493.086 218.004C493.884 218.434 494.499 219.049 494.929 219.847C495.373 220.632 495.594 221.538 495.594 222.564ZM492.839 221.804C492.827 221.12 492.58 220.575 492.098 220.17C491.617 219.752 491.028 219.543 490.331 219.543C489.673 219.543 489.115 219.745 488.659 220.151C488.216 220.543 487.944 221.094 487.842 221.804H492.839ZM512.128 217.529L509.05 228.055H506.181L504.262 220.702L502.343 228.055H499.455L496.358 217.529H499.056L500.918 225.547L502.932 217.529H505.744L507.72 225.528L509.582 217.529H512.128ZM512.883 222.754C512.883 221.69 513.092 220.746 513.51 219.923C513.941 219.099 514.517 218.466 515.239 218.023C515.974 217.579 516.791 217.358 517.69 217.358C518.475 217.358 519.159 217.516 519.742 217.833C520.337 218.149 520.812 218.548 521.167 219.03V217.529H523.846V228.055H521.167V226.516C520.825 227.01 520.35 227.421 519.742 227.751C519.147 228.067 518.456 228.226 517.671 228.226C516.784 228.226 515.974 227.998 515.239 227.542C514.517 227.086 513.941 226.446 513.51 225.623C513.092 224.787 512.883 223.83 512.883 222.754ZM521.167 222.792C521.167 222.146 521.04 221.595 520.787 221.139C520.534 220.67 520.192 220.315 519.761 220.075C519.33 219.821 518.868 219.695 518.374 219.695C517.88 219.695 517.424 219.815 517.006 220.056C516.588 220.296 516.246 220.651 515.98 221.12C515.727 221.576 515.6 222.12 515.6 222.754C515.6 223.387 515.727 223.944 515.98 224.426C516.246 224.894 516.588 225.255 517.006 225.509C517.437 225.762 517.893 225.889 518.374 225.889C518.868 225.889 519.33 225.768 519.761 225.528C520.192 225.274 520.534 224.92 520.787 224.464C521.04 223.995 521.167 223.438 521.167 222.792ZM529.104 219.163C529.446 218.605 529.889 218.168 530.434 217.852C530.991 217.535 531.625 217.377 532.334 217.377V220.17H531.631C530.795 220.17 530.162 220.366 529.731 220.759C529.313 221.151 529.104 221.835 529.104 222.811V228.055H526.444V217.529H529.104V219.163ZM533.442 222.754C533.442 221.69 533.651 220.746 534.069 219.923C534.499 219.099 535.082 218.466 535.817 218.023C536.551 217.579 537.368 217.358 538.268 217.358C538.952 217.358 539.604 217.51 540.225 217.814C540.845 218.105 541.339 218.498 541.707 218.992V213.995H544.405V228.055H541.707V226.497C541.377 227.016 540.915 227.434 540.32 227.751C539.724 228.067 539.034 228.226 538.249 228.226C537.362 228.226 536.551 227.998 535.817 227.542C535.082 227.086 534.499 226.446 534.069 225.623C533.651 224.787 533.442 223.83 533.442 222.754ZM541.726 222.792C541.726 222.146 541.599 221.595 541.346 221.139C541.092 220.67 540.75 220.315 540.32 220.075C539.889 219.821 539.427 219.695 538.933 219.695C538.439 219.695 537.983 219.815 537.565 220.056C537.147 220.296 536.805 220.651 536.539 221.12C536.285 221.576 536.159 222.12 536.159 222.754C536.159 223.387 536.285 223.944 536.539 224.426C536.805 224.894 537.147 225.255 537.565 225.509C537.995 225.762 538.451 225.889 538.933 225.889C539.427 225.889 539.889 225.768 540.32 225.528C540.75 225.274 541.092 224.92 541.346 224.464C541.599 223.995 541.726 223.438 541.726 222.792Z" fill="white" fill-opacity="0.8"/>
<defs>
<linearGradient id="paint0_linear_47_59" x1="15.637" y1="28.5431" x2="52.942" y2="28.5431" gradientUnits="userSpaceOnUse">
<stop stop-color="#5C1CB2"/>
<stop offset="0.1" stop-color="#7118B4"/>
<stop offset="0.31" stop-color="#A90FB9"/>
<stop offset="0.59" stop-color="#FF00C1"/>
</linearGradient>
<linearGradient id="paint1_linear_47_59" x1="-0.0508738" y1="69.6528" x2="68.6184" y2="69.6528" gradientUnits="userSpaceOnUse">
<stop stop-color="#5C1CB2"/>
<stop offset="0.1" stop-color="#7118B4"/>
<stop offset="0.31" stop-color="#A90FB9"/>
<stop offset="0.59" stop-color="#FF00C1"/>
</linearGradient>
<linearGradient id="paint2_linear_47_59" x1="268.218" y1="28.5431" x2="305.511" y2="28.5431" gradientUnits="userSpaceOnUse">
<stop stop-color="#5C1CB2"/>
<stop offset="0.1" stop-color="#7118B4"/>
<stop offset="0.31" stop-color="#A90FB9"/>
<stop offset="0.59" stop-color="#FF00C1"/>
</linearGradient>
<linearGradient id="paint3_linear_47_59" x1="252.518" y1="69.6528" x2="321.187" y2="69.6528" gradientUnits="userSpaceOnUse">
<stop stop-color="#5C1CB2"/>
<stop offset="0.1" stop-color="#7118B4"/>
<stop offset="0.31" stop-color="#A90FB9"/>
<stop offset="0.59" stop-color="#FF00C1"/>
</linearGradient>
<linearGradient id="paint4_linear_47_59" x1="499.219" y1="50.244" x2="580.469" y2="50.244" gradientUnits="userSpaceOnUse">
<stop stop-color="#5C1CB2"/>
<stop offset="0.1" stop-color="#7118B4"/>
<stop offset="0.31" stop-color="#A90FB9"/>
<stop offset="0.59" stop-color="#FF00C1"/>
</linearGradient>
<linearGradient id="paint5_linear_47_59" x1="777.606" y1="38.5672" x2="790.9" y2="38.5672" gradientUnits="userSpaceOnUse">
<stop stop-color="#5C1CB2"/>
<stop offset="0.1" stop-color="#7118B4"/>
<stop offset="0.31" stop-color="#A90FB9"/>
<stop offset="0.59" stop-color="#FF00C1"/>
</linearGradient>
<linearGradient id="paint6_linear_47_59" x1="769.094" y1="41.0219" x2="811.301" y2="41.0219" gradientUnits="userSpaceOnUse">
<stop stop-color="#5C1CB2"/>
<stop offset="0.1" stop-color="#7118B4"/>
<stop offset="0.31" stop-color="#A90FB9"/>
<stop offset="0.59" stop-color="#FF00C1"/>
</linearGradient>
</defs>
</svg>
