<svg width="21" height="17" viewBox="0 0 21 17" fill="none" xmlns="http://www.w3.org/2000/svg">
<path fill-rule="evenodd" clip-rule="evenodd" d="M1.82472 1.42009L8.03709 7.63515C9.39202 8.98749 11.6069 8.98865 12.9629 7.63515L19.1753 1.42009C19.2379 1.35752 19.2287 1.25449 19.1562 1.20388C18.5225 0.761978 17.7516 0.5 16.9212 0.5H4.0789C3.24841 0.5 2.47748 0.762023 1.84385 1.20388C1.77127 1.25449 1.76215 1.35752 1.82472 1.42009ZM0.164551 4.41431C0.164551 3.76127 0.326462 3.14426 0.61166 2.60193C0.656259 2.51709 0.769305 2.49993 0.837079 2.56771L6.97081 8.70143C8.91316 10.6466 12.0857 10.6477 14.0292 8.70143L20.163 2.56771C20.2308 2.49993 20.3438 2.51709 20.3884 2.60193C20.6735 3.14426 20.8355 3.76132 20.8355 4.41431V12.5856C20.8355 14.7457 19.0785 16.5 16.9212 16.5H4.0789C1.92164 16.5 0.164551 14.7457 0.164551 12.5856V4.41431Z" fill="white"/>
</svg>
