<svg width="15" height="16" viewBox="0 0 15 16" fill="none" xmlns="http://www.w3.org/2000/svg">
<path d="M2.16052 0C2.56253 0.0772287 2.89649 0.303488 3.24423 0.498021C5.8316 1.94491 8.41897 3.39264 11.0059 4.84036C11.0464 4.8629 11.0861 4.88795 11.1099 4.90214C10.3347 5.67694 9.56028 6.45131 8.79801 7.21358C6.41854 4.8341 4.02194 2.43751 1.62869 0.04425C1.6529 0.0333962 1.68796 0.0166981 1.72303 0C1.86914 0 2.01483 0 2.16052 0Z" fill="white" fill-opacity="0.6"/>
<path d="M0.693595 0.653731C3.14362 3.10376 5.59031 5.55128 8.02155 7.98294C5.58238 10.4225 3.13277 12.8721 0.674392 15.3305C0.499062 15.1143 0.410979 14.8333 0.382175 14.5294C0.377166 14.4777 0.379253 14.4255 0.379253 14.3733C0.379253 10.1253 0.380088 5.87731 0.378418 1.62932C0.378418 1.31998 0.446463 1.03194 0.605095 0.765608C0.62388 0.734299 0.643918 0.703825 0.665625 0.675021C0.674392 0.663332 0.68942 0.656653 0.693595 0.653731Z" fill="white" fill-opacity="0.6"/>
<path d="M1.62827 15.9617C4.03029 13.5597 6.42521 11.1648 8.81054 8.77944C9.56905 9.53795 10.3413 10.3098 11.1199 11.0884C11.089 11.1072 11.0477 11.1347 11.0042 11.1589C8.24113 12.706 5.47843 14.2535 2.71448 15.7989C2.37551 15.9888 2.01191 16.0469 1.62827 15.9617Z" fill="white" fill-opacity="0.6"/>
<path d="M9.55903 7.98879C9.89425 7.65399 10.2253 7.32337 10.5563 6.99233C11.0385 6.51017 11.5223 6.02927 12.0015 5.54419C12.0717 5.47322 12.1226 5.46111 12.2128 5.51204C12.8594 5.87898 13.5102 6.23883 14.1581 6.60368C14.7016 6.90967 15.0001 7.37305 15.0001 8.00006C14.9997 8.62749 14.7004 9.09045 14.1573 9.39602C13.5094 9.76087 12.859 10.1216 12.2111 10.486C12.1422 10.5248 12.0938 10.5469 12.0233 10.476C11.2126 9.65943 10.3981 8.84707 9.58533 8.03304C9.57782 8.02594 9.57448 8.0155 9.55903 7.98879Z" fill="white" fill-opacity="0.6"/>
</svg>
