<svg width="1919" height="759" viewBox="0 0 1919 759" fill="none" xmlns="http://www.w3.org/2000/svg">
<path d="M0 635.484C721 635.484 1458 495.984 1918 98.4844" stroke="#FF00C1" stroke-width="2"/>
<path d="M0 757.484C721 757.484 1458 557.984 1918 160.484" stroke="url(#paint0_linear_30_108)" stroke-width="2"/>
<g filter="url(#filter0_d_30_108)">
<circle cx="470" cy="612.484" r="33" fill="white"/>
</g>
<g filter="url(#filter1_d_30_108)">
<circle cx="926" cy="545.484" r="23" fill="white"/>
</g>
<g filter="url(#filter2_d_30_108)">
<circle cx="1357.5" cy="420.984" r="18.5" fill="white"/>
</g>
<g filter="url(#filter3_d_30_108)">
<circle cx="1680" cy="266.484" r="11" fill="white"/>
</g>
<path d="M230.074 1.88437H245.562C251.279 1.88437 256.357 3.03637 260.794 5.34037C265.231 7.55904 268.687 10.7164 271.162 14.8124C273.637 18.9084 274.874 23.6017 274.874 28.8924C274.874 35.8044 272.826 41.6924 268.73 46.5564C264.634 51.335 259.173 54.3217 252.346 55.5164L278.458 91.4844H274.874L249.274 56.0284C248.421 56.1137 247.183 56.1564 245.562 56.1564H233.018V91.4844H230.074V1.88437ZM245.562 53.2124C250.682 53.2124 255.205 52.1884 259.13 50.1404C263.141 48.0924 266.255 45.2337 268.474 41.5644C270.693 37.895 271.802 33.671 271.802 28.8924C271.802 24.199 270.693 20.0177 268.474 16.3484C266.255 12.679 263.141 9.86303 259.13 7.90037C255.205 5.85237 250.682 4.82837 245.562 4.82837H233.018V53.2124H245.562ZM330.638 92.6364C322.275 92.6364 314.595 90.5884 307.598 86.4924C300.601 82.3964 295.054 76.8497 290.958 69.8524C286.947 62.855 284.942 55.1324 284.942 46.6844C284.942 38.2364 286.947 30.5137 290.958 23.5164C295.054 16.519 300.601 10.9724 307.598 6.87637C314.595 2.78037 322.275 0.732368 330.638 0.732368C339.086 0.732368 346.809 2.78037 353.806 6.87637C360.803 10.9724 366.35 16.519 370.446 23.5164C374.542 30.5137 376.59 38.2364 376.59 46.6844C376.59 55.1324 374.542 62.855 370.446 69.8524C366.35 76.8497 360.803 82.3964 353.806 86.4924C346.809 90.5884 339.086 92.6364 330.638 92.6364ZM330.638 89.5644C338.574 89.5644 345.785 87.687 352.27 83.9324C358.841 80.0924 364.003 74.9297 367.758 68.4444C371.598 61.8737 373.518 54.6204 373.518 46.6844C373.518 38.7484 371.598 31.5377 367.758 25.0524C364.003 18.4817 358.841 13.319 352.27 9.56437C345.785 5.72437 338.574 3.80437 330.638 3.80437C322.787 3.80437 315.619 5.72437 309.134 9.56437C302.649 13.319 297.486 18.4817 293.646 25.0524C289.891 31.5377 288.014 38.7484 288.014 46.6844C288.014 54.6204 289.891 61.8737 293.646 68.4444C297.486 74.9297 302.649 80.0924 309.134 83.9324C315.619 87.687 322.787 89.5644 330.638 89.5644ZM415.103 1.37237H418.687L455.551 91.4844H452.351L441.983 66.0124H391.935L381.567 91.4844H378.367L415.103 1.37237ZM440.703 63.0684L416.895 4.57237L393.087 63.0684H440.703ZM465.699 1.88437H486.947C495.139 1.88437 502.648 3.8897 509.475 7.90037C516.302 11.8257 521.678 17.2444 525.603 24.1564C529.614 30.983 531.619 38.4924 531.619 46.6844C531.619 54.8764 529.614 62.4284 525.603 69.3404C521.678 76.167 516.302 81.5857 509.475 85.5964C502.648 89.5217 495.139 91.4844 486.947 91.4844H465.699V1.88437ZM486.819 88.5404C494.499 88.5404 501.496 86.7057 507.811 83.0364C514.211 79.2817 519.246 74.2044 522.915 67.8044C526.67 61.4044 528.547 54.3644 528.547 46.6844C528.547 39.0044 526.67 31.9644 522.915 25.5644C519.246 19.1644 514.211 14.1297 507.811 10.4604C501.411 6.7057 494.371 4.82837 486.691 4.82837H468.643V88.5404H486.819ZM546.324 1.88437H548.884L586.772 64.4764L624.66 1.88437H627.22V91.4844H624.276V8.15637L587.668 68.4444H585.748L549.268 8.15637V91.4844H546.324V1.88437ZM674.228 1.37237H677.812L714.676 91.4844H711.476L701.108 66.0124H651.06L640.692 91.4844H637.492L674.228 1.37237ZM699.828 63.0684L676.02 4.57237L652.212 63.0684H699.828ZM724.824 1.88437H732.888C743.64 1.88437 752.088 4.4017 758.232 9.43637C764.376 14.471 767.448 21.383 767.448 30.1724C767.448 39.1324 764.376 46.1297 758.232 51.1644C752.088 56.199 743.64 58.7164 732.888 58.7164H727.768V91.4844H724.824V1.88437ZM732.888 55.7724C742.872 55.7724 750.637 53.5537 756.184 49.1164C761.731 44.5937 764.504 38.279 764.504 30.1724C764.504 22.2364 761.731 16.0497 756.184 11.6124C750.637 7.0897 742.872 4.82837 732.888 4.82837H727.768V55.7724H732.888Z" fill="white" fill-opacity="0.2"/>
<defs>
<filter id="filter0_d_30_108" x="417" y="559.484" width="106" height="106" filterUnits="userSpaceOnUse" color-interpolation-filters="sRGB">
<feFlood flood-opacity="0" result="BackgroundImageFix"/>
<feColorMatrix in="SourceAlpha" type="matrix" values="0 0 0 0 0 0 0 0 0 0 0 0 0 0 0 0 0 0 127 0" result="hardAlpha"/>
<feOffset/>
<feGaussianBlur stdDeviation="10"/>
<feComposite in2="hardAlpha" operator="out"/>
<feColorMatrix type="matrix" values="0 0 0 0 1 0 0 0 0 0 0 0 0 0 0.756863 0 0 0 1 0"/>
<feBlend mode="normal" in2="BackgroundImageFix" result="effect1_dropShadow_30_108"/>
<feBlend mode="normal" in="SourceGraphic" in2="effect1_dropShadow_30_108" result="shape"/>
</filter>
<filter id="filter1_d_30_108" x="883" y="502.484" width="86" height="86" filterUnits="userSpaceOnUse" color-interpolation-filters="sRGB">
<feFlood flood-opacity="0" result="BackgroundImageFix"/>
<feColorMatrix in="SourceAlpha" type="matrix" values="0 0 0 0 0 0 0 0 0 0 0 0 0 0 0 0 0 0 127 0" result="hardAlpha"/>
<feOffset/>
<feGaussianBlur stdDeviation="10"/>
<feComposite in2="hardAlpha" operator="out"/>
<feColorMatrix type="matrix" values="0 0 0 0 1 0 0 0 0 0 0 0 0 0 0.756863 0 0 0 1 0"/>
<feBlend mode="normal" in2="BackgroundImageFix" result="effect1_dropShadow_30_108"/>
<feBlend mode="normal" in="SourceGraphic" in2="effect1_dropShadow_30_108" result="shape"/>
</filter>
<filter id="filter2_d_30_108" x="1319" y="382.484" width="77" height="77" filterUnits="userSpaceOnUse" color-interpolation-filters="sRGB">
<feFlood flood-opacity="0" result="BackgroundImageFix"/>
<feColorMatrix in="SourceAlpha" type="matrix" values="0 0 0 0 0 0 0 0 0 0 0 0 0 0 0 0 0 0 127 0" result="hardAlpha"/>
<feOffset/>
<feGaussianBlur stdDeviation="10"/>
<feComposite in2="hardAlpha" operator="out"/>
<feColorMatrix type="matrix" values="0 0 0 0 1 0 0 0 0 0 0 0 0 0 0.756863 0 0 0 1 0"/>
<feBlend mode="normal" in2="BackgroundImageFix" result="effect1_dropShadow_30_108"/>
<feBlend mode="normal" in="SourceGraphic" in2="effect1_dropShadow_30_108" result="shape"/>
</filter>
<filter id="filter3_d_30_108" x="1649" y="235.484" width="62" height="62" filterUnits="userSpaceOnUse" color-interpolation-filters="sRGB">
<feFlood flood-opacity="0" result="BackgroundImageFix"/>
<feColorMatrix in="SourceAlpha" type="matrix" values="0 0 0 0 0 0 0 0 0 0 0 0 0 0 0 0 0 0 127 0" result="hardAlpha"/>
<feOffset/>
<feGaussianBlur stdDeviation="10"/>
<feComposite in2="hardAlpha" operator="out"/>
<feColorMatrix type="matrix" values="0 0 0 0 1 0 0 0 0 0 0 0 0 0 0.756863 0 0 0 1 0"/>
<feBlend mode="normal" in2="BackgroundImageFix" result="effect1_dropShadow_30_108"/>
<feBlend mode="normal" in="SourceGraphic" in2="effect1_dropShadow_30_108" result="shape"/>
</filter>
<linearGradient id="paint0_linear_30_108" x1="5.87619e-07" y1="574.605" x2="1918.03" y2="558.863" gradientUnits="userSpaceOnUse">
<stop/>
<stop offset="0.236554" stop-color="white"/>
<stop offset="0.879807" stop-color="white"/>
<stop offset="1"/>
</linearGradient>
</defs>
</svg>
