<svg width="73" height="72" viewBox="0 0 73 72" fill="none" xmlns="http://www.w3.org/2000/svg">
<g clip-path="url(#clip0_2006_3920)">
<path d="M33.1506 72C24.3585 72 15.9265 68.5073 9.70959 62.2904C3.49264 56.0734 0 47.6415 0 38.8494C0 30.0573 3.49264 21.6253 9.70959 15.4083C15.9265 9.19138 24.3585 5.69874 33.1506 5.69874C35.8588 5.69727 38.5571 6.02593 41.1857 6.67746C41.207 6.94773 41.2439 7.21655 41.2962 7.48256L41.9119 10.3398C39.0727 9.47046 36.1199 9.02884 33.1506 9.02956C25.2445 9.03792 17.6646 12.1823 12.0741 17.7728C6.48364 23.3633 3.33923 30.9432 3.33087 38.8494C3.33923 46.7555 6.48364 54.3354 12.0741 59.9259C17.6646 65.5163 25.2445 68.6608 33.1506 68.6692C41.0568 68.6608 48.6367 65.5163 54.2272 59.9259C59.8177 54.3354 62.9621 46.7555 62.9704 38.8494C62.9675 35.9022 62.5313 32.9715 61.676 30.1513L64.6122 30.7827C64.8555 30.8427 65.1039 30.8796 65.3541 30.8932C65.9833 33.477 66.3013 36.1269 66.3013 38.7862C66.3096 43.1449 65.4582 47.4624 63.796 51.4918C62.1337 55.5211 59.6932 59.183 56.614 62.268C53.5349 65.3531 49.8776 67.8006 45.8515 69.4705C41.8253 71.1404 37.5093 72 33.1506 72Z" fill="#FF00C1"/>
<path d="M33.1505 56.1823C28.5451 56.1823 24.1284 54.3529 20.8719 51.0964C17.6154 47.8399 15.7859 43.4231 15.7859 38.8178C15.7859 34.2124 17.6154 29.7956 20.8719 26.5391C24.1284 23.2826 28.5451 21.4531 33.1505 21.4531C34.3759 21.4517 35.5981 21.5786 36.7971 21.832L33.8135 24.7998H33.1505C29.4396 24.8039 25.8822 26.281 23.2597 28.9065C20.6372 31.532 19.1641 35.0911 19.1641 38.8019C19.1641 42.5128 20.6372 46.072 23.2597 48.6974C25.8822 51.3229 29.4396 52.8 33.1505 52.8042C36.8628 52.8 40.422 51.3234 43.047 48.6984C45.672 46.0734 47.1485 42.5143 47.1527 38.8019C47.1527 38.5967 47.1527 38.3757 47.1527 38.1705L50.1205 35.2027C50.3737 36.3857 50.5008 37.5922 50.4994 38.8019C50.5014 41.0823 50.0543 43.3408 49.1836 45.4483C48.3129 47.5559 47.0355 49.4713 45.4246 51.0852C43.8136 52.6991 41.9005 53.9799 39.7945 54.8545C37.6885 55.7291 35.4309 56.1802 33.1505 56.1823Z" fill="#FF00C1"/>
<path d="M33.1507 42.7959C32.6314 42.8023 32.1161 42.7044 31.6353 42.5082C31.1545 42.3119 30.7179 42.0212 30.3514 41.6532C29.9849 41.2853 29.696 40.8475 29.5016 40.3659C29.3073 39.8843 29.2115 39.3686 29.22 38.8494C29.22 37.8194 29.6291 36.8317 30.3574 36.1034C31.0857 35.3751 32.0734 34.966 33.1033 34.966C33.4667 34.9688 33.828 35.0219 34.1768 35.1239L34.4294 35.2028L55.2669 14.4284L54.0198 8.6507L62.6863 0L63.965 5.93551C64.084 6.46559 64.3549 6.94951 64.7446 7.32801C65.1343 7.70651 65.6259 7.96318 66.1593 8.06663L72.0948 9.34529L63.4283 17.996L57.619 16.7489L36.7973 37.5233L36.8762 37.7759C36.9782 38.1193 37.0313 38.4753 37.0341 38.8336C37.0446 39.3501 36.9519 39.8636 36.7614 40.3439C36.571 40.8242 36.2866 41.2617 35.925 41.6307C35.5633 41.9997 35.1316 42.2928 34.6553 42.4929C34.1789 42.693 33.6674 42.796 33.1507 42.7959Z" fill="white"/>
</g>
<defs>
<clipPath id="clip0_2006_3920">
<rect width="72.0947" height="72" fill="white"/>
</clipPath>
</defs>
</svg>
