<svg width="72" height="72" viewBox="0 0 72 72" fill="none" xmlns="http://www.w3.org/2000/svg">
<path d="M35.9934 72L8.16675 59.5733V0H63.8334V59.5733L35.9934 72ZM10.1267 58.2667L35.9534 69.8133L61.7934 58.2667V2H10.1267V58.2667Z" fill="#E900DD"/>
<path d="M16.1799 11.0401H18.2733L23.2599 26.8001L28.4733 11.0134H30.1266L35.3399 26.8268L40.3399 11.0401H42.4066L36.4999 29.7068H34.2733L29.2999 14.6534L24.2866 29.7068H22.1266L16.1799 11.0401Z" fill="white"/>
<path d="M44.9133 11.0398H54.1267V13.0131H47.06V19.3198H53.9533V21.2265H46.9933V27.6398H54.3267V29.6131H44.9133V11.0398Z" fill="white"/>
<path d="M18.2068 33.2267H23.4601C25.1201 33.2117 26.754 33.6398 28.1935 34.4667C29.6078 35.2871 30.7818 36.4648 31.5979 37.8816C32.414 39.2985 32.8436 40.9049 32.8436 42.54C32.8436 44.1751 32.414 45.7815 31.5979 47.1984C30.7818 48.6153 29.6078 49.7929 28.1935 50.6134C26.758 51.4543 25.1238 51.8962 23.4601 51.8934H18.2068V33.2267ZM27.1268 48.8934C28.2349 48.2546 29.1547 47.3348 29.7935 46.2267C30.4229 45.0999 30.7533 43.8307 30.7533 42.54C30.7533 41.2494 30.4229 39.9802 29.7935 38.8534C29.1547 37.7453 28.2349 36.8254 27.1268 36.1867C26.0097 35.5247 24.7318 35.1834 23.4335 35.2H20.2868V49.8667H23.4601C24.7495 49.8785 26.0175 49.5373 27.1268 48.88V48.8934Z" fill="white"/>
<path d="M39.66 50.8537C38.207 50.0247 37.0012 48.8235 36.1667 47.3737C35.3363 45.8933 34.9001 44.2244 34.9001 42.527C34.9001 40.8297 35.3363 39.1607 36.1667 37.6804C37.0175 36.2253 38.2344 35.0184 39.6964 34.1797C41.1584 33.341 42.8145 32.8997 44.5 32.8997C46.1855 32.8997 47.8416 33.341 49.3036 34.1797C50.7657 35.0184 51.9826 36.2253 52.8333 37.6804C53.6638 39.1607 54.0999 40.8297 54.0999 42.527C54.0999 44.2244 53.6638 45.8933 52.8333 47.3737C51.5345 49.5675 49.4248 51.1623 46.9599 51.8135C44.495 52.4646 41.8728 52.1199 39.66 50.8537ZM48.2467 49.0137C49.3579 48.3791 50.2787 47.4583 50.9133 46.347C51.5602 45.1874 51.8998 43.8816 51.8998 42.5537C51.8998 41.2258 51.5602 39.92 50.9133 38.7604C50.2787 37.6492 49.3579 36.7283 48.2467 36.0937C47.1054 35.4425 45.814 35.1 44.5 35.1C43.186 35.1 41.8947 35.4425 40.7533 36.0937C39.6517 36.7407 38.7337 37.6587 38.0867 38.7604C37.587 39.6083 37.2596 40.5465 37.1232 41.5212C36.9869 42.496 37.0442 43.488 37.2919 44.4405C37.5396 45.393 37.9729 46.2873 38.5669 47.0721C39.1609 47.8568 39.9039 48.5166 40.7533 49.0137C41.8947 49.6649 43.186 50.0074 44.5 50.0074C45.814 50.0074 47.1054 49.6649 48.2467 49.0137Z" fill="#E900DD"/>
</svg>
