<svg width="72" height="72" viewBox="0 0 72 72" fill="none" xmlns="http://www.w3.org/2000/svg">
<path d="M48.6353 44.8534C48.2629 44.8569 47.907 45.0073 47.6449 45.272C47.3828 45.5367 47.2358 45.8941 47.2358 46.2667V55.9733C47.2376 56.8979 47.0573 57.8137 46.7053 58.6685C46.3532 59.5233 45.8363 60.3003 45.1841 60.9553C44.5318 61.6102 43.757 62.1303 42.9039 62.4857C42.0507 62.8411 41.1359 63.0249 40.2118 63.0267H25.0307C24.6695 63.0261 24.3217 63.164 24.059 63.412C23.7962 63.66 23.6384 63.9992 23.6179 64.36V67.16L20.2592 63.8C20.1551 63.5365 19.9697 63.313 19.7301 63.162C19.4904 63.0109 19.2089 62.9402 18.9263 62.96H9.83636C7.97454 62.9565 6.18999 62.2151 4.87349 60.8981C3.55698 59.5811 2.81582 57.7959 2.81229 55.9333V34.3067C2.81582 32.4442 3.55698 30.659 4.87349 29.342C6.18999 28.025 7.97454 27.2836 9.83636 27.28H24.0711C24.4204 27.246 24.7445 27.0831 24.9804 26.823C25.2162 26.563 25.3468 26.2245 25.3468 25.8734C25.3468 25.5223 25.2162 25.1837 24.9804 24.9237C24.7445 24.6637 24.4204 24.5007 24.0711 24.4667H9.83636C7.22868 24.4702 4.72881 25.5081 2.8849 27.3527C1.04099 29.1973 0.00352628 31.698 0 34.3067V55.9733C0.00352628 58.582 1.04099 61.0828 2.8849 62.9274C4.72881 64.772 7.22868 65.8098 9.83636 65.8134H18.2599L24.0711 71.5867C24.3322 71.8497 24.6869 71.9983 25.0574 72C25.2445 71.9982 25.4297 71.962 25.6039 71.8934C25.8653 71.7837 26.0878 71.5979 26.2423 71.3601C26.3968 71.1224 26.4762 70.8436 26.4702 70.56V65.7734H40.2118C42.8195 65.7698 45.3193 64.732 47.1632 62.8874C49.0071 61.0428 50.0446 58.542 50.0481 55.9333V46.2267C50.0377 45.8588 49.8843 45.5096 49.6205 45.2531C49.3566 44.9966 49.0032 44.8532 48.6353 44.8534Z" fill="#E900DD"/>
<path d="M51.5409 0H47.9822C42.5632 0 37.3661 2.15349 33.5343 5.98674C29.7025 9.81998 27.5498 15.019 27.5498 20.44C27.5498 25.861 29.7025 31.06 33.5343 34.8932C37.3661 38.7265 42.5632 40.88 47.9822 40.88H51.5409C53.2905 40.8802 55.033 40.6561 56.7257 40.2133L62.057 45.4666C62.3181 45.7296 62.6728 45.8783 63.0433 45.88C63.2261 45.878 63.407 45.8418 63.5765 45.7733C63.8415 45.6673 64.0678 45.4828 64.2251 45.2445C64.3823 45.0062 64.4629 44.7254 64.4561 44.44V36.36C66.6772 34.5326 68.4929 32.2621 69.7875 29.6933C71.2516 26.8246 72.0101 23.6476 72 20.4266C71.9894 15.0055 69.8292 9.80999 65.9936 5.98039C62.1579 2.15079 56.9601 -1.03535e-05 51.5409 0ZM62.2036 34.5333C62.0258 34.6599 61.8817 34.8282 61.7841 35.0235C61.6865 35.2188 61.6384 35.4351 61.6439 35.6533V41.08L58.1385 37.6933C57.8716 37.4308 57.5131 37.2825 57.1388 37.28C56.9987 37.2827 56.8596 37.3051 56.7257 37.3466C55.0448 37.8577 53.2978 38.1183 51.5409 38.12H47.9822C43.3091 38.12 38.8273 36.2629 35.5229 32.9572C32.2185 29.6516 30.3621 25.1682 30.3621 20.4933C30.3621 15.8184 32.2185 11.335 35.5229 8.02938C38.8273 4.72374 43.3091 2.86666 47.9822 2.86666H51.5409C55.2408 2.85823 58.8495 4.0142 61.8563 6.17094C64.8631 8.32768 67.1156 11.3759 68.2949 14.8841C69.4741 18.3923 69.5205 22.1827 68.4273 25.7186C67.3341 29.2546 65.1568 32.357 62.2036 34.5867V34.5333Z" fill="#E900DD"/>
<path d="M56.0594 15.3866C55.9545 13.9574 55.3395 12.6135 54.3265 11.6002C53.3136 10.5868 51.9702 9.97156 50.5415 9.86665C49.7273 9.81002 48.9101 9.92134 48.1407 10.1937C47.3713 10.4661 46.666 10.8937 46.0687 11.4501C45.4713 12.0064 44.9946 12.6796 44.6681 13.4278C44.3415 14.1761 44.1722 14.9835 44.1705 15.8C44.1514 15.9962 44.1735 16.1943 44.2355 16.3815C44.2974 16.5686 44.3979 16.7407 44.5303 16.8867C44.6627 17.0328 44.8242 17.1495 45.0044 17.2293C45.1846 17.3092 45.3795 17.3504 45.5766 17.3504C45.7737 17.3504 45.9686 17.3092 46.1488 17.2293C46.329 17.1495 46.4905 17.0328 46.623 16.8867C46.7554 16.7407 46.8558 16.5686 46.9178 16.3815C46.9798 16.1943 47.0019 15.9962 46.9828 15.8C46.9789 15.3689 47.0659 14.9419 47.2382 14.5467C47.4104 14.1515 47.664 13.7971 47.9824 13.5066C48.3328 13.1738 48.7554 12.9267 49.2172 12.7844C49.6789 12.6422 50.1673 12.6087 50.6442 12.6866C51.121 12.7646 51.5733 12.9518 51.9658 13.2338C52.3583 13.5157 52.6802 13.8846 52.9065 14.3116C53.1328 14.7387 53.2572 15.2123 53.2701 15.6955C53.2829 16.1787 53.1839 16.6583 52.9807 17.0968C52.7775 17.5353 52.4756 17.9208 52.0987 18.2233C51.7218 18.5257 51.28 18.7367 50.808 18.84C50.2042 18.9728 49.6653 19.3114 49.2836 19.7978C48.9019 20.2843 48.701 20.8883 48.7155 21.5066V24.88C48.6963 25.0762 48.7185 25.2743 48.7804 25.4615C48.8424 25.6486 48.9428 25.8207 49.0753 25.9667C49.2077 26.1128 49.3692 26.2295 49.5494 26.3093C49.7296 26.3892 49.9245 26.4304 50.1216 26.4304C50.3187 26.4304 50.5136 26.3892 50.6938 26.3093C50.874 26.2295 51.0355 26.1128 51.168 25.9667C51.3004 25.8207 51.4008 25.6486 51.4628 25.4615C51.5247 25.2743 51.5469 25.0762 51.5278 24.88V21.6133C52.9014 21.2869 54.1132 20.4799 54.9442 19.338C55.7752 18.1961 56.1708 16.7947 56.0594 15.3866Z" fill="white"/>
<path d="M51.1545 29.4267C51.0232 29.2955 50.8673 29.1915 50.6958 29.1205C50.5243 29.0496 50.3405 29.0132 50.1549 29.0134C49.9708 29.0104 49.7882 29.0456 49.6185 29.1167C49.4487 29.1879 49.2955 29.2934 49.1686 29.4267C49.0374 29.5581 48.9334 29.714 48.8625 29.8856C48.7916 30.0572 48.7552 30.241 48.7554 30.4267C48.7582 30.7858 48.8975 31.1303 49.1451 31.3903C49.3926 31.6504 49.7298 31.8064 50.0882 31.8267C50.2738 31.8269 50.4576 31.7905 50.6291 31.7195C50.8007 31.6486 50.9565 31.5446 51.0878 31.4134C51.2188 31.2833 51.3228 31.1285 51.3937 30.958C51.4646 30.7875 51.5011 30.6047 51.5011 30.4201C51.5011 30.2354 51.4646 30.0525 51.3937 29.882C51.3228 29.7116 51.2188 29.5568 51.0878 29.4267H51.1545Z" fill="white"/>
<path d="M38.7324 43.5868H8.9967C8.64738 43.6209 8.32324 43.7838 8.08741 44.0438C7.85158 44.3038 7.72095 44.6423 7.72095 44.9934C7.72095 45.3446 7.85158 45.6831 8.08741 45.9431C8.32324 46.2031 8.64738 46.366 8.9967 46.4001H38.7324C39.0817 46.366 39.4058 46.2031 39.6416 45.9431C39.8775 45.6831 40.0081 45.3446 40.0081 44.9934C40.0081 44.6423 39.8775 44.3038 39.6416 44.0438C39.4058 43.7838 39.0817 43.6209 38.7324 43.5868Z" fill="white"/>
<path d="M39.6517 51.88C39.4535 51.6866 39.2028 51.5557 38.9308 51.5037C38.6589 51.4516 38.3776 51.4807 38.122 51.5872C37.8664 51.6938 37.6477 51.8731 37.4931 52.1029C37.3386 52.3328 37.2549 52.603 37.2526 52.88C37.2497 53.0641 37.2848 53.2468 37.356 53.4166C37.4271 53.5864 37.5326 53.7396 37.6658 53.8666C37.7959 53.9977 37.9506 54.1016 38.121 54.1726C38.2914 54.2436 38.4742 54.2801 38.6588 54.2801C38.8433 54.2801 39.0261 54.2436 39.1965 54.1726C39.367 54.1016 39.5217 53.9977 39.6517 53.8666C39.785 53.7396 39.8905 53.5864 39.9616 53.4166C40.0327 53.2468 40.0679 53.0641 40.0649 52.88C40.0651 52.6943 40.0287 52.5104 39.9578 52.3389C39.8869 52.1673 39.7829 52.0114 39.6517 51.88Z" fill="white"/>
<path d="M33.1344 51.4667H8.9967C8.64738 51.5007 8.32324 51.6637 8.08741 51.9237C7.85158 52.1837 7.72095 52.5223 7.72095 52.8734C7.72095 53.2245 7.85158 53.563 8.08741 53.823C8.32324 54.0831 8.64738 54.246 8.9967 54.28H33.1344C33.4837 54.246 33.8079 54.0831 34.0437 53.823C34.2795 53.563 34.4102 53.2245 34.4102 52.8734C34.4102 52.5223 34.2795 52.1837 34.0437 51.9237C33.8079 51.6637 33.4837 51.5007 33.1344 51.4667Z" fill="white"/>
<path d="M29.5224 35.72H8.9967C8.64738 35.754 8.32324 35.917 8.08741 36.177C7.85158 36.437 7.72095 36.7756 7.72095 37.1267C7.72095 37.4778 7.85158 37.8163 8.08741 38.0763C8.32324 38.3364 8.64738 38.4993 8.9967 38.5333H29.5224C29.8717 38.4993 30.1959 38.3364 30.4317 38.0763C30.6675 37.8163 30.7982 37.4778 30.7982 37.1267C30.7982 36.7756 30.6675 36.437 30.4317 36.177C30.1959 35.917 29.8717 35.754 29.5224 35.72Z" fill="white"/>
</svg>
