<svg width="1010" height="720" viewBox="0 0 1010 720" fill="none" xmlns="http://www.w3.org/2000/svg">
<path fill-rule="evenodd" clip-rule="evenodd" d="M520.309 720H0.779543C6.55849 719.174 12.1582 717.3 17.2971 714.452C24.4265 710.5 30.4353 704.802 34.7594 697.892C34.7905 697.838 34.824 697.782 34.8581 697.725C34.9312 697.604 35.0067 697.479 35.0651 697.354C35.3096 696.963 35.5418 696.559 35.7618 696.131L35.8963 695.875L70.4452 630.885L360.675 84.9371C361.409 83.5557 362.154 82.1986 362.925 80.8538C391.177 31.1333 439.529 4.33536 489.432 0.484375H1010V0.48566C1001.98 0.548048 994.109 2.60529 987.086 6.47341C979.991 10.3809 973.993 16.0108 969.645 22.8446C969.522 23.0279 969.412 23.2113 969.302 23.3947C969.021 23.8592 968.752 24.336 968.483 24.8128L934.252 89.2771L643.558 636.129C643.489 636.259 643.419 636.393 643.349 636.528C643.108 636.989 642.859 637.465 642.604 637.853L642.127 638.721C641.951 639.065 641.762 639.402 641.574 639.738C641.501 639.868 641.429 639.997 641.357 640.127V640.201C640.892 641.02 640.428 641.839 639.951 642.646C639.34 643.648 638.728 644.65 638.129 645.641C637.866 646.065 637.599 646.486 637.333 646.906C636.992 647.441 636.655 647.973 636.332 648.501C635.11 650.384 633.887 652.242 632.567 654.052C632.101 654.714 631.623 655.371 631.145 656.025C630.971 656.264 630.797 656.503 630.623 656.741C630.199 657.34 629.751 657.93 629.305 658.519C629.186 658.677 629.067 658.834 628.948 658.991C627.799 660.47 626.65 661.937 625.464 663.367C624.804 664.199 624.107 665.018 623.398 665.813L623.31 665.918C622.846 666.475 622.354 667.066 621.894 667.549C620.672 668.93 619.449 670.287 618.227 671.607C617.004 672.928 615.708 674.248 614.412 675.507C613.789 676.155 613.19 676.73 612.481 677.39C611.503 678.319 610.5 679.248 609.51 680.153C608.52 681.058 607.517 681.938 606.478 682.818C605.977 683.258 605.464 683.686 604.951 684.113L604.95 684.114C603.935 684.97 602.896 685.813 601.869 686.645C597.851 689.839 593.723 692.802 589.485 695.532L589.244 695.687C588.583 696.11 587.937 696.523 587.272 696.926C586.945 697.125 586.622 697.326 586.299 697.527C585.886 697.784 585.472 698.042 585.047 698.295L582.785 699.616C581.648 700.276 580.524 700.912 579.362 701.535C578.506 702.012 577.651 702.464 576.783 702.917C575.047 703.821 573.298 704.689 571.538 705.521C570.67 705.936 569.778 706.34 568.885 706.743L568.708 706.823C567.902 707.188 567.266 707.475 566.513 707.794C565.706 708.137 564.924 708.467 564.068 708.797C561.807 709.726 559.557 710.606 557.259 711.413C555.678 711.999 554.088 712.525 552.487 713.054L551.977 713.222L549.703 713.932C547.795 714.51 545.887 715.029 543.97 715.551L543.273 715.741C535.729 717.712 528.054 719.135 520.309 720Z" fill="black"/>
</svg>
