<svg width="275" height="42" viewBox="0 0 275 42" fill="none" xmlns="http://www.w3.org/2000/svg">
<path d="M99.8301 1.5733H108.483C110.526 1.5733 112.347 2.00113 113.948 2.85678C115.549 3.71244 116.791 4.87171 117.675 6.33461C118.585 7.7975 119.041 9.43981 119.041 11.2615C119.041 13.0556 118.572 14.6841 117.633 16.147C116.695 17.6099 115.425 18.7554 113.824 19.5835L120.283 30.5552H114.114L108.442 20.7841H105.171V30.5552H99.8301V1.5733ZM108.4 15.94C109.891 15.94 111.119 15.5122 112.085 14.6565C113.051 13.7733 113.534 12.6416 113.534 11.2615C113.534 9.88144 113.051 8.76356 112.085 7.90791C111.119 7.02465 109.891 6.58302 108.4 6.58302H105.171V15.94H108.4Z" fill="white"/>
<path d="M122.594 7.86651H127.728V30.5552H122.594V7.86651ZM122.553 0.455428H127.77V5.21674H122.553V0.455428Z" fill="white"/>
<path d="M141.705 26.7875C140.822 26.7875 140.035 26.6909 139.345 26.4977L136.903 30.0583H145.514C147.943 30.0583 149.793 30.7622 151.062 32.1699C152.36 33.6052 153.008 35.6891 153.008 38.4217H147.999C147.999 36.0755 146.784 34.9025 144.355 34.9025H130.982V30.1411L134.998 24.1792C134.06 23.2959 133.328 22.247 132.804 21.0326C132.307 19.7905 132.058 18.4518 132.058 17.0165C132.058 15.2224 132.486 13.5801 133.342 12.0896C134.198 10.5991 135.371 9.42601 136.861 8.57035C138.352 7.6871 139.98 7.24547 141.747 7.24547C143.375 7.24547 144.893 7.61809 146.301 8.36334L149.158 4.55429L153.132 7.36968L149.903 11.6756C150.924 13.3317 151.435 15.112 151.435 17.0165C151.435 18.8106 151.007 20.4529 150.151 21.9434C149.296 23.4339 148.123 24.6208 146.632 25.504C145.142 26.3597 143.499 26.7875 141.705 26.7875ZM141.747 21.9434C143.099 21.9434 144.231 21.4604 145.142 20.4943C146.08 19.5283 146.549 18.3552 146.549 16.9751C146.549 15.6226 146.08 14.4633 145.142 13.4973C144.203 12.5312 143.072 12.0482 141.747 12.0482C140.394 12.0482 139.249 12.5312 138.31 13.4973C137.399 14.4357 136.944 15.595 136.944 16.9751C136.944 18.3552 137.399 19.5283 138.31 20.4943C139.249 21.4604 140.394 21.9434 141.747 21.9434Z" fill="white"/>
<path d="M155.385 0H160.519V10.3507C161.292 9.38461 162.244 8.63936 163.376 8.11492C164.507 7.59049 165.736 7.32827 167.061 7.32827C168.855 7.32827 170.442 7.7423 171.822 8.57035C173.202 9.39841 174.278 10.5715 175.051 12.0896C175.824 13.5801 176.211 15.2914 176.211 17.2235V30.5552H171.035V17.2649C171.035 15.7744 170.566 14.5599 169.628 13.6215C168.689 12.683 167.488 12.2138 166.025 12.2138C164.397 12.2138 163.072 12.6968 162.051 13.6629C161.03 14.6289 160.519 15.8848 160.519 17.4305V30.5552H155.385V0Z" fill="white"/>
<path d="M187.503 31.0106C184.798 31.0106 182.797 30.293 181.5 28.8577C180.202 27.3948 179.554 25.3522 179.554 22.7301V2.40136H184.688V7.86651H189.201V12.7934H184.688V22.3574C184.688 24.7036 185.764 25.8767 187.917 25.8767H189.201V31.0106H187.503Z" fill="white"/>
<path d="M190.597 7.86651H195.855L200.575 23.9307L205.668 7.86651H210.305L215.439 23.9307L220.159 7.86651H225.376L218.296 30.5552H212.706L208.028 15.733L203.308 30.5552H197.677L190.597 7.86651Z" fill="white"/>
<path d="M244.18 28.2366C243.242 29.1751 242.152 29.8927 240.91 30.3896C239.668 30.8864 238.301 31.1348 236.811 31.1348C234.658 31.1348 232.712 30.6104 230.973 29.5615C229.234 28.5126 227.868 27.0773 226.874 25.2556C225.88 23.4339 225.384 21.419 225.384 19.2108C225.384 17.0027 225.88 14.9878 226.874 13.166C227.868 11.3443 229.234 9.90904 230.973 8.86017C232.712 7.8113 234.658 7.28687 236.811 7.28687C238.301 7.28687 239.668 7.53528 240.91 8.03212C242.152 8.52895 243.242 9.2466 244.18 10.1851V7.86651H249.273V30.5552H244.18V28.2366ZM237.349 26.2079C238.619 26.2079 239.764 25.9043 240.785 25.297C241.807 24.6898 242.607 23.8617 243.187 22.8129C243.794 21.7364 244.098 20.5357 244.098 19.2108C244.098 17.886 243.794 16.6991 243.187 15.6502C242.607 14.5737 241.807 13.7319 240.785 13.1246C239.764 12.5174 238.619 12.2138 237.349 12.2138C236.079 12.2138 234.92 12.5174 233.871 13.1246C232.85 13.7319 232.036 14.5737 231.428 15.6502C230.849 16.6991 230.559 17.886 230.559 19.2108C230.559 20.5357 230.849 21.7364 231.428 22.8129C232.036 23.8617 232.85 24.6898 233.871 25.297C234.92 25.9043 236.079 26.2079 237.349 26.2079Z" fill="white"/>
<path d="M260.393 30.5138L251.367 7.86651H256.791L263.167 24.5104L269.419 7.86651H274.884L262.96 37.635H257.329L260.393 30.5138Z" fill="white"/>
<path d="M48.0321 11.9746C47.147 10.113 44.6778 10.113 43.746 11.9746L38.668 22.3395L43.7926 11.9746C43.8392 11.9243 43.8858 11.8237 43.8858 11.7734C44.8642 10.1633 47.147 10.2136 48.0321 11.9746Z" fill="url(#paint0_linear_2002_2625)"/>
<path d="M52.5045 41.9626C52.9238 42.013 53.3431 42.013 53.7624 41.9626H52.5045Z" fill="url(#paint1_linear_2002_2625)"/>
<path d="M91.7781 2.76709L73.1895 40.5536C72.7702 41.409 71.9316 41.9624 71.0464 41.9624H53.7623C56.3247 41.7612 58.8404 40.2014 60.2381 37.3838L62.5209 32.8051L67.5989 22.4402L76.5904 4.12559C77.0097 3.27024 77.8483 2.76709 78.6869 2.76709H91.7781Z" fill="url(#paint2_linear_2002_2625)"/>
<path d="M62.5209 32.7548L60.2381 37.3838C58.8405 40.2517 56.3247 41.7612 53.7624 41.9624H49.7093C48.8241 41.9624 47.9855 41.409 47.5662 40.5536L46.0288 37.4341C46.0288 37.3838 45.9822 37.3838 45.9822 37.3335L38.6213 22.3396H53.1102V22.3899L58.1883 32.7548C59.1666 34.6164 61.5892 34.6164 62.5209 32.7548Z" fill="url(#paint3_linear_2002_2625)"/>
<path d="M53.7624 2.81752C53.3431 2.76721 52.9238 2.76721 52.5045 2.81752H53.7624Z" fill="url(#paint4_linear_2002_2625)"/>
<path d="M52.5045 2.81738C49.9422 3.01864 47.4265 4.5784 46.0288 7.39604L43.8858 11.7734L43.7926 12.025L38.7145 22.3899L29.6765 40.6039C29.2572 41.4593 28.4186 41.9624 27.58 41.9624H14.5354L33.124 4.17588C33.5433 3.32053 34.3818 2.81738 35.267 2.81738H52.5045Z" fill="url(#paint5_linear_2002_2625)"/>
<path d="M67.6455 22.3899H53.1566V22.3396L48.0786 11.9747C47.1934 10.1131 44.7242 10.1131 43.7925 11.9747L43.8857 11.7231L46.0287 7.34575C47.4263 4.4778 49.9421 2.96835 52.5044 2.76709H56.5576C57.4427 2.76709 58.2813 3.32055 58.7006 4.12559L60.238 7.24512C60.238 7.29543 60.2846 7.29543 60.2846 7.34575L67.6455 22.3899Z" fill="url(#paint6_linear_2002_2625)"/>
<path d="M24.1325 22.3396H9.6437L0 2.76709H13.0446C13.9298 2.76709 14.7218 3.27024 15.1411 4.12559L24.1325 22.3396Z" fill="url(#paint7_linear_2002_2625)"/>
<defs>
<linearGradient id="paint0_linear_2002_2625" x1="38.6409" y1="16.4706" x2="53.137" y2="16.4706" gradientUnits="userSpaceOnUse">
<stop stop-color="#823DF2"/>
<stop offset="0.8315" stop-color="#13EAD4"/>
</linearGradient>
<linearGradient id="paint1_linear_2002_2625" x1="52.4975" y1="41.9546" x2="53.7732" y2="41.9546" gradientUnits="userSpaceOnUse">
<stop stop-color="#823DF2"/>
<stop offset="0.8315" stop-color="#13EAD4"/>
</linearGradient>
<linearGradient id="paint2_linear_2002_2625" x1="66.7706" y1="36.004" x2="85.2153" y2="0.0378744" gradientUnits="userSpaceOnUse">
<stop stop-color="#A90004"/>
<stop offset="0.5025" stop-color="#D40076"/>
<stop offset="1" stop-color="#E900DD"/>
</linearGradient>
<linearGradient id="paint3_linear_2002_2625" x1="48.2348" y1="22.391" x2="57.7401" y2="40.3307" gradientUnits="userSpaceOnUse">
<stop stop-color="#A90004"/>
<stop offset="0.5025" stop-color="#D40076"/>
<stop offset="1" stop-color="#E900DD"/>
</linearGradient>
<linearGradient id="paint4_linear_2002_2625" x1="52.4975" y1="2.78985" x2="53.7732" y2="2.78985" gradientUnits="userSpaceOnUse">
<stop stop-color="#823DF2"/>
<stop offset="0.8315" stop-color="#13EAD4"/>
</linearGradient>
<linearGradient id="paint5_linear_2002_2625" x1="42.5839" y1="2.56229" x2="23.5498" y2="38.1719" gradientUnits="userSpaceOnUse">
<stop stop-color="#E900DD"/>
<stop offset="0.4975" stop-color="#D40076"/>
<stop offset="1" stop-color="#A90004"/>
</linearGradient>
<linearGradient id="paint6_linear_2002_2625" x1="50.1325" y1="5.31755" x2="58.485" y2="20.606" gradientUnits="userSpaceOnUse">
<stop stop-color="#A90004"/>
<stop offset="0.5025" stop-color="#D40076"/>
<stop offset="1" stop-color="#E900DD"/>
</linearGradient>
<linearGradient id="paint7_linear_2002_2625" x1="25.8056" y1="40.4463" x2="5.83362" y2="5.68514" gradientUnits="userSpaceOnUse">
<stop stop-color="#A90004"/>
<stop offset="0.5025" stop-color="#D40076"/>
<stop offset="1" stop-color="#E900DD"/>
</linearGradient>
</defs>
</svg>
