<svg width="306" height="120" viewBox="0 0 306 120" fill="none" xmlns="http://www.w3.org/2000/svg">
<g clip-path="url(#clip0_18_536)">
<path d="M116.284 86.8573V81.3808C117.215 81.8994 118.199 82.317 119.218 82.6264C120.115 82.9093 121.047 83.0619 121.987 83.0794C124.53 83.0794 125.806 81.9573 125.806 79.7338C125.802 79.3344 125.715 78.9401 125.552 78.5754C125.39 78.2107 125.154 77.8832 124.859 77.6132C123.949 76.7598 122.96 75.9946 121.905 75.3279C120.649 74.4323 119.62 73.65 118.817 72.9705C117.991 72.2623 117.294 71.4159 116.758 70.4691C116.179 69.4429 115.884 68.2809 115.903 67.1029C115.832 66.0202 116.014 64.9359 116.434 63.9355C116.854 62.935 117.5 62.0459 118.323 61.3382C120.091 59.988 122.276 59.2996 124.499 59.3926C126.093 59.4015 127.675 59.6692 129.183 60.1853V65.6103C128.476 65.1754 127.71 64.846 126.908 64.6323C126.125 64.4028 125.315 64.2816 124.499 64.272C123.62 64.2344 122.75 64.468 122.008 64.9411C121.685 65.1741 121.427 65.4853 121.258 65.8455C121.089 66.2056 121.014 66.6029 121.04 67C121.055 67.359 121.143 67.7113 121.299 68.0352C121.455 68.359 121.675 68.6478 121.946 68.8838C122.833 69.7357 123.779 70.5235 124.777 71.2411C125.877 72.0371 126.935 72.8892 127.948 73.7941C128.763 74.5634 129.457 75.452 130.006 76.4293C130.604 77.4678 130.91 78.6488 130.892 79.847C130.892 82.5921 130.085 84.6338 128.473 85.972C126.605 87.3777 124.301 88.081 121.967 87.9588C120.019 87.967 118.088 87.5927 116.284 86.8573Z" fill="white"/>
<path d="M134.824 58.4558H139.703V68.2867C140.428 67.3738 141.359 66.6469 142.421 66.1661C143.517 65.6574 144.713 65.4007 145.921 65.4146C147.508 65.3823 149.073 65.7922 150.44 66.5984C151.764 67.3872 152.835 68.5371 153.528 69.9132C154.281 71.4351 154.659 73.1153 154.63 74.8131V87.4852H149.689V74.8543C149.715 74.2177 149.61 73.5825 149.382 72.9877C149.154 72.3929 148.806 71.8511 148.361 71.3955C147.911 70.9506 147.374 70.6024 146.785 70.3723C146.195 70.1421 145.565 70.0349 144.933 70.0572C143.54 69.9985 142.182 70.4946 141.155 71.4367C140.674 71.8958 140.296 72.4515 140.046 73.0672C139.796 73.6829 139.679 74.3446 139.703 75.0087V87.4852H134.824V58.4558Z" fill="white"/>
<path d="M163.37 86.5176C161.659 85.531 160.239 84.1107 159.252 82.4C158.244 80.6698 157.721 78.6995 157.739 76.697C157.719 74.6943 158.242 72.7237 159.252 70.9941C160.231 69.2779 161.653 67.856 163.37 66.8764C165.117 65.8771 167.1 65.3618 169.114 65.3838C171.111 65.361 173.077 65.8766 174.806 66.8764C176.523 67.8548 177.946 69.277 178.924 70.9941C179.923 72.7273 180.438 74.6967 180.417 76.697C180.437 78.6971 179.921 80.6662 178.924 82.4C177.939 84.1116 176.518 85.5322 174.806 86.5176C173.081 87.5285 171.113 88.0515 169.114 88.0308C167.098 88.0516 165.114 87.5289 163.37 86.5176ZM172.325 82.4823C173.303 81.9102 174.104 81.0805 174.642 80.0838C175.209 79.0498 175.5 77.8867 175.486 76.7073C175.5 75.5285 175.202 74.3669 174.621 73.3411C174.071 72.3592 173.272 71.5392 172.305 70.9632C171.327 70.383 170.209 70.0838 169.073 70.0985C167.933 70.0893 166.813 70.388 165.83 70.9632C164.858 71.5333 164.058 72.3548 163.514 73.3411C162.944 74.3705 162.653 75.5309 162.67 76.7073C162.655 77.8867 162.946 79.0498 163.514 80.0838C164.053 81.0858 164.863 81.9167 165.85 82.4823C166.842 83.0563 167.968 83.3549 169.114 83.347C170.243 83.3532 171.352 83.0545 172.325 82.4823Z" fill="white"/>
<path d="M183.865 65.9294H188.662V68.1529C189.542 67.2653 190.592 66.565 191.75 66.0941C192.993 65.6092 194.318 65.368 195.652 65.3838C197.6 65.362 199.517 65.8785 201.19 66.8764C202.838 67.8716 204.186 69.2945 205.091 70.9941C206.039 72.7591 206.524 74.7352 206.502 76.7382C206.522 78.741 206.037 80.7165 205.091 82.4823C204.188 84.1828 202.839 85.606 201.19 86.5999C199.518 87.6024 197.601 88.1192 195.652 88.0926C194.364 88.1331 193.082 87.9102 191.884 87.4376C190.685 86.965 189.596 86.2526 188.683 85.3441V94.3102H183.844L183.865 65.9294ZM191.894 70.922C190.926 71.4924 190.129 72.314 189.588 73.3C189.015 74.3427 188.724 75.5174 188.744 76.7073C188.725 77.8938 189.016 79.0648 189.588 80.1044C190.129 81.0903 190.926 81.9119 191.894 82.4823C192.882 83.064 194.011 83.3631 195.158 83.347C196.31 83.3601 197.445 83.0613 198.441 82.4823C199.416 81.9159 200.217 81.0935 200.758 80.1044C201.333 79.0656 201.628 77.8947 201.612 76.7073C201.629 75.5165 201.334 74.3419 200.758 73.3C200.217 72.3108 199.416 71.4885 198.441 70.922C197.445 70.343 196.31 70.0442 195.158 70.0573C194.011 70.0412 192.882 70.3403 191.894 70.922Z" fill="white"/>
<path d="M210.043 65.9294H214.84V68.1529C215.72 67.2654 216.771 66.565 217.928 66.0941C219.168 65.6103 220.489 65.3691 221.82 65.3838C223.771 65.3607 225.691 65.8772 227.368 66.8765C229.016 67.8716 230.365 69.2945 231.27 70.9941C232.217 72.7591 232.702 74.7352 232.68 76.7382C232.7 78.741 232.215 80.7165 231.27 82.4823C230.366 84.1828 229.017 85.606 227.368 86.6C225.693 87.6037 223.772 88.1206 221.82 88.0926C220.534 88.1329 219.253 87.9099 218.056 87.4372C216.86 86.9646 215.772 86.2523 214.861 85.3441V94.3102H210.023L210.043 65.9294ZM218.073 70.922C217.104 71.4924 216.307 72.314 215.767 73.3C215.193 74.3427 214.902 75.5174 214.923 76.7073C214.903 77.8939 215.194 79.0648 215.767 80.1044C216.307 81.0903 217.104 81.9119 218.073 82.4823C219.061 83.064 220.189 83.3631 221.336 83.3471C222.488 83.3601 223.623 83.0613 224.62 82.4823C225.594 81.9159 226.395 81.0935 226.936 80.1044C227.508 79.0648 227.799 77.8939 227.78 76.7073C227.8 75.5174 227.509 74.3427 226.936 73.3C226.395 72.3108 225.594 71.4885 224.62 70.922C223.623 70.343 222.488 70.0442 221.336 70.0573C220.189 70.0412 219.061 70.3404 218.073 70.922Z" fill="white"/>
<path d="M236.211 58.8882H241.162V63.4073H236.211V58.8882ZM236.211 65.9294H241.09V87.4853H236.211V65.9294Z" fill="white"/>
<path d="M259.115 71.3956C258.688 70.9541 258.174 70.6069 257.605 70.3764C257.036 70.1459 256.424 70.0372 255.811 70.0573C255.141 70.0282 254.473 70.1355 253.847 70.3726C253.22 70.6098 252.649 70.9718 252.167 71.4367C251.701 71.9045 251.336 72.4629 251.096 73.0773C250.855 73.6918 250.743 74.3492 250.766 75.0088V87.4853H245.939V65.9294H250.808V68.2867C251.487 67.3755 252.382 66.6469 253.412 66.1661C254.479 65.6588 255.648 65.4018 256.83 65.4147C258.381 65.3865 259.908 65.7968 261.236 66.5985C262.531 67.3962 263.574 68.5458 264.242 69.9132C264.965 71.4428 265.318 73.1216 265.271 74.8132V87.4853H260.402V74.8544C260.43 74.2211 260.33 73.5886 260.109 72.9945C259.888 72.4003 259.55 71.8566 259.115 71.3956Z" fill="white"/>
<path d="M276.348 83.5941L274.031 86.9809H282.267C283.245 86.9186 284.226 87.0706 285.14 87.4262C286.053 87.7818 286.879 88.3324 287.558 89.0397C288.882 90.7164 289.532 92.8276 289.38 94.9588H284.624C284.624 92.7284 283.471 91.6132 281.165 91.6132H268.462V87.0838L272.271 81.4221C271.379 80.5777 270.677 79.553 270.212 78.4162C269.714 77.2126 269.465 75.9203 269.481 74.6177C269.464 72.9764 269.883 71.3599 270.696 69.9338C271.495 68.5394 272.65 67.3815 274.042 66.5779C275.45 65.7541 277.053 65.3239 278.684 65.3324C280.188 65.3171 281.672 65.6706 283.008 66.3618L285.725 62.7485L289.503 65.425L286.415 69.5426C287.368 71.0635 287.871 72.823 287.867 74.6177C287.884 76.259 287.465 77.8754 286.652 79.3015C285.853 80.6991 284.699 81.8605 283.306 82.6676C281.884 83.4926 280.266 83.9193 278.623 83.9029C277.854 83.9057 277.088 83.8017 276.348 83.5941ZM281.875 77.8912C282.307 77.4499 282.647 76.9264 282.873 76.3518C283.099 75.7772 283.208 75.163 283.193 74.5456C283.202 73.9334 283.088 73.3257 282.858 72.7582C282.628 72.1907 282.287 71.6749 281.855 71.2412C281.443 70.8009 280.944 70.4517 280.389 70.2159C279.834 69.9801 279.236 69.863 278.633 69.872C278.028 69.8594 277.428 69.9727 276.87 70.2049C276.311 70.4371 275.807 70.783 275.39 71.2206C274.958 71.6578 274.619 72.1776 274.393 72.7489C274.166 73.3202 274.057 73.9313 274.072 74.5456C274.057 75.163 274.166 75.7772 274.393 76.3518C274.619 76.9264 274.958 77.4499 275.39 77.8912C275.803 78.3364 276.305 78.6894 276.864 78.9272C277.423 79.1649 278.026 79.2819 278.633 79.2706C279.238 79.2858 279.839 79.1736 280.398 78.9413C280.956 78.709 281.46 78.3617 281.875 77.9221V77.8912Z" fill="white"/>
<path d="M116.284 86.8573V81.3808C117.215 81.8994 118.199 82.317 119.218 82.6264C120.115 82.9093 121.047 83.0619 121.987 83.0794C124.53 83.0794 125.806 81.9573 125.806 79.7338C125.802 79.3344 125.715 78.9401 125.552 78.5754C125.39 78.2107 125.154 77.8832 124.859 77.6132C123.949 76.7598 122.96 75.9946 121.905 75.3279C120.649 74.4323 119.62 73.65 118.817 72.9705C117.991 72.2623 117.294 71.4159 116.758 70.4691C116.179 69.4429 115.884 68.2809 115.903 67.1029C115.832 66.0202 116.014 64.9359 116.434 63.9355C116.854 62.935 117.5 62.0459 118.323 61.3382C120.091 59.988 122.276 59.2996 124.499 59.3926C126.093 59.4015 127.675 59.6692 129.183 60.1853V65.6103C128.476 65.1754 127.71 64.846 126.908 64.6323C126.125 64.4028 125.315 64.2816 124.499 64.272C123.62 64.2344 122.75 64.468 122.008 64.9411C121.685 65.1741 121.427 65.4853 121.258 65.8455C121.089 66.2056 121.014 66.6029 121.04 67C121.055 67.359 121.143 67.7113 121.299 68.0352C121.455 68.359 121.675 68.6478 121.946 68.8838C122.833 69.7357 123.779 70.5235 124.777 71.2411C125.877 72.0371 126.935 72.8892 127.948 73.7941C128.763 74.5634 129.457 75.452 130.006 76.4293C130.604 77.4678 130.91 78.6488 130.892 79.847C130.892 82.5921 130.085 84.6338 128.473 85.972C126.605 87.3777 124.301 88.081 121.967 87.9588C120.019 87.967 118.088 87.5927 116.284 86.8573Z" fill="white"/>
<path d="M134.824 58.4558H139.703V68.2867C140.428 67.3738 141.359 66.6469 142.421 66.1661C143.517 65.6574 144.713 65.4007 145.921 65.4146C147.508 65.3823 149.073 65.7922 150.44 66.5984C151.764 67.3872 152.835 68.5371 153.528 69.9132C154.281 71.4351 154.659 73.1153 154.63 74.8131V87.4852H149.689V74.8543C149.715 74.2177 149.61 73.5825 149.382 72.9877C149.154 72.3929 148.806 71.8511 148.361 71.3955C147.911 70.9506 147.374 70.6024 146.785 70.3723C146.195 70.1421 145.565 70.0349 144.933 70.0572C143.54 69.9985 142.182 70.4946 141.155 71.4367C140.674 71.8958 140.296 72.4515 140.046 73.0672C139.796 73.6829 139.679 74.3446 139.703 75.0087V87.4852H134.824V58.4558Z" fill="white"/>
<path d="M163.37 86.5176C161.659 85.531 160.239 84.1107 159.252 82.4C158.244 80.6698 157.721 78.6995 157.739 76.697C157.719 74.6943 158.242 72.7237 159.252 70.9941C160.231 69.2779 161.653 67.856 163.37 66.8764C165.117 65.8771 167.1 65.3618 169.114 65.3838C171.111 65.361 173.077 65.8766 174.806 66.8764C176.523 67.8548 177.946 69.277 178.924 70.9941C179.923 72.7273 180.438 74.6967 180.417 76.697C180.437 78.6971 179.921 80.6662 178.924 82.4C177.939 84.1116 176.518 85.5322 174.806 86.5176C173.081 87.5285 171.113 88.0515 169.114 88.0308C167.098 88.0516 165.114 87.5289 163.37 86.5176ZM172.325 82.4823C173.303 81.9102 174.104 81.0805 174.642 80.0838C175.209 79.0498 175.5 77.8867 175.486 76.7073C175.5 75.5285 175.202 74.3669 174.621 73.3411C174.071 72.3592 173.272 71.5392 172.305 70.9632C171.327 70.383 170.209 70.0838 169.073 70.0985C167.933 70.0893 166.813 70.388 165.83 70.9632C164.858 71.5333 164.058 72.3548 163.514 73.3411C162.944 74.3705 162.653 75.5309 162.67 76.7073C162.655 77.8867 162.946 79.0498 163.514 80.0838C164.053 81.0858 164.863 81.9167 165.85 82.4823C166.842 83.0563 167.968 83.3549 169.114 83.347C170.243 83.3532 171.352 83.0545 172.325 82.4823Z" fill="white"/>
<path d="M183.865 65.9294H188.662V68.1529C189.542 67.2653 190.592 66.565 191.75 66.0941C192.993 65.6092 194.318 65.368 195.652 65.3838C197.6 65.362 199.517 65.8785 201.19 66.8764C202.838 67.8716 204.186 69.2945 205.091 70.9941C206.039 72.7591 206.524 74.7352 206.502 76.7382C206.522 78.741 206.037 80.7165 205.091 82.4823C204.188 84.1828 202.839 85.606 201.19 86.5999C199.518 87.6024 197.601 88.1192 195.652 88.0926C194.364 88.1331 193.082 87.9102 191.884 87.4376C190.685 86.965 189.596 86.2526 188.683 85.3441V94.3102H183.844L183.865 65.9294ZM191.894 70.922C190.926 71.4924 190.129 72.314 189.588 73.3C189.015 74.3427 188.724 75.5174 188.744 76.7073C188.725 77.8938 189.016 79.0648 189.588 80.1044C190.129 81.0903 190.926 81.9119 191.894 82.4823C192.882 83.064 194.011 83.3631 195.158 83.347C196.31 83.3601 197.445 83.0613 198.441 82.4823C199.416 81.9159 200.217 81.0935 200.758 80.1044C201.333 79.0656 201.628 77.8947 201.612 76.7073C201.629 75.5165 201.334 74.3419 200.758 73.3C200.217 72.3108 199.416 71.4885 198.441 70.922C197.445 70.343 196.31 70.0442 195.158 70.0573C194.011 70.0412 192.882 70.3403 191.894 70.922Z" fill="white"/>
<path d="M210.043 65.9294H214.84V68.1529C215.72 67.2654 216.771 66.565 217.928 66.0941C219.168 65.6103 220.489 65.3691 221.82 65.3838C223.771 65.3607 225.691 65.8772 227.368 66.8765C229.016 67.8716 230.365 69.2945 231.27 70.9941C232.217 72.7591 232.702 74.7352 232.68 76.7382C232.7 78.741 232.215 80.7165 231.27 82.4823C230.366 84.1828 229.017 85.606 227.368 86.6C225.693 87.6037 223.772 88.1206 221.82 88.0926C220.534 88.1329 219.253 87.9099 218.056 87.4372C216.86 86.9646 215.772 86.2523 214.861 85.3441V94.3102H210.023L210.043 65.9294ZM218.073 70.922C217.104 71.4924 216.307 72.314 215.767 73.3C215.193 74.3427 214.902 75.5174 214.923 76.7073C214.903 77.8939 215.194 79.0648 215.767 80.1044C216.307 81.0903 217.104 81.9119 218.073 82.4823C219.061 83.064 220.189 83.3631 221.336 83.3471C222.488 83.3601 223.623 83.0613 224.62 82.4823C225.594 81.9159 226.395 81.0935 226.936 80.1044C227.508 79.0648 227.799 77.8939 227.78 76.7073C227.8 75.5174 227.509 74.3427 226.936 73.3C226.395 72.3108 225.594 71.4885 224.62 70.922C223.623 70.343 222.488 70.0442 221.336 70.0573C220.189 70.0412 219.061 70.3404 218.073 70.922Z" fill="white"/>
<path d="M236.211 58.8882H241.162V63.4073H236.211V58.8882ZM236.211 65.9294H241.09V87.4853H236.211V65.9294Z" fill="white"/>
<path d="M259.115 71.3956C258.688 70.9541 258.174 70.6069 257.605 70.3764C257.036 70.1459 256.424 70.0372 255.811 70.0573C255.141 70.0282 254.473 70.1355 253.847 70.3726C253.22 70.6098 252.649 70.9718 252.167 71.4367C251.701 71.9045 251.336 72.4629 251.096 73.0773C250.855 73.6918 250.743 74.3492 250.766 75.0088V87.4853H245.939V65.9294H250.808V68.2867C251.487 67.3755 252.382 66.6469 253.412 66.1661C254.479 65.6588 255.648 65.4018 256.83 65.4147C258.381 65.3865 259.908 65.7968 261.236 66.5985C262.531 67.3962 263.574 68.5458 264.242 69.9132C264.965 71.4428 265.318 73.1216 265.271 74.8132V87.4853H260.402V74.8544C260.43 74.2211 260.33 73.5886 260.109 72.9945C259.888 72.4003 259.55 71.8566 259.115 71.3956Z" fill="white"/>
<path d="M276.348 83.5941L274.031 86.9809H282.267C283.245 86.9186 284.226 87.0706 285.14 87.4262C286.053 87.7818 286.879 88.3324 287.558 89.0397C288.882 90.7164 289.532 92.8276 289.38 94.9588H284.624C284.624 92.7284 283.471 91.6132 281.165 91.6132H268.462V87.0838L272.271 81.4221C271.379 80.5777 270.677 79.553 270.212 78.4162C269.714 77.2126 269.465 75.9203 269.481 74.6177C269.464 72.9764 269.883 71.3599 270.696 69.9338C271.495 68.5394 272.65 67.3815 274.042 66.5779C275.45 65.7541 277.053 65.3239 278.684 65.3324C280.188 65.3171 281.672 65.6706 283.008 66.3618L285.725 62.7485L289.503 65.425L286.415 69.5426C287.368 71.0635 287.871 72.823 287.867 74.6177C287.884 76.259 287.465 77.8754 286.652 79.3015C285.853 80.6991 284.699 81.8605 283.306 82.6676C281.884 83.4926 280.266 83.9193 278.623 83.9029C277.854 83.9057 277.088 83.8017 276.348 83.5941ZM281.875 77.8912C282.307 77.4499 282.647 76.9264 282.873 76.3518C283.099 75.7772 283.208 75.163 283.193 74.5456C283.202 73.9334 283.088 73.3257 282.858 72.7582C282.628 72.1907 282.287 71.6749 281.855 71.2412C281.443 70.8009 280.944 70.4517 280.389 70.2159C279.834 69.9801 279.236 69.863 278.633 69.872C278.028 69.8594 277.428 69.9727 276.87 70.2049C276.311 70.4371 275.807 70.783 275.39 71.2206C274.958 71.6578 274.619 72.1776 274.393 72.7489C274.166 73.3202 274.057 73.9313 274.072 74.5456C274.057 75.163 274.166 75.7772 274.393 76.3518C274.619 76.9264 274.958 77.4499 275.39 77.8912C275.803 78.3364 276.305 78.6894 276.864 78.9272C277.423 79.1649 278.026 79.2819 278.633 79.2706C279.238 79.2858 279.839 79.1736 280.398 78.9413C280.956 78.709 281.46 78.3617 281.875 77.9221V77.8912Z" fill="white"/>
<path d="M126.764 46.9471L122.152 39.5457H120.021V46.9471H117.025V28.4177H123.562C125.307 28.2909 127.034 28.8442 128.38 29.9619C128.931 30.4919 129.363 31.1332 129.647 31.8432C129.931 32.5532 130.06 33.3156 130.027 34.0795C130.078 35.3812 129.641 36.655 128.802 37.6515C127.869 38.6386 126.62 39.2685 125.271 39.4324L130.13 46.9677L126.764 46.9471ZM120.021 37.4148H123.325C125.741 37.4148 126.949 36.3476 126.949 34.2133C126.975 33.778 126.911 33.342 126.76 32.9328C126.61 32.5235 126.376 32.1499 126.074 31.8353C125.303 31.2049 124.318 30.8986 123.325 30.981H120.021V37.4148Z" fill="white"/>
<path d="M135.719 28.4177V46.9471H132.703V28.4177H135.719Z" fill="white"/>
<path d="M153.291 29.8795C154.76 30.9645 155.793 32.5377 156.205 34.3162H153.055C152.663 33.3291 151.967 32.4925 151.068 31.928C150.091 31.318 148.956 31.01 147.805 31.0427C146.72 31.0278 145.653 31.309 144.716 31.8559C143.796 32.4089 143.056 33.2171 142.586 34.1824C142.046 35.276 141.777 36.4836 141.803 37.703C141.77 38.9638 142.042 40.2139 142.596 41.3471C143.086 42.3256 143.856 43.1356 144.809 43.6736C145.833 44.2256 146.982 44.5023 148.144 44.4765C149.597 44.5057 151.009 43.996 152.108 43.0456C153.242 42.0308 153.954 40.6277 154.105 39.1133H147.3V36.9104H156.627V39.7721C156.426 41.1052 155.926 42.3755 155.165 43.4883C154.391 44.6083 153.355 45.5234 152.149 46.1545C150.824 46.8443 149.35 47.1978 147.856 47.1839C146.183 47.2177 144.533 46.7979 143.08 45.9692C141.714 45.1831 140.603 44.022 139.878 42.6236C139.103 41.1121 138.714 39.4323 138.746 37.7339C138.715 36.0324 139.104 34.3495 139.878 32.8339C140.602 31.4406 141.709 30.2834 143.069 29.4986C144.52 28.6835 146.162 28.2712 147.825 28.3044C149.769 28.2289 151.686 28.7812 153.291 29.8795Z" fill="white"/>
<path d="M174.353 28.4177V46.9471H171.337V38.6192H162.628V46.9471H159.633V28.4177H162.628V36.1795H171.337V28.4177H174.353Z" fill="white"/>
<path d="M189.898 28.4177V30.8265H184.75V46.9471H181.724V30.8265H176.577V28.4177H189.898Z" fill="white"/>
<path d="M58.4209 18C47.2818 18 36.5989 22.425 28.7224 30.3015C20.8459 38.178 16.4209 48.8609 16.4209 60C16.4209 71.1391 20.8459 81.8219 28.7224 89.6984C36.5989 97.575 47.2818 102 58.4209 102C69.56 102 80.2428 97.575 88.1194 89.6984C95.9959 81.8219 100.421 71.1391 100.421 60C100.421 48.8609 95.9959 38.178 88.1194 30.3015C80.2428 22.425 69.56 18 58.4209 18Z" fill="url(#paint0_radial_18_536)"/>
<path d="M58.421 18.0103C52.906 18.0103 47.4449 19.0967 42.3498 21.2076C37.2548 23.3184 32.6254 26.4122 28.7262 30.3124C24.8269 34.2126 21.7342 38.8428 19.6246 43.9384C17.5151 49.034 16.4299 54.4953 16.4313 60.0103C16.4313 71.1467 20.8552 81.8269 28.7298 89.7015C36.6044 97.5761 47.2847 102 58.421 102C63.9361 102.001 69.3973 100.916 74.4929 98.8066C79.5885 96.6971 84.2186 93.6043 88.1188 89.7051C92.019 85.8059 95.1129 81.1765 97.2238 76.0814C99.3346 70.9863 100.421 65.5253 100.421 60.0103C100.422 54.4944 99.3369 49.0323 97.2267 43.936C95.1165 38.8397 92.0228 34.2091 88.1225 30.3088C84.2221 26.4085 79.5916 23.3148 74.4953 21.2046C69.399 19.0944 63.9369 18.0089 58.421 18.0103ZM58.421 95.0103C49.1384 95.0103 40.236 91.3228 33.6722 84.759C27.1085 78.1953 23.421 69.2929 23.421 60.0103C23.4129 53.2305 25.3881 46.5963 29.1033 40.925L29.1651 40.997L32.6857 45.1147C33.1986 45.6925 33.9186 46.0446 34.6895 46.0947C35.4604 46.1448 36.22 45.8889 36.8034 45.3823C37.3826 44.8709 37.7367 44.1516 37.7887 43.3806C37.8408 42.6097 37.5865 41.8493 37.0813 41.2647L33.5607 37.147C33.2767 36.8293 32.9249 36.5795 32.5313 36.4161C35.8039 32.8201 39.792 29.9478 44.2398 27.9836C48.6877 26.0194 53.497 25.0067 58.3593 25.0103C67.6418 25.0103 76.5442 28.6977 83.108 35.2615C89.6718 41.8253 93.3593 50.7277 93.3593 60.0103C93.3593 69.2822 89.6802 78.1752 83.1298 84.7372C76.5794 91.2992 67.6929 94.9939 58.421 95.0103Z" fill="url(#paint1_linear_18_536)"/>
<path d="M35.5165 48.6455H80.9959C81.3816 48.6469 81.7637 48.5719 82.1202 48.425C82.4768 48.278 82.8008 48.0619 83.0735 47.7892C83.3462 47.5165 83.5622 47.1926 83.7092 46.836C83.8562 46.4795 83.9311 46.0973 83.9297 45.7117C83.9297 44.9336 83.6207 44.1874 83.0705 43.6372C82.5203 43.087 81.774 42.7778 80.9959 42.7778H35.5165C34.7393 42.7805 33.9946 43.0906 33.445 43.6402C32.8953 44.1898 32.5854 44.9344 32.5827 45.7117C32.5827 46.4898 32.8918 47.236 33.442 47.7862C33.9922 48.3364 34.7384 48.6455 35.5165 48.6455Z" fill="url(#paint2_linear_18_536)"/>
<path d="M44.7607 66.2793H74.5415C74.9277 66.2793 75.31 66.2031 75.6666 66.055C76.0233 65.9069 76.3471 65.6899 76.6197 65.4164C76.8923 65.1429 77.1082 64.8182 77.255 64.4611C77.4018 64.1039 77.4767 63.7214 77.4753 63.3352C77.4753 62.5571 77.1663 61.8109 76.6161 61.2607C76.0659 60.7105 75.3196 60.4014 74.5415 60.4014H44.7607C43.9826 60.4014 43.2363 60.7105 42.6861 61.2607C42.1359 61.8109 41.8268 62.5571 41.8268 63.3352C41.8254 63.7214 41.9004 64.1039 42.0472 64.4611C42.194 64.8182 42.4099 65.1429 42.6825 65.4164C42.9551 65.6899 43.2789 65.9069 43.6356 66.055C43.9922 66.2031 44.3745 66.2793 44.7607 66.2793Z" fill="url(#paint3_linear_18_536)"/>
<path d="M40.5092 57.2102H77.8666C78.6447 57.2102 79.3909 56.9011 79.9411 56.3509C80.4913 55.8007 80.8004 55.0545 80.8004 54.2764C80.8004 53.4983 80.4913 52.7521 79.9411 52.2019C79.3909 51.6517 78.6447 51.3425 77.8666 51.3425H40.5092C39.732 51.3452 38.9873 51.6552 38.4377 52.2048C37.8881 52.7544 37.5782 53.4991 37.5754 54.2764C37.5782 55.0537 37.8881 55.7983 38.4377 56.3479C38.9873 56.8975 39.732 57.2075 40.5092 57.2102Z" fill="url(#paint4_linear_18_536)"/>
<path d="M51.7401 77.222C54.3326 77.222 56.4342 75.1203 56.4342 72.5279C56.4342 69.9354 54.3326 67.8337 51.7401 67.8337C49.1476 67.8337 47.046 69.9354 47.046 72.5279C47.046 75.1203 49.1476 77.222 51.7401 77.222Z" fill="white"/>
<path d="M68.0667 77.222C70.6592 77.222 72.7608 75.1203 72.7608 72.5279C72.7608 69.9354 70.6592 67.8337 68.0667 67.8337C65.4742 67.8337 63.3726 69.9354 63.3726 72.5279C63.3726 75.1203 65.4742 77.222 68.0667 77.222Z" fill="white"/>
</g>
<defs>
<radialGradient id="paint0_radial_18_536" cx="0" cy="0" r="1" gradientUnits="userSpaceOnUse" gradientTransform="translate(80.6747 29.6764) scale(90.6515 90.6514)">
<stop offset="0.15" stop-color="#353530"/>
<stop offset="0.18" stop-color="#33332E"/>
<stop offset="0.21" stop-color="#31312C"/>
<stop offset="0.7" stop-color="#11110F"/>
<stop offset="1"/>
</radialGradient>
<linearGradient id="paint1_linear_18_536" x1="16.4313" y1="60" x2="100.421" y2="60" gradientUnits="userSpaceOnUse">
<stop stop-color="#A90004"/>
<stop offset="0.5" stop-color="#D40076"/>
<stop offset="1" stop-color="#E900DD"/>
</linearGradient>
<linearGradient id="paint2_linear_18_536" x1="32.5827" y1="45.7117" x2="83.9297" y2="45.7117" gradientUnits="userSpaceOnUse">
<stop stop-color="#A90004"/>
<stop offset="0.5" stop-color="#D40076"/>
<stop offset="1" stop-color="#E900DD"/>
</linearGradient>
<linearGradient id="paint3_linear_18_536" x1="41.8268" y1="63.3352" x2="77.4753" y2="63.3352" gradientUnits="userSpaceOnUse">
<stop stop-color="#A90004"/>
<stop offset="0.5" stop-color="#D40076"/>
<stop offset="1" stop-color="#E900DD"/>
</linearGradient>
<linearGradient id="paint4_linear_18_536" x1="37.5754" y1="54.2764" x2="80.8004" y2="54.2764" gradientUnits="userSpaceOnUse">
<stop stop-color="#A90004"/>
<stop offset="0.5" stop-color="#D40076"/>
<stop offset="1" stop-color="#E900DD"/>
</linearGradient>
<clipPath id="clip0_18_536">
<rect width="273.031" height="84" fill="white" transform="translate(16.4209 18)"/>
</clipPath>
</defs>
</svg>
