<svg width="362" height="120" viewBox="0 0 362 120" fill="none" xmlns="http://www.w3.org/2000/svg">
<g clip-path="url(#clip0_18_398)">
<path d="M124.381 59.6848H134.368C136.049 59.65 137.712 60.0341 139.207 60.8024C140.572 61.4947 141.713 62.558 142.501 63.8699C143.299 65.1838 143.711 66.6961 143.69 68.2334C143.709 69.6428 143.348 71.0312 142.643 72.2521C141.975 73.4094 140.999 74.3598 139.825 74.9986C141.428 75.3838 142.843 76.3229 143.82 77.6499C144.84 79.0716 145.366 80.7879 145.318 82.5366C145.334 84.1446 144.924 85.728 144.129 87.126C143.368 88.4777 142.244 89.5896 140.884 90.3362C139.427 91.1341 137.789 91.5435 136.128 91.5252H124.369L124.381 59.6848ZM133.643 72.8585C134.176 72.8799 134.708 72.7952 135.208 72.6095C135.708 72.4238 136.166 72.1406 136.556 71.7765C136.932 71.4126 137.226 70.9736 137.421 70.488C137.616 70.0025 137.706 69.4813 137.685 68.9587C137.704 68.4432 137.613 67.9297 137.418 67.4521C137.224 66.9745 136.93 66.5437 136.556 66.1884C136.168 65.8205 135.711 65.5341 135.21 65.3462C134.71 65.1583 134.177 65.0727 133.643 65.0945H130.195V72.8585H133.643ZM135.462 86.0797C135.985 86.0861 136.503 85.9837 136.984 85.7791C137.465 85.5744 137.898 85.2719 138.256 84.8907C138.626 84.5134 138.916 84.065 139.108 83.5725C139.3 83.08 139.391 82.5537 139.374 82.0254C139.391 81.4782 139.295 80.9333 139.09 80.4256C138.885 79.9179 138.577 79.4585 138.185 79.0767C137.803 78.6902 137.348 78.3855 136.845 78.1811C136.342 77.9767 135.803 77.8768 135.26 77.8878H130.171V85.9727L135.462 86.0797Z" fill="white"/>
<path d="M149.92 57.9609H155.555V91.4896H149.92V57.9609Z" fill="white"/>
<path d="M166.185 90.372C164.207 89.2347 162.566 87.5937 161.429 85.6162C160.264 83.6178 159.66 81.3422 159.681 79.0293C159.66 76.7165 160.264 74.4409 161.429 72.4425C162.557 70.4579 164.2 68.8147 166.185 67.6867C168.199 66.5303 170.485 65.9311 172.807 65.9508C175.115 65.9286 177.386 66.5283 179.382 67.6867C181.366 68.8152 183.01 70.4582 184.138 72.4425C185.29 74.445 185.885 76.7192 185.862 79.0293C185.885 81.3394 185.29 83.6137 184.138 85.6162C183 87.593 181.359 89.2338 179.382 90.372C177.389 91.5395 175.117 92.1437 172.807 92.1198C170.483 92.144 168.195 91.5401 166.185 90.372ZM176.517 85.7232C177.646 85.0625 178.571 84.1041 179.192 82.9529C179.851 81.7553 180.191 80.4082 180.179 79.0412C180.192 77.6787 179.843 76.3371 179.168 75.1533C178.533 74.0192 177.61 73.0721 176.493 72.4068C175.368 71.7389 174.08 71.3933 172.772 71.4081C171.452 71.3959 170.154 71.741 169.014 72.4068C167.892 73.0653 166.968 74.0141 166.339 75.1533C165.681 76.3422 165.345 77.6825 165.364 79.0412C165.348 80.4072 165.684 81.7544 166.339 82.9529C166.969 84.1054 167.903 85.0635 169.038 85.7232C170.183 86.3862 171.484 86.731 172.807 86.7219C174.111 86.7308 175.393 86.3857 176.517 85.7232Z" fill="white"/>
<path d="M194.958 90.3718C192.982 89.2323 191.341 87.5918 190.202 85.616C189.037 83.6176 188.433 81.3421 188.454 79.0292C188.433 76.7163 189.037 74.4407 190.202 72.4424C191.341 70.4665 192.982 68.8261 194.958 67.6865C196.971 66.5169 199.263 65.913 201.592 65.9387C202.887 65.922 204.177 66.1188 205.409 66.5213V72.4661C204.292 71.6797 202.957 71.2638 201.592 71.2771C200.269 71.2681 198.968 71.6129 197.823 72.2759C196.684 72.929 195.743 73.8781 195.1 75.0224C194.429 76.2071 194.084 77.5487 194.102 78.9102C194.084 80.2718 194.429 81.6134 195.1 82.7982C195.743 83.9425 196.684 84.8915 197.823 85.5447C198.968 86.2077 200.269 86.5525 201.592 86.5434C202.956 86.5497 204.289 86.1344 205.409 85.3545V91.3587C204.177 91.7612 202.887 91.958 201.592 91.9413C199.28 92.0214 196.989 91.4793 194.958 90.3718Z" fill="white"/>
<path d="M215.919 80.2183V91.4896H210.283V57.9609H215.919V77.769L224.147 66.5928H230.959L221.65 78.9936L230.959 91.4896H224.194L215.919 80.2183Z" fill="white"/>
<path d="M238.093 90.3718C236.117 89.2322 234.477 87.5918 233.337 85.616C232.168 83.6188 231.56 81.3432 231.578 79.0292C231.554 76.7031 232.162 74.4142 233.337 72.4067C234.477 70.4308 236.117 68.7904 238.093 67.6508C240.107 66.4812 242.399 65.8773 244.727 65.9031C246.023 65.8863 247.312 66.0832 248.544 66.4857V72.4305C247.428 71.644 246.093 71.2281 244.727 71.2415C243.404 71.2295 242.102 71.5745 240.958 72.2402C239.816 72.893 238.872 73.8419 238.224 74.9867C237.553 76.1714 237.208 77.5131 237.225 78.8746C237.208 80.2361 237.553 81.5778 238.224 82.7625C238.872 83.9073 239.816 84.8562 240.958 85.509C242.102 86.1747 243.404 86.5197 244.727 86.5077C246.092 86.5124 247.424 86.0973 248.544 85.3187V91.323C247.312 91.7255 246.023 91.9224 244.727 91.9056C242.419 91.9966 240.128 91.4669 238.093 90.3718Z" fill="white"/>
<path d="M253.383 57.9609H259.019V69.3156C259.854 68.2643 260.925 67.4251 262.146 66.8663C263.414 66.287 264.794 65.9908 266.188 65.9983C268.024 65.9668 269.834 66.4398 271.42 67.3656C272.949 68.2814 274.186 69.6133 274.986 71.206C275.858 72.9633 276.294 74.9043 276.259 76.8654V91.4896H270.552V76.9011C270.58 76.165 270.458 75.4308 270.192 74.7437C269.926 74.0567 269.523 73.4313 269.006 72.9062C268.488 72.3938 267.87 71.9925 267.192 71.7267C266.513 71.461 265.787 71.3364 265.059 71.3605C263.451 71.294 261.882 71.8668 260.695 72.9538C260.139 73.4854 259.701 74.1291 259.412 74.8424C259.123 75.5557 258.989 76.3223 259.019 77.0913V91.4896H253.383V57.9609Z" fill="white"/>
<path d="M300.573 88.9453C299.56 89.9746 298.346 90.784 297.006 91.3232C295.57 91.8792 294.04 92.1537 292.5 92.1318C290.249 92.1625 288.034 91.5655 286.103 90.4078C284.196 89.2626 282.638 87.6181 281.597 85.6519C280.503 83.6133 279.943 81.331 279.968 79.0175C279.943 76.704 280.503 74.4217 281.597 72.3831C282.641 70.419 284.198 68.7753 286.103 67.6273C288.034 66.4695 290.249 65.8726 292.5 65.9033C294.04 65.8814 295.57 66.1558 297.006 66.7118C298.346 67.251 299.56 68.0605 300.573 69.0897V66.5453H306.161V91.4422H300.573V88.9453ZM296.851 85.7233C297.967 85.0608 298.887 84.1127 299.515 82.9768C300.169 81.769 300.504 80.4146 300.49 79.0413C300.504 77.668 300.169 76.3136 299.515 75.1059C298.887 73.9699 297.967 73.0218 296.851 72.3594C295.71 71.6875 294.406 71.342 293.082 71.3606C291.751 71.3437 290.44 71.689 289.29 72.3594C288.16 73.0119 287.23 73.9618 286.603 75.1059C285.949 76.3136 285.613 77.668 285.628 79.0413C285.613 80.4146 285.949 81.769 286.603 82.9768C287.23 84.1208 288.16 85.0707 289.29 85.7233C290.44 86.3937 291.751 86.7388 293.082 86.7219C294.406 86.7405 295.71 86.3951 296.851 85.7233Z" fill="white"/>
<path d="M311.606 58.4602H317.337V63.6797H311.606V58.4602ZM311.606 66.5926H317.242V91.4895H311.606V66.5926Z" fill="white"/>
<path d="M338.061 72.906C337.567 72.3979 336.972 71.9981 336.315 71.732C335.658 71.4659 334.953 71.3393 334.244 71.3604C333.473 71.3291 332.704 71.4541 331.983 71.7279C331.262 72.0017 330.603 72.4187 330.047 72.9536C329.506 73.494 329.083 74.1406 328.805 74.8528C328.526 75.565 328.399 76.3272 328.43 77.0912V91.4894H322.794V66.5926H328.454V69.3154C329.232 68.2609 330.262 67.4188 331.45 66.8661C332.689 66.2858 334.041 65.9892 335.409 65.9981C337.2 65.9714 338.962 66.4449 340.498 67.3655C341.978 68.2999 343.161 69.636 343.91 71.2177C344.768 72.9789 345.196 74.9185 345.159 76.8772V91.5013H339.523V76.9128C339.558 76.1813 339.446 75.4503 339.195 74.7624C338.944 74.0744 338.558 73.4434 338.061 72.906Z" fill="white"/>
<path d="M124.381 59.6848H134.368C136.049 59.65 137.712 60.0341 139.207 60.8024C140.572 61.4947 141.713 62.558 142.501 63.8699C143.299 65.1838 143.711 66.6961 143.69 68.2334C143.709 69.6428 143.348 71.0312 142.643 72.2521C141.975 73.4094 140.999 74.3598 139.825 74.9986C141.428 75.3838 142.843 76.3229 143.82 77.6499C144.84 79.0716 145.366 80.7879 145.318 82.5366C145.334 84.1446 144.924 85.728 144.129 87.126C143.368 88.4777 142.244 89.5896 140.884 90.3362C139.427 91.1341 137.789 91.5435 136.128 91.5252H124.369L124.381 59.6848ZM133.643 72.8585C134.176 72.8799 134.708 72.7952 135.208 72.6095C135.708 72.4238 136.166 72.1406 136.556 71.7765C136.932 71.4126 137.226 70.9736 137.421 70.488C137.616 70.0025 137.706 69.4813 137.685 68.9587C137.704 68.4432 137.613 67.9297 137.418 67.4521C137.224 66.9745 136.93 66.5437 136.556 66.1884C136.168 65.8205 135.711 65.5341 135.21 65.3462C134.71 65.1583 134.177 65.0727 133.643 65.0945H130.195V72.8585H133.643ZM135.462 86.0797C135.985 86.0861 136.503 85.9837 136.984 85.7791C137.465 85.5744 137.898 85.2719 138.256 84.8907C138.626 84.5134 138.916 84.065 139.108 83.5725C139.3 83.08 139.391 82.5537 139.374 82.0254C139.391 81.4782 139.295 80.9333 139.09 80.4256C138.885 79.9179 138.577 79.4585 138.185 79.0767C137.803 78.6902 137.348 78.3855 136.845 78.1811C136.342 77.9767 135.803 77.8768 135.26 77.8878H130.171V85.9727L135.462 86.0797Z" fill="white"/>
<path d="M149.92 57.9609H155.555V91.4896H149.92V57.9609Z" fill="white"/>
<path d="M166.185 90.372C164.207 89.2347 162.566 87.5937 161.429 85.6162C160.264 83.6178 159.66 81.3422 159.681 79.0293C159.66 76.7165 160.264 74.4409 161.429 72.4425C162.557 70.4579 164.2 68.8147 166.185 67.6867C168.199 66.5303 170.485 65.9311 172.807 65.9508C175.115 65.9286 177.386 66.5283 179.382 67.6867C181.366 68.8152 183.01 70.4582 184.138 72.4425C185.29 74.445 185.885 76.7192 185.862 79.0293C185.885 81.3394 185.29 83.6137 184.138 85.6162C183 87.593 181.359 89.2338 179.382 90.372C177.389 91.5395 175.117 92.1437 172.807 92.1198C170.483 92.144 168.195 91.5401 166.185 90.372ZM176.517 85.7232C177.646 85.0625 178.571 84.1041 179.192 82.9529C179.851 81.7553 180.191 80.4082 180.179 79.0412C180.192 77.6787 179.843 76.3371 179.168 75.1533C178.533 74.0192 177.61 73.0721 176.493 72.4068C175.368 71.7389 174.08 71.3933 172.772 71.4081C171.452 71.3959 170.154 71.741 169.014 72.4068C167.892 73.0653 166.968 74.0141 166.339 75.1533C165.681 76.3422 165.345 77.6825 165.364 79.0412C165.348 80.4072 165.684 81.7544 166.339 82.9529C166.969 84.1054 167.903 85.0635 169.038 85.7232C170.183 86.3862 171.484 86.731 172.807 86.7219C174.111 86.7308 175.393 86.3857 176.517 85.7232Z" fill="white"/>
<path d="M194.958 90.3718C192.982 89.2323 191.341 87.5918 190.202 85.616C189.037 83.6176 188.433 81.3421 188.454 79.0292C188.433 76.7163 189.037 74.4407 190.202 72.4424C191.341 70.4665 192.982 68.8261 194.958 67.6865C196.971 66.5169 199.263 65.913 201.592 65.9387C202.887 65.922 204.177 66.1188 205.409 66.5213V72.4661C204.292 71.6797 202.957 71.2638 201.592 71.2771C200.269 71.2681 198.968 71.6129 197.823 72.2759C196.684 72.929 195.743 73.8781 195.1 75.0224C194.429 76.2071 194.084 77.5487 194.102 78.9102C194.084 80.2718 194.429 81.6134 195.1 82.7982C195.743 83.9425 196.684 84.8915 197.823 85.5447C198.968 86.2077 200.269 86.5525 201.592 86.5434C202.956 86.5497 204.289 86.1344 205.409 85.3545V91.3587C204.177 91.7612 202.887 91.958 201.592 91.9413C199.28 92.0214 196.989 91.4793 194.958 90.3718Z" fill="white"/>
<path d="M215.919 80.2183V91.4896H210.283V57.9609H215.919V77.769L224.147 66.5928H230.959L221.65 78.9936L230.959 91.4896H224.194L215.919 80.2183Z" fill="white"/>
<path d="M238.093 90.3718C236.117 89.2322 234.477 87.5918 233.337 85.616C232.168 83.6188 231.56 81.3432 231.578 79.0292C231.554 76.7031 232.162 74.4142 233.337 72.4067C234.477 70.4308 236.117 68.7904 238.093 67.6508C240.107 66.4812 242.399 65.8773 244.727 65.9031C246.023 65.8863 247.312 66.0832 248.544 66.4857V72.4305C247.428 71.644 246.093 71.2281 244.727 71.2415C243.404 71.2295 242.102 71.5745 240.958 72.2402C239.816 72.893 238.872 73.8419 238.224 74.9867C237.553 76.1714 237.208 77.5131 237.225 78.8746C237.208 80.2361 237.553 81.5778 238.224 82.7625C238.872 83.9073 239.816 84.8562 240.958 85.509C242.102 86.1747 243.404 86.5197 244.727 86.5077C246.092 86.5124 247.424 86.0973 248.544 85.3187V91.323C247.312 91.7255 246.023 91.9224 244.727 91.9056C242.419 91.9966 240.128 91.4669 238.093 90.3718Z" fill="white"/>
<path d="M253.383 57.9609H259.019V69.3156C259.854 68.2643 260.925 67.4251 262.146 66.8663C263.414 66.287 264.794 65.9908 266.188 65.9983C268.024 65.9668 269.834 66.4398 271.42 67.3656C272.949 68.2814 274.186 69.6133 274.986 71.206C275.858 72.9633 276.294 74.9043 276.259 76.8654V91.4896H270.552V76.9011C270.58 76.165 270.458 75.4308 270.192 74.7437C269.926 74.0567 269.523 73.4313 269.006 72.9062C268.488 72.3938 267.87 71.9925 267.192 71.7267C266.513 71.461 265.787 71.3364 265.059 71.3605C263.451 71.294 261.882 71.8668 260.695 72.9538C260.139 73.4854 259.701 74.1291 259.412 74.8424C259.123 75.5557 258.989 76.3223 259.019 77.0913V91.4896H253.383V57.9609Z" fill="white"/>
<path d="M300.573 88.9453C299.56 89.9746 298.346 90.784 297.006 91.3232C295.57 91.8792 294.04 92.1537 292.5 92.1318C290.249 92.1625 288.034 91.5655 286.103 90.4078C284.196 89.2626 282.638 87.6181 281.597 85.6519C280.503 83.6133 279.943 81.331 279.968 79.0175C279.943 76.704 280.503 74.4217 281.597 72.3831C282.641 70.419 284.198 68.7753 286.103 67.6273C288.034 66.4695 290.249 65.8726 292.5 65.9033C294.04 65.8814 295.57 66.1558 297.006 66.7118C298.346 67.251 299.56 68.0605 300.573 69.0897V66.5453H306.161V91.4422H300.573V88.9453ZM296.851 85.7233C297.967 85.0608 298.887 84.1127 299.515 82.9768C300.169 81.769 300.504 80.4146 300.49 79.0413C300.504 77.668 300.169 76.3136 299.515 75.1059C298.887 73.9699 297.967 73.0218 296.851 72.3594C295.71 71.6875 294.406 71.342 293.082 71.3606C291.751 71.3437 290.44 71.689 289.29 72.3594C288.16 73.0119 287.23 73.9618 286.603 75.1059C285.949 76.3136 285.613 77.668 285.628 79.0413C285.613 80.4146 285.949 81.769 286.603 82.9768C287.23 84.1208 288.16 85.0707 289.29 85.7233C290.44 86.3937 291.751 86.7388 293.082 86.7219C294.406 86.7405 295.71 86.3951 296.851 85.7233Z" fill="white"/>
<path d="M311.606 58.4602H317.337V63.6797H311.606V58.4602ZM311.606 66.5926H317.242V91.4895H311.606V66.5926Z" fill="white"/>
<path d="M338.061 72.906C337.567 72.3979 336.972 71.9981 336.315 71.732C335.658 71.4659 334.953 71.3393 334.244 71.3604C333.473 71.3291 332.704 71.4541 331.983 71.7279C331.262 72.0017 330.603 72.4187 330.047 72.9536C329.506 73.494 329.083 74.1406 328.805 74.8528C328.526 75.565 328.399 76.3272 328.43 77.0912V91.4894H322.794V66.5926H328.454V69.3154C329.232 68.2609 330.262 67.4188 331.45 66.8661C332.689 66.2858 334.041 65.9892 335.409 65.9981C337.2 65.9714 338.962 66.4449 340.498 67.3655C341.978 68.2999 343.161 69.636 343.91 71.2177C344.768 72.9789 345.196 74.9185 345.159 76.8772V91.5013H339.523V76.9128C339.558 76.1813 339.446 75.4503 339.195 74.7624C338.944 74.0744 338.558 73.4434 338.061 72.906Z" fill="white"/>
<path d="M136.08 44.3116L130.742 35.7629H128.293V44.3116H124.833V22.9103H132.383C134.398 22.7675 136.39 23.4062 137.947 24.6937C138.581 25.3069 139.078 26.0482 139.404 26.8682C139.73 27.6881 139.878 28.5681 139.837 29.4496C139.901 30.9516 139.4 32.4231 138.434 33.5753C137.356 34.7146 135.914 35.442 134.356 35.6322L139.956 44.3354L136.08 44.3116ZM128.293 33.3137H132.109C134.891 33.3137 136.294 32.1247 136.294 29.616C136.324 29.1124 136.248 28.6081 136.072 28.1353C135.896 27.6625 135.623 27.2314 135.272 26.8695C134.386 26.141 133.252 25.7869 132.109 25.8827H128.293V33.3137Z" fill="white"/>
<path d="M146.412 22.9104V44.3117H142.976V22.9104H146.412Z" fill="white"/>
<path d="M166.755 24.6105C168.457 25.8603 169.655 27.6782 170.132 29.7349H166.494C166.031 28.6011 165.23 27.6377 164.199 26.9765C163.072 26.2678 161.761 25.9079 160.43 25.9422C159.178 25.9274 157.946 26.252 156.863 26.8815C155.8 27.517 154.939 28.4403 154.378 29.5447C153.759 30.8088 153.453 32.2036 153.487 33.611C153.449 35.0709 153.763 36.5186 154.402 37.8318C154.968 38.9588 155.858 39.8905 156.958 40.5069C158.136 41.1441 159.46 41.4637 160.799 41.4343C162.477 41.4715 164.109 40.8823 165.376 39.7817C166.68 38.6112 167.499 36.9953 167.671 35.2517H159.824V32.7073H170.584V36.0127C170.361 37.5493 169.788 39.0139 168.907 40.2929C168.015 41.5933 166.814 42.6515 165.412 43.3723C163.889 44.1761 162.188 44.5849 160.466 44.5613C158.532 44.6002 156.623 44.1198 154.937 43.1702C153.36 42.2623 152.077 40.9212 151.239 39.3061C150.349 37.5546 149.904 35.611 149.943 33.6467C149.903 31.6861 150.348 29.7459 151.239 27.9991C152.072 26.3876 153.352 25.0501 154.925 24.1468C156.603 23.2 158.504 22.7236 160.43 22.7677C162.683 22.677 164.904 23.3241 166.755 24.6105Z" fill="white"/>
<path d="M191.046 22.9104V44.3117H187.562V34.7049H177.456V44.3117H173.996V22.9104H177.456V31.887H187.527V22.9104H191.046Z" fill="white"/>
<path d="M208.999 22.9104V25.7044H203.054V44.3117H199.571V25.7044H193.626V22.9104H208.999Z" fill="white"/>
<path d="M44.3758 87.9941L18.0165 45.8098C17.7337 45.3373 17.5843 44.797 17.5843 44.2463C17.5843 43.6956 17.7337 43.1553 18.0165 42.6828L28.8598 23.9092C28.1153 25.4406 27.7748 27.137 27.8705 28.8372C27.9662 30.5373 28.4951 32.1847 29.4068 33.623L32.617 38.7712L39.8459 50.3278L52.5677 70.6828C52.8426 71.1515 52.9875 71.6851 52.9875 72.2284C52.9875 72.7718 52.8426 73.3054 52.5677 73.7741L44.3758 87.9941Z" fill="url(#paint0_linear_18_398)"/>
<path d="M32.5576 38.771L29.3474 33.6228C28.4338 32.1856 27.9029 30.5387 27.8051 28.8385C27.7073 27.1384 28.0458 25.4415 28.7885 23.909L31.3329 19.5218C31.6082 19.0443 32.008 18.6505 32.4896 18.3824C32.9713 18.1144 33.5166 17.9822 34.0675 17.9999L38.1457 18.1425H38.3478L58.0489 18.844L48.9414 34.6097L35.316 34.1341C34.7608 34.1034 34.2078 34.2254 33.717 34.4869C33.2263 34.7483 32.8165 35.1392 32.5323 35.6171C32.248 36.0949 32.1001 36.6415 32.1045 37.1975C32.109 37.7535 32.2657 38.2978 32.5576 38.771Z" fill="url(#paint1_linear_18_398)"/>
<path d="M36.3147 38.902L86.0251 37.1661C86.5762 37.1471 87.1221 37.2788 87.6039 37.5469C88.0858 37.8151 88.4854 38.2096 88.7597 38.688L99.603 57.4498C98.646 56.0415 97.3455 54.9007 95.8247 54.1351C94.3039 53.3695 92.613 53.0044 90.9117 53.0744L84.848 53.2884L71.2226 53.764L47.2293 54.6082C46.686 54.6198 46.1495 54.4845 45.6766 54.2167C45.2037 53.9488 44.8118 53.5583 44.5423 53.0863L36.3147 38.902Z" fill="url(#paint2_linear_18_398)"/>
<path d="M84.848 53.2884L90.9117 53.0744C92.613 53.0044 94.3039 53.3695 95.8247 54.1351C97.3455 54.9007 98.646 56.0415 99.603 57.4497L102.136 61.8489C102.418 62.3214 102.568 62.8617 102.568 63.4124C102.568 63.9631 102.418 64.5034 102.136 64.9759L99.9716 68.4357V68.5547L89.5088 85.2714L80.4132 69.5058L87.6421 57.9373C87.9441 57.462 88.1078 56.912 88.1148 56.3489C88.1218 55.7858 87.9719 55.2319 87.6818 54.7493C87.3917 54.2666 86.973 53.8743 86.4724 53.6163C85.9719 53.3583 85.4094 53.2447 84.848 53.2884Z" fill="url(#paint3_linear_18_398)"/>
<path d="M82.8505 56.4629L59.4993 100.395C59.2408 100.88 58.8553 101.285 58.3841 101.568C57.9129 101.851 57.3737 102 56.8242 102H35.1495C36.8477 101.877 38.4863 101.322 39.9096 100.388C41.333 99.4536 42.4939 98.1709 43.282 96.6616L46.1236 91.3113L52.5321 79.2671L63.7915 58.068C64.0558 57.5932 64.4419 57.1975 64.91 56.9216C65.3782 56.6457 65.9114 56.4997 66.4548 56.4985L82.8505 56.4629Z" fill="url(#paint4_linear_18_398)"/>
<path d="M46.1354 91.3112L43.2819 96.6615C42.4938 98.1708 41.333 99.4535 39.9096 100.388C38.4862 101.322 36.8476 101.877 35.1495 102H30.025C29.474 102 28.9335 101.849 28.462 101.564C27.9904 101.279 27.6059 100.871 27.3499 100.383L25.4357 96.8161L25.3643 96.6972L16.1142 79.2908H34.3053L40.7257 91.3112C40.9788 91.8112 41.3657 92.2313 41.8432 92.5247C42.3206 92.8181 42.8701 92.9735 43.4306 92.9735C43.991 92.9735 44.5405 92.8181 45.018 92.5247C45.4955 92.2313 45.8823 91.8112 46.1354 91.3112Z" fill="url(#paint5_linear_18_398)"/>
</g>
<defs>
<linearGradient id="paint0_linear_18_398" x1="4.71029" y1="42.4409" x2="31.9657" y2="81.7868" gradientUnits="userSpaceOnUse">
<stop stop-color="#DC1BFA"/>
<stop offset="0.2" stop-color="#BF1AF3"/>
<stop offset="0.62" stop-color="#7617E3"/>
<stop offset="1" stop-color="#3014D3"/>
</linearGradient>
<linearGradient id="paint1_linear_18_398" x1="30.1121" y1="30.1102" x2="6.10025" y2="28.5296" gradientUnits="userSpaceOnUse">
<stop stop-color="#DC1BFA"/>
<stop offset="0.2" stop-color="#BF1AF3"/>
<stop offset="0.62" stop-color="#7617E3"/>
<stop offset="1" stop-color="#3014D3"/>
</linearGradient>
<linearGradient id="paint2_linear_18_398" x1="85.4604" y1="46.7648" x2="37.9142" y2="50.5881" gradientUnits="userSpaceOnUse">
<stop stop-color="#DC1BFA"/>
<stop offset="0.2" stop-color="#BF1AF3"/>
<stop offset="0.62" stop-color="#7617E3"/>
<stop offset="1" stop-color="#3014D3"/>
</linearGradient>
<linearGradient id="paint3_linear_18_398" x1="83.3954" y1="74.8382" x2="96.7578" y2="54.9185" gradientUnits="userSpaceOnUse">
<stop stop-color="#DC1BFA"/>
<stop offset="0.2" stop-color="#BF1AF3"/>
<stop offset="0.62" stop-color="#7617E3"/>
<stop offset="1" stop-color="#3014D3"/>
</linearGradient>
<linearGradient id="paint4_linear_18_398" x1="51.462" y1="95.0922" x2="71.924" y2="52.0043" gradientUnits="userSpaceOnUse">
<stop stop-color="#DC1BFA"/>
<stop offset="0.2" stop-color="#BF1AF3"/>
<stop offset="0.62" stop-color="#7617E3"/>
<stop offset="1" stop-color="#3014D3"/>
</linearGradient>
<linearGradient id="paint5_linear_18_398" x1="28.194" y1="79.267" x2="38.752" y2="100.799" gradientUnits="userSpaceOnUse">
<stop stop-color="#DC1BFA"/>
<stop offset="0.2" stop-color="#BF1AF3"/>
<stop offset="0.62" stop-color="#7617E3"/>
<stop offset="1" stop-color="#3014D3"/>
</linearGradient>
<clipPath id="clip0_18_398">
<rect width="329.045" height="84" fill="white" transform="translate(16.1499 18)"/>
</clipPath>
</defs>
</svg>
