<svg width="308" height="120" viewBox="0 0 308 120" fill="none" xmlns="http://www.w3.org/2000/svg">
<g clip-path="url(#clip0_18_306)">
<path d="M115.992 59.8662H130.672V64.6222H121.067V71.3134H130.435V75.9148H121.067V82.6369H131.063V87.3928H115.992V59.8662Z" fill="white"/>
<path d="M140.441 76.4603L133.554 65.8367H138.907L143.745 73.3925L148.542 65.8367H153.895L147.009 76.4603L154.132 87.3926H148.779L143.745 79.6102L138.598 87.3926H133.359L140.441 76.4603Z" fill="white"/>
<path d="M160.484 86.4354C158.772 85.4507 157.351 84.03 156.366 82.3178C155.356 80.5882 154.833 78.6175 154.853 76.6148C154.836 74.6124 155.359 72.6425 156.366 70.9119C157.353 69.2012 158.773 67.7809 160.484 66.7943C162.227 65.7816 164.212 65.2587 166.228 65.281C167.35 65.2696 168.467 65.4435 169.532 65.7957V70.9427C168.566 70.2618 167.41 69.9017 166.228 69.9133C165.082 69.9091 163.955 70.2113 162.965 70.7884C161.979 71.3539 161.164 72.1755 160.607 73.1663C160.027 74.1888 159.729 75.3468 159.743 76.5222C159.728 77.701 160.026 78.8626 160.607 79.8884C161.164 80.8792 161.979 81.7008 162.965 82.2663C163.956 82.8403 165.082 83.1389 166.228 83.131C167.409 83.1371 168.563 82.7776 169.532 82.1016V87.2487C168.467 87.6009 167.35 87.7748 166.228 87.7634C164.229 87.8422 162.245 87.3836 160.484 86.4354Z" fill="white"/>
<path d="M173.753 58.3838H178.632V68.225C179.359 67.312 180.29 66.5821 181.35 66.0941C182.448 65.5935 183.643 65.3405 184.85 65.3529C186.435 65.3223 187.999 65.7283 189.369 66.5265C190.693 67.3189 191.764 68.4722 192.457 69.8515C193.21 71.3734 193.588 73.0536 193.559 74.7515V87.4132H188.638V74.7926C188.664 74.156 188.56 73.5208 188.331 72.926C188.103 72.3312 187.755 71.7893 187.31 71.3337C186.86 70.8888 186.324 70.5406 185.734 70.3105C185.145 70.0804 184.515 69.9732 183.882 69.9956C182.492 69.9374 181.134 70.4292 180.104 71.3647C179.623 71.8257 179.246 72.3832 178.995 73.0006C178.745 73.618 178.628 74.2813 178.653 74.947V87.4132H173.773L173.753 58.3838Z" fill="white"/>
<path d="M214.62 85.1485C213.743 86.0387 212.692 86.7395 211.532 87.2073C210.293 87.6912 208.972 87.9322 207.641 87.9176C205.689 87.9456 203.767 87.4287 202.092 86.425C200.445 85.4324 199.099 84.0086 198.201 82.3073C197.246 80.545 196.757 78.5677 196.781 76.5632C196.758 74.5622 197.247 72.5884 198.201 70.8293C199.097 69.1262 200.443 67.7018 202.092 66.7117C203.767 65.7079 205.689 65.1911 207.641 65.2191C208.972 65.2044 210.293 65.4455 211.532 65.9293C212.69 66.4003 213.74 67.1006 214.62 67.9882V65.7852H219.459V87.3411H214.62V85.1485ZM211.398 82.3588C212.362 81.785 213.154 80.9639 213.694 79.9808C214.268 78.9381 214.559 77.7635 214.538 76.5735C214.557 75.387 214.266 74.216 213.694 73.1764C213.154 72.1933 212.362 71.3724 211.398 70.7986C210.406 70.218 209.274 69.9189 208.125 69.9338C206.972 69.9207 205.838 70.2195 204.841 70.7986C203.869 71.3687 203.069 72.1901 202.525 73.1764C201.952 74.216 201.662 75.387 201.681 76.5735C201.66 77.7635 201.951 78.9381 202.525 79.9808C203.069 80.9672 203.869 81.7887 204.841 82.3588C205.838 82.9378 206.972 83.2366 208.125 83.2235C209.271 83.2508 210.402 82.9661 211.398 82.3999V82.3588Z" fill="white"/>
<path d="M237.422 71.3134C236.995 70.8719 236.481 70.5247 235.912 70.2942C235.342 70.0637 234.731 69.955 234.118 69.9751C233.451 69.9467 232.785 70.0534 232.161 70.2887C231.536 70.5239 230.966 70.8829 230.484 71.3442C230.016 71.8124 229.65 72.3725 229.409 72.989C229.168 73.6055 229.057 74.2652 229.084 74.9265V87.3928H224.204V65.8369H229.084V68.2046C229.759 67.2912 230.651 66.5591 231.678 66.0736C232.748 65.5755 233.915 65.3224 235.095 65.3325C236.645 65.3012 238.172 65.708 239.501 66.506C240.801 67.3073 241.846 68.4601 242.517 69.831C243.259 71.3563 243.629 73.0353 243.598 74.731V87.3928H238.719V74.7722C238.746 74.1382 238.645 73.5053 238.422 72.9111C238.199 72.3169 237.859 71.7736 237.422 71.3134Z" fill="white"/>
<path d="M254.665 83.5426L252.338 86.9294H260.522C261.5 86.8685 262.48 87.0212 263.394 87.3767C264.308 87.7322 265.133 88.282 265.813 88.9882C267.138 90.6648 267.792 92.7751 267.645 94.9073H262.879C262.879 92.6838 261.726 91.572 259.42 91.572H246.718V87.0426L250.526 81.3808C249.637 80.5344 248.935 79.5103 248.467 78.375C247.976 77.1694 247.727 75.8784 247.737 74.5764C247.723 72.9342 248.145 71.3178 248.962 69.8927C249.757 68.4986 250.908 67.3406 252.297 66.5368C253.703 65.7082 255.308 65.2776 256.94 65.2911C258.446 65.2767 259.934 65.63 261.273 66.3205L263.981 62.7073L267.759 65.3838L264.67 69.5015C265.623 71.0223 266.127 72.7817 266.122 74.5764C266.139 76.2177 265.72 77.8342 264.907 79.2603C264.111 80.6572 262.956 81.8158 261.562 82.6162C260.146 83.4487 258.53 83.8793 256.888 83.8617C256.136 83.8574 255.388 83.75 254.665 83.5426ZM260.192 77.8397C260.622 77.3963 260.959 76.8725 261.185 76.2984C261.411 75.7242 261.522 75.1111 261.51 74.4941C261.519 73.8819 261.405 73.2742 261.175 72.7067C260.945 72.1392 260.604 71.6234 260.172 71.1896C259.759 70.7477 259.258 70.397 258.701 70.1595C258.144 69.9219 257.545 69.803 256.94 69.8102C256.334 69.7976 255.733 69.9121 255.174 70.1461C254.616 70.3802 254.112 70.7287 253.697 71.1691C253.267 71.6077 252.929 72.1277 252.703 72.6987C252.476 73.2697 252.366 73.8801 252.379 74.4941C252.368 75.1111 252.478 75.7242 252.704 76.2984C252.93 76.8725 253.268 77.3963 253.697 77.8397C254.11 78.2849 254.612 78.6379 255.171 78.8757C255.73 79.1134 256.332 79.2304 256.94 79.2191C257.548 79.2299 258.152 79.1127 258.713 78.875C259.273 78.6374 259.777 78.2847 260.192 77.8397Z" fill="white"/>
<path d="M274.676 86.4354C272.964 85.4507 271.543 84.03 270.559 82.3178C269.541 80.591 269.014 78.619 269.035 76.6148C269.017 74.6109 269.543 72.6397 270.559 70.9119C271.545 69.2012 272.965 67.7809 274.676 66.7943C276.42 65.7816 278.404 65.2587 280.42 65.281C282.368 65.2619 284.282 65.786 285.948 66.7943C287.601 67.8002 288.964 69.2193 289.901 70.9119C290.871 72.6552 291.371 74.6202 291.353 76.6148C291.347 77.3075 291.267 77.9976 291.116 78.6736H274.079C274.44 80.0709 275.264 81.3047 276.416 82.1736C277.558 83.0589 278.966 83.5307 280.41 83.5119C281.491 83.5357 282.559 83.2652 283.498 82.7296C284.372 82.2371 285.068 81.4803 285.485 80.5678H290.756C290.206 82.7515 288.886 84.6632 287.039 85.9516C285.122 87.328 282.811 88.05 280.451 88.0104C278.419 88.0196 276.422 87.4751 274.676 86.4354ZM286.36 74.6487C286.03 73.2768 285.264 72.0488 284.178 71.1487C283.122 70.2737 281.791 69.7997 280.42 69.8104C278.969 69.7894 277.554 70.2612 276.406 71.1487C275.265 72.0242 274.449 73.2563 274.089 74.6487H286.36Z" fill="white"/>
<path d="M115.992 59.8662H130.672V64.6222H121.067V71.3134H130.435V75.9148H121.067V82.6369H131.063V87.3928H115.992V59.8662Z" fill="white"/>
<path d="M140.441 76.4603L133.554 65.8367H138.907L143.745 73.3925L148.542 65.8367H153.895L147.009 76.4603L154.132 87.3926H148.779L143.745 79.6102L138.598 87.3926H133.359L140.441 76.4603Z" fill="white"/>
<path d="M160.484 86.4354C158.772 85.4507 157.351 84.03 156.366 82.3178C155.356 80.5882 154.833 78.6175 154.853 76.6148C154.836 74.6124 155.359 72.6425 156.366 70.9119C157.353 69.2012 158.773 67.7809 160.484 66.7943C162.227 65.7816 164.212 65.2587 166.228 65.281C167.35 65.2696 168.467 65.4435 169.532 65.7957V70.9427C168.566 70.2618 167.41 69.9017 166.228 69.9133C165.082 69.9091 163.955 70.2113 162.965 70.7884C161.979 71.3539 161.164 72.1755 160.607 73.1663C160.027 74.1888 159.729 75.3468 159.743 76.5222C159.728 77.701 160.026 78.8626 160.607 79.8884C161.164 80.8792 161.979 81.7008 162.965 82.2663C163.956 82.8403 165.082 83.1389 166.228 83.131C167.409 83.1371 168.563 82.7776 169.532 82.1016V87.2487C168.467 87.6009 167.35 87.7748 166.228 87.7634C164.229 87.8422 162.245 87.3836 160.484 86.4354Z" fill="white"/>
<path d="M173.753 58.3838H178.632V68.225C179.359 67.312 180.29 66.5821 181.35 66.0941C182.448 65.5935 183.643 65.3405 184.85 65.3529C186.435 65.3223 187.999 65.7283 189.369 66.5265C190.693 67.3189 191.764 68.4722 192.457 69.8515C193.21 71.3734 193.588 73.0536 193.559 74.7515V87.4132H188.638V74.7926C188.664 74.156 188.56 73.5208 188.331 72.926C188.103 72.3312 187.755 71.7893 187.31 71.3337C186.86 70.8888 186.324 70.5406 185.734 70.3105C185.145 70.0804 184.515 69.9732 183.882 69.9956C182.492 69.9374 181.134 70.4292 180.104 71.3647C179.623 71.8257 179.246 72.3832 178.995 73.0006C178.745 73.618 178.628 74.2813 178.653 74.947V87.4132H173.773L173.753 58.3838Z" fill="white"/>
<path d="M214.62 85.1485C213.743 86.0387 212.692 86.7395 211.532 87.2073C210.293 87.6912 208.972 87.9322 207.641 87.9176C205.689 87.9456 203.767 87.4287 202.092 86.425C200.445 85.4324 199.099 84.0086 198.201 82.3073C197.246 80.545 196.757 78.5677 196.781 76.5632C196.758 74.5622 197.247 72.5884 198.201 70.8293C199.097 69.1262 200.443 67.7018 202.092 66.7117C203.767 65.7079 205.689 65.1911 207.641 65.2191C208.972 65.2044 210.293 65.4455 211.532 65.9293C212.69 66.4003 213.74 67.1006 214.62 67.9882V65.7852H219.459V87.3411H214.62V85.1485ZM211.398 82.3588C212.362 81.785 213.154 80.9639 213.694 79.9808C214.268 78.9381 214.559 77.7635 214.538 76.5735C214.557 75.387 214.266 74.216 213.694 73.1764C213.154 72.1933 212.362 71.3724 211.398 70.7986C210.406 70.218 209.274 69.9189 208.125 69.9338C206.972 69.9207 205.838 70.2195 204.841 70.7986C203.869 71.3687 203.069 72.1901 202.525 73.1764C201.952 74.216 201.662 75.387 201.681 76.5735C201.66 77.7635 201.951 78.9381 202.525 79.9808C203.069 80.9672 203.869 81.7887 204.841 82.3588C205.838 82.9378 206.972 83.2366 208.125 83.2235C209.271 83.2508 210.402 82.9661 211.398 82.3999V82.3588Z" fill="white"/>
<path d="M237.422 71.3134C236.995 70.8719 236.481 70.5247 235.912 70.2942C235.342 70.0637 234.731 69.955 234.118 69.9751C233.451 69.9467 232.785 70.0534 232.161 70.2887C231.536 70.5239 230.966 70.8829 230.484 71.3442C230.016 71.8124 229.65 72.3725 229.409 72.989C229.168 73.6055 229.057 74.2652 229.084 74.9265V87.3928H224.204V65.8369H229.084V68.2046C229.759 67.2912 230.651 66.5591 231.678 66.0736C232.748 65.5755 233.915 65.3224 235.095 65.3325C236.645 65.3012 238.172 65.708 239.501 66.506C240.801 67.3073 241.846 68.4601 242.517 69.831C243.259 71.3563 243.629 73.0353 243.598 74.731V87.3928H238.719V74.7722C238.746 74.1382 238.645 73.5053 238.422 72.9111C238.199 72.3169 237.859 71.7736 237.422 71.3134Z" fill="white"/>
<path d="M254.665 83.5426L252.338 86.9294H260.522C261.5 86.8685 262.48 87.0212 263.394 87.3767C264.308 87.7322 265.133 88.282 265.813 88.9882C267.138 90.6648 267.792 92.7751 267.645 94.9073H262.879C262.879 92.6838 261.726 91.572 259.42 91.572H246.718V87.0426L250.526 81.3808C249.637 80.5344 248.935 79.5103 248.467 78.375C247.976 77.1694 247.727 75.8784 247.737 74.5764C247.723 72.9342 248.145 71.3178 248.962 69.8927C249.757 68.4986 250.908 67.3406 252.297 66.5368C253.703 65.7082 255.308 65.2776 256.94 65.2911C258.446 65.2767 259.934 65.63 261.273 66.3205L263.981 62.7073L267.759 65.3838L264.67 69.5015C265.623 71.0223 266.127 72.7817 266.122 74.5764C266.139 76.2177 265.72 77.8342 264.907 79.2603C264.111 80.6572 262.956 81.8158 261.562 82.6162C260.146 83.4487 258.53 83.8793 256.888 83.8617C256.136 83.8574 255.388 83.75 254.665 83.5426ZM260.192 77.8397C260.622 77.3963 260.959 76.8725 261.185 76.2984C261.411 75.7242 261.522 75.1111 261.51 74.4941C261.519 73.8819 261.405 73.2742 261.175 72.7067C260.945 72.1392 260.604 71.6234 260.172 71.1896C259.759 70.7477 259.258 70.397 258.701 70.1595C258.144 69.9219 257.545 69.803 256.94 69.8102C256.334 69.7976 255.733 69.9121 255.174 70.1461C254.616 70.3802 254.112 70.7287 253.697 71.1691C253.267 71.6077 252.929 72.1277 252.703 72.6987C252.476 73.2697 252.366 73.8801 252.379 74.4941C252.368 75.1111 252.478 75.7242 252.704 76.2984C252.93 76.8725 253.268 77.3963 253.697 77.8397C254.11 78.2849 254.612 78.6379 255.171 78.8757C255.73 79.1134 256.332 79.2304 256.94 79.2191C257.548 79.2299 258.152 79.1127 258.713 78.875C259.273 78.6374 259.777 78.2847 260.192 77.8397Z" fill="white"/>
<path d="M274.676 86.4354C272.964 85.4507 271.543 84.03 270.559 82.3178C269.541 80.591 269.014 78.619 269.035 76.6148C269.017 74.6109 269.543 72.6397 270.559 70.9119C271.545 69.2012 272.965 67.7809 274.676 66.7943C276.42 65.7816 278.404 65.2587 280.42 65.281C282.368 65.2619 284.282 65.786 285.948 66.7943C287.601 67.8002 288.964 69.2193 289.901 70.9119C290.871 72.6552 291.371 74.6202 291.353 76.6148C291.347 77.3075 291.267 77.9976 291.116 78.6736H274.079C274.44 80.0709 275.264 81.3047 276.416 82.1736C277.558 83.0589 278.966 83.5307 280.41 83.5119C281.491 83.5357 282.559 83.2652 283.498 82.7296C284.372 82.2371 285.068 81.4803 285.485 80.5678H290.756C290.206 82.7515 288.886 84.6632 287.039 85.9516C285.122 87.328 282.811 88.05 280.451 88.0104C278.419 88.0196 276.422 87.4751 274.676 86.4354ZM286.36 74.6487C286.03 73.2768 285.264 72.0488 284.178 71.1487C283.122 70.2737 281.791 69.7997 280.42 69.8104C278.969 69.7894 277.554 70.2612 276.406 71.1487C275.265 72.0242 274.449 73.2563 274.089 74.6487H286.36Z" fill="white"/>
<path d="M126.122 46.7105L121.51 39.309H119.379V46.7105H116.384V28.1811H122.92C124.667 28.0571 126.393 28.6142 127.738 29.7355C128.289 30.2655 128.721 30.9068 129.005 31.6168C129.289 32.3268 129.419 33.0892 129.385 33.8531C129.441 35.1525 129.004 36.425 128.16 37.4149C127.228 38.4051 125.979 39.0386 124.629 39.206L129.488 46.7413L126.122 46.7105ZM119.379 37.1781H122.684C125.099 37.1781 126.307 36.111 126.307 33.9767C126.334 33.5413 126.27 33.1051 126.119 32.6958C125.969 32.2865 125.735 31.9129 125.432 31.5987C124.661 30.9683 123.676 30.662 122.684 30.7443H119.379V37.1781Z" fill="white"/>
<path d="M135.109 28.1707V46.7001H132.113V28.1707H135.109Z" fill="white"/>
<path d="M152.691 29.6427C154.159 30.7277 155.192 32.301 155.604 34.0795H152.454C152.063 33.0924 151.367 32.2558 150.467 31.6912C149.492 31.0776 148.356 30.766 147.204 30.7956C146.121 30.7859 145.054 31.0667 144.116 31.6089C143.193 32.1601 142.446 32.9637 141.964 33.9251C141.424 35.0187 141.156 36.2264 141.182 37.4457C141.15 38.7064 141.422 39.9562 141.975 41.0897C142.465 42.0682 143.235 42.8783 144.188 43.4162C145.211 43.9586 146.355 44.2314 147.513 44.2089C148.966 44.2431 150.38 43.7327 151.476 42.778C152.612 41.7688 153.325 40.3682 153.473 38.856H146.669V36.653H155.995V39.5148C155.794 40.8479 155.295 42.1182 154.534 43.231C153.759 44.3511 152.724 45.266 151.517 45.8971C150.193 46.5874 148.718 46.9409 147.225 46.9266C145.553 46.9604 143.904 46.5444 142.448 45.7221C141.083 44.9361 139.972 43.775 139.247 42.3765C138.472 40.865 138.083 39.1852 138.114 37.4868C138.084 35.7853 138.473 34.1024 139.247 32.5868C139.965 31.1891 141.073 30.0303 142.438 29.2515C143.888 28.4364 145.53 28.0242 147.194 28.0575C149.149 27.9782 151.078 28.5343 152.691 29.6427Z" fill="white"/>
<path d="M173.712 28.1707V46.7001H170.695V38.3722H161.987V46.7001H158.991V28.1707H161.987V35.9426H170.695V28.1707H173.712Z" fill="white"/>
<path d="M189.256 28.1707V30.5897H184.109V46.7104H181.082V30.5897H175.935V28.1707H189.256Z" fill="white"/>
<path d="M160.844 55.3472L148.769 73.403C148.682 73.5759 148.548 73.7208 148.382 73.8209C148.216 73.9211 148.026 73.9725 147.832 73.9692H140.173C140.774 73.9245 141.353 73.7282 141.857 73.3987C142.361 73.0693 142.774 72.6175 143.056 72.0854L144.085 70.1912L154.153 55.903C154.242 55.7304 154.378 55.5867 154.546 55.4883C154.714 55.3899 154.906 55.341 155.1 55.3472H160.844Z" fill="url(#paint0_linear_18_306)"/>
<path d="M144.054 70.1911L143.025 72.0853C142.744 72.616 142.333 73.0669 141.831 73.3962C141.329 73.7256 140.751 73.9227 140.153 73.9691H138.361C138.165 73.9734 137.972 73.9213 137.804 73.8192C137.636 73.717 137.501 73.569 137.414 73.3926L136.735 72.1264L133.462 65.95H139.895L142.15 70.2014C142.228 70.3898 142.361 70.5506 142.531 70.6634C142.701 70.7761 142.901 70.8357 143.105 70.8346C143.31 70.8335 143.509 70.7718 143.678 70.6572C143.847 70.5426 143.978 70.3804 144.054 70.1911Z" fill="url(#paint1_linear_18_306)"/>
<path d="M138.393 76.3367C137.76 76.3477 137.136 76.1833 136.591 75.8617C136.046 75.5401 135.601 75.074 135.304 74.5148L130.826 66.0941C130.688 65.8327 130.62 65.54 130.628 65.2444C130.636 64.9488 130.72 64.6603 130.872 64.4068C131.024 64.1532 131.239 63.9431 131.496 63.7969C131.753 63.6507 132.044 63.5733 132.34 63.5721H141.306L141.965 64.8795L143.21 67.2162L152.084 54.6162C152.394 54.1199 152.824 53.7105 153.336 53.426C153.847 53.1416 154.422 52.9914 155.007 52.9897H165.219L150.735 74.6074C150.431 75.1202 149.999 75.5454 149.481 75.8413C148.963 76.1372 148.377 76.2937 147.781 76.2956H138.341L138.393 76.3367Z" fill="#111111"/>
<path d="M155.069 55.3472C154.875 55.341 154.683 55.3899 154.515 55.4883C154.348 55.5867 154.211 55.7304 154.122 55.903L144.054 70.1912C143.974 70.3739 143.842 70.5293 143.675 70.6383C143.507 70.7474 143.312 70.8053 143.112 70.8053C142.913 70.8053 142.717 70.7474 142.55 70.6383C142.383 70.5293 142.251 70.3739 142.17 70.1912L139.916 65.9398H133.482L136.756 72.1162L137.435 73.3824C137.522 73.5588 137.657 73.707 137.824 73.8091C137.992 73.9113 138.186 73.9632 138.382 73.9589H147.822C148.015 73.9622 148.206 73.9108 148.372 73.8106C148.537 73.7105 148.672 73.5656 148.759 73.3927L160.844 55.3472H155.069Z" fill="url(#paint2_linear_18_306)"/>
<path d="M58.7675 18C47.6284 18 36.9455 22.425 29.069 30.3015C21.1925 38.1781 16.7675 48.8608 16.7675 59.9999C16.7675 71.139 21.1925 81.8219 29.069 89.6984C36.9455 97.575 47.6284 102 58.7675 102C69.9066 102 80.5894 97.575 88.4659 89.6984C96.3425 81.8219 100.767 71.139 100.767 59.9999C100.767 48.8608 96.3425 38.1781 88.4659 30.3015C80.5894 22.425 69.9066 18 58.7675 18Z" fill="url(#paint3_radial_18_306)"/>
<path d="M58.7675 24.4132C68.1914 24.4241 77.2262 28.1725 83.89 34.8362C90.5537 41.4999 94.3022 50.5349 94.3131 59.9588C94.2994 69.3809 90.5497 78.4131 83.8863 85.0746C77.2229 91.7361 68.1897 95.4832 58.7675 95.4941C49.3454 95.4832 40.3121 91.7361 33.6486 85.0746C26.9852 78.4131 23.2355 69.3809 23.2219 59.9588C23.2328 50.5349 26.9813 41.4999 33.645 34.8362C40.3087 28.1725 49.3436 24.4241 58.7675 24.4132ZM58.7675 17.9587C47.6284 17.9587 36.9455 22.3838 29.069 30.2603C21.1925 38.1368 16.7675 48.8197 16.7675 59.9588C16.7675 71.0979 21.1925 81.7808 29.069 89.6573C36.9455 97.5338 47.6284 101.959 58.7675 101.959C69.9066 101.959 80.5894 97.5338 88.4659 89.6573C96.3425 81.7808 100.767 71.0979 100.767 59.9588C100.767 48.8197 96.3425 38.1368 88.4659 30.2603C80.5894 22.3838 69.9066 17.9587 58.7675 17.9587Z" fill="url(#paint4_linear_18_306)"/>
<path d="M73.4778 36.0044C73.2429 36.0065 73.0126 36.0704 72.8103 36.1896C72.6079 36.3089 72.4405 36.4794 72.3248 36.6838L59.9719 54.1838C59.8594 54.3901 59.6935 54.5622 59.4915 54.6821C59.2895 54.802 59.059 54.8653 58.8241 54.8653C58.5892 54.8653 58.3586 54.802 58.1567 54.6821C57.9547 54.5622 57.7888 54.3901 57.6763 54.1838L54.9072 48.9853H47.0425L51.0366 56.5103L51.8704 58.0646C51.9799 58.2758 52.1454 58.4528 52.3488 58.5763C52.5521 58.6998 52.7855 58.7649 53.0234 58.7647H64.5733C64.8112 58.7649 65.0446 58.6998 65.2479 58.5763C65.4513 58.4528 65.6168 58.2758 65.7263 58.0646L80.5498 36.0044H73.4778Z" fill="url(#paint5_linear_18_306)"/>
<path d="M70.4719 71.025L66.4778 63.5L65.644 61.9456C65.5322 61.737 65.3659 61.5627 65.1629 61.4413C64.9598 61.3198 64.7276 61.2558 64.491 61.2559H52.9101C52.6731 61.2535 52.4399 61.3167 52.2365 61.4384C52.033 61.5601 51.8672 61.7355 51.7572 61.9456L36.9851 84.0368H44.0572C44.2927 84.0379 44.5242 83.9753 44.7272 83.8557C44.9301 83.7361 45.097 83.564 45.2101 83.3574L57.563 65.8574C57.6755 65.6511 57.8415 65.479 58.0434 65.3591C58.2454 65.2392 58.4759 65.1759 58.7108 65.1759C58.9457 65.1759 59.1763 65.2392 59.3783 65.3591C59.5802 65.479 59.7462 65.6511 59.8587 65.8574L62.6278 71.0044H70.4821L70.4719 71.025Z" fill="url(#paint6_linear_18_306)"/>
</g>
<defs>
<linearGradient id="paint0_linear_18_306" x1="145.001" y1="76.2545" x2="156.016" y2="53.0516" gradientUnits="userSpaceOnUse">
<stop stop-color="#28B934"/>
<stop offset="1" stop-color="#005920"/>
</linearGradient>
<linearGradient id="paint1_linear_18_306" x1="137.723" y1="65.9397" x2="141.45" y2="73.547" gradientUnits="userSpaceOnUse">
<stop stop-color="#28B934"/>
<stop offset="1" stop-color="#005920"/>
</linearGradient>
<linearGradient id="paint2_linear_18_306" x1="147.647" y1="61.6266" x2="152.567" y2="71.6531" gradientUnits="userSpaceOnUse">
<stop stop-color="#28B934"/>
<stop offset="1" stop-color="#005920"/>
</linearGradient>
<radialGradient id="paint3_radial_18_306" cx="0" cy="0" r="1" gradientUnits="userSpaceOnUse" gradientTransform="translate(81.0213 28.7448) scale(90.6515 90.6514)">
<stop offset="0.15" stop-color="#353530"/>
<stop offset="0.18" stop-color="#33332E"/>
<stop offset="0.21" stop-color="#31312C"/>
<stop offset="0.7" stop-color="#11110F"/>
<stop offset="1"/>
</radialGradient>
<linearGradient id="paint4_linear_18_306" x1="16.7675" y1="59.9999" x2="100.767" y2="59.9999" gradientUnits="userSpaceOnUse">
<stop stop-color="#28B934"/>
<stop offset="1" stop-color="#005920"/>
</linearGradient>
<linearGradient id="paint5_linear_18_306" x1="64.3984" y1="43.7044" x2="70.4204" y2="55.9647" gradientUnits="userSpaceOnUse">
<stop stop-color="#28B934"/>
<stop offset="1" stop-color="#005920"/>
</linearGradient>
<linearGradient id="paint6_linear_18_306" x1="41.3807" y1="94.9795" x2="71.491" y2="51.4559" gradientUnits="userSpaceOnUse">
<stop offset="0.05" stop-color="#A90004"/>
<stop offset="0.36" stop-color="#C00041"/>
<stop offset="0.58" stop-color="#CE0067"/>
<stop offset="0.69" stop-color="#D40076"/>
<stop offset="0.86" stop-color="#E900DD"/>
</linearGradient>
<clipPath id="clip0_18_306">
<rect width="274.585" height="84" fill="white" transform="translate(16.7675 18)"/>
</clipPath>
</defs>
</svg>
