<svg width="260" height="120" viewBox="0 0 260 120" fill="none" xmlns="http://www.w3.org/2000/svg">
<g clip-path="url(#clip0_18_286)">
<path d="M118.735 59.9382H123.512L132.56 74.35L141.598 59.9382H146.365V87.475H141.485V68.9456L133.569 81.1853H131.438L123.615 68.8324V87.4338H118.735V59.9382Z" fill="white"/>
<path d="M155.64 86.5074C153.929 85.5208 152.509 84.1005 151.522 82.3898C150.514 80.6596 149.991 78.6893 150.009 76.6868C149.991 74.6843 150.514 72.714 151.522 70.9838C152.505 69.2701 153.926 67.8489 155.64 66.8662C157.388 65.8691 159.371 65.3541 161.384 65.3736C163.377 65.3571 165.338 65.8723 167.066 66.8662C168.782 67.8457 170.204 69.2677 171.184 70.9838C172.176 72.7197 172.691 74.6874 172.676 76.6868C172.691 78.6862 172.176 80.6539 171.184 82.3898C170.2 84.1029 168.779 85.5239 167.066 86.5074C165.344 87.517 163.38 88.04 161.384 88.0206C159.368 88.0429 157.383 87.5201 155.64 86.5074ZM164.585 82.4824C165.566 81.9118 166.371 81.082 166.912 80.0839C167.479 79.0462 167.77 77.8798 167.756 76.6971C167.77 75.5183 167.472 74.3567 166.891 73.3309C166.34 72.3462 165.537 71.5257 164.565 70.953C163.59 70.3747 162.475 70.0755 161.342 70.0882C160.203 70.0764 159.082 70.3755 158.1 70.953C157.121 71.518 156.317 72.3404 155.773 73.3309C155.208 74.3622 154.918 75.5213 154.929 76.6971C154.92 77.8792 155.211 79.0444 155.773 80.0839C156.319 81.0847 157.132 81.9148 158.12 82.4824C159.111 83.0578 160.238 83.3564 161.384 83.3471C162.51 83.3561 163.617 83.0571 164.585 82.4824Z" fill="white"/>
<path d="M189.394 71.3853C188.966 70.9453 188.451 70.5992 187.882 70.3688C187.314 70.1384 186.703 70.0289 186.09 70.0471C185.421 70.021 184.753 70.1296 184.127 70.3665C183.501 70.6035 182.929 70.964 182.445 71.4265C181.98 71.8963 181.617 72.4568 181.378 73.0731C181.139 73.6894 181.029 74.3483 181.056 75.0088V87.475H176.176V65.9191H181.056V68.2764C181.729 67.3635 182.621 66.6344 183.65 66.1559C184.719 65.6546 185.887 65.3979 187.067 65.4044C188.618 65.3763 190.146 65.7865 191.473 66.5882C192.775 67.3867 193.821 68.5404 194.49 69.9133C195.232 71.4382 195.603 73.1175 195.57 74.8133V87.475H190.691V74.8441C190.715 74.2103 190.613 73.578 190.39 72.9842C190.168 72.3903 189.829 71.8468 189.394 71.3853Z" fill="white"/>
<path d="M204.29 86.5073C202.579 85.5206 201.159 84.1003 200.172 82.3896C199.163 80.6595 198.641 78.6892 198.659 76.6867C198.641 74.6841 199.163 72.7139 200.172 70.9837C201.159 69.273 202.579 67.8527 204.29 66.866C206.032 65.8502 208.017 65.3239 210.034 65.3425C211.982 65.3266 213.896 65.8541 215.562 66.866C217.219 67.8659 218.583 69.2865 219.515 70.9837C220.485 72.7264 220.986 74.6919 220.966 76.6867C220.962 77.3625 220.882 78.0357 220.729 78.694H203.703C204.067 80.0899 204.89 81.3228 206.04 82.194C207.181 83.0792 208.589 83.5511 210.034 83.5323C211.116 83.5524 212.183 83.2784 213.122 82.7396C213.996 82.2472 214.692 81.4904 215.109 80.5779H220.379C219.833 82.7661 218.513 84.6824 216.663 85.972C214.743 87.3444 212.434 88.0659 210.075 88.0308C208.044 88.0574 206.044 87.5308 204.29 86.5073ZM215.973 74.7308C215.646 73.3577 214.88 72.1288 213.791 71.2307C212.738 70.351 211.406 69.8764 210.034 69.8926C208.582 69.8666 207.165 70.3388 206.019 71.2307C204.876 72.1046 204.06 73.3373 203.703 74.7308H215.973Z" fill="white"/>
<path d="M229.994 87.4338L221.419 65.9192H226.566L232.629 81.7309L238.559 65.9192H243.757L232.434 94.1971H227.091L229.994 87.4338Z" fill="white"/>
<path d="M118.735 59.9382H123.512L132.56 74.35L141.598 59.9382H146.365V87.475H141.485V68.9456L133.569 81.1853H131.438L123.615 68.8324V87.4338H118.735V59.9382Z" fill="white"/>
<path d="M155.64 86.5074C153.929 85.5208 152.509 84.1005 151.522 82.3898C150.514 80.6596 149.991 78.6893 150.009 76.6868C149.991 74.6843 150.514 72.714 151.522 70.9838C152.505 69.2701 153.926 67.8489 155.64 66.8662C157.388 65.8691 159.371 65.3541 161.384 65.3736C163.377 65.3571 165.338 65.8723 167.066 66.8662C168.782 67.8457 170.204 69.2677 171.184 70.9838C172.176 72.7197 172.691 74.6874 172.676 76.6868C172.691 78.6862 172.176 80.6539 171.184 82.3898C170.2 84.1029 168.779 85.5239 167.066 86.5074C165.344 87.517 163.38 88.04 161.384 88.0206C159.368 88.0429 157.383 87.5201 155.64 86.5074ZM164.585 82.4824C165.566 81.9118 166.371 81.082 166.912 80.0839C167.479 79.0462 167.77 77.8798 167.756 76.6971C167.77 75.5183 167.472 74.3567 166.891 73.3309C166.34 72.3462 165.537 71.5257 164.565 70.953C163.59 70.3747 162.475 70.0755 161.342 70.0882C160.203 70.0764 159.082 70.3755 158.1 70.953C157.121 71.518 156.317 72.3404 155.773 73.3309C155.208 74.3622 154.918 75.5213 154.929 76.6971C154.92 77.8792 155.211 79.0444 155.773 80.0839C156.319 81.0847 157.132 81.9148 158.12 82.4824C159.111 83.0578 160.238 83.3564 161.384 83.3471C162.51 83.3561 163.617 83.0571 164.585 82.4824Z" fill="white"/>
<path d="M189.394 71.3853C188.966 70.9453 188.451 70.5992 187.882 70.3688C187.314 70.1384 186.703 70.0289 186.09 70.0471C185.421 70.021 184.753 70.1296 184.127 70.3665C183.501 70.6035 182.929 70.964 182.445 71.4265C181.98 71.8963 181.617 72.4568 181.378 73.0731C181.139 73.6894 181.029 74.3483 181.056 75.0088V87.475H176.176V65.9191H181.056V68.2764C181.729 67.3635 182.621 66.6344 183.65 66.1559C184.719 65.6546 185.887 65.3979 187.067 65.4044C188.618 65.3763 190.146 65.7865 191.473 66.5882C192.775 67.3867 193.821 68.5404 194.49 69.9133C195.232 71.4382 195.603 73.1175 195.57 74.8133V87.475H190.691V74.8441C190.715 74.2103 190.613 73.578 190.39 72.9842C190.168 72.3903 189.829 71.8468 189.394 71.3853Z" fill="white"/>
<path d="M204.29 86.5073C202.579 85.5206 201.159 84.1003 200.172 82.3896C199.163 80.6595 198.641 78.6892 198.659 76.6867C198.641 74.6841 199.163 72.7139 200.172 70.9837C201.159 69.273 202.579 67.8527 204.29 66.866C206.032 65.8502 208.017 65.3239 210.034 65.3425C211.982 65.3266 213.896 65.8541 215.562 66.866C217.219 67.8659 218.583 69.2865 219.515 70.9837C220.485 72.7264 220.986 74.6919 220.966 76.6867C220.962 77.3625 220.882 78.0357 220.729 78.694H203.703C204.067 80.0899 204.89 81.3228 206.04 82.194C207.181 83.0792 208.589 83.5511 210.034 83.5323C211.116 83.5524 212.183 83.2784 213.122 82.7396C213.996 82.2472 214.692 81.4904 215.109 80.5779H220.379C219.833 82.7661 218.513 84.6824 216.663 85.972C214.743 87.3444 212.434 88.0659 210.075 88.0308C208.044 88.0574 206.044 87.5308 204.29 86.5073ZM215.973 74.7308C215.646 73.3577 214.88 72.1288 213.791 71.2307C212.738 70.351 211.406 69.8764 210.034 69.8926C208.582 69.8666 207.165 70.3388 206.019 71.2307C204.876 72.1046 204.06 73.3373 203.703 74.7308H215.973Z" fill="white"/>
<path d="M229.994 87.4338L221.419 65.9192H226.566L232.629 81.7309L238.559 65.9192H243.757L232.434 94.1971H227.091L229.994 87.4338Z" fill="white"/>
<path d="M128.864 46.9366L124.242 39.5352H122.122V46.9366H119.126V28.4072H125.663C127.408 28.2804 129.134 28.8338 130.481 29.9514C131.03 30.4823 131.46 31.124 131.742 31.834C132.025 32.544 132.152 33.3058 132.117 34.069C132.172 35.3695 131.739 36.6435 130.903 37.641C129.97 38.6295 128.721 39.2599 127.372 39.422L132.231 46.9573L128.864 46.9366ZM122.122 37.4043H125.426C127.845 37.4043 129.05 36.3749 129.05 34.2028C129.079 33.7688 129.016 33.3335 128.865 32.9255C128.714 32.5175 128.479 32.146 128.175 31.8353C127.407 31.1999 126.419 30.8929 125.426 30.9808H122.122V37.4043Z" fill="white"/>
<path d="M137.82 28.4072V46.9366H134.835V28.4072H137.82Z" fill="white"/>
<path d="M155.423 29.8795C156.894 30.9619 157.928 32.5362 158.337 34.3162H155.187C154.798 33.3276 154.101 32.4903 153.2 31.928C152.224 31.3143 151.089 31.0028 149.937 31.0324C148.852 31.0175 147.785 31.2986 146.848 31.8455C145.923 32.3899 145.176 33.191 144.697 34.1515C144.152 35.2435 143.884 36.4522 143.915 37.672C143.88 38.933 144.152 40.1834 144.707 41.3162C145.197 42.2947 145.968 43.1048 146.92 43.6427C147.94 44.1943 149.086 44.4711 150.245 44.4457C151.698 44.4778 153.111 43.9677 154.209 43.0148C155.34 42.0024 156.053 40.6034 156.206 39.0926H149.401V36.9206H158.728V39.7824C158.527 41.1154 158.027 42.3858 157.266 43.4985C156.492 44.6186 155.456 45.5336 154.25 46.1647C152.927 46.8594 151.451 47.2132 149.957 47.1941C148.286 47.228 146.636 46.8121 145.181 45.9898C143.815 45.2037 142.704 44.0426 141.979 42.6442C141.206 41.1281 140.818 39.4456 140.847 37.7442C140.816 36.0427 141.205 34.3598 141.979 32.8442C142.702 31.4561 143.805 30.3028 145.16 29.5192C146.612 28.6994 148.259 28.2868 149.926 28.325C151.879 28.2337 153.808 28.7793 155.423 29.8795Z" fill="white"/>
<path d="M176.454 28.4072V46.9366H173.438V38.619H164.688V46.9366H161.703V28.4072H164.688V36.1793H173.407V28.4072H176.454Z" fill="white"/>
<path d="M191.998 28.4072V30.816H186.851V46.9366H183.825V30.816H178.678V28.4072H191.998Z" fill="white"/>
<path d="M58.3086 18C47.1695 18 36.4866 22.425 28.6101 30.3015C20.7336 38.1781 16.3086 48.861 16.3086 60.0001C16.3086 71.1391 20.7336 81.8219 28.6101 89.6984C36.4866 97.575 47.1695 102 58.3086 102C69.4477 102 80.1306 97.575 88.0071 89.6984C95.8836 81.8219 100.309 71.1391 100.309 60.0001C100.31 54.4842 99.2245 49.022 97.1143 43.9257C95.0041 38.8294 91.9104 34.1989 88.0101 30.2985C84.1098 26.3982 79.4792 23.3045 74.3829 21.1943C69.2866 19.0841 63.8245 17.9986 58.3086 18Z" fill="url(#paint0_radial_18_286)"/>
<path d="M47.3352 41.0382L55.4675 36.344V59.4544C55.2482 58.5406 54.7279 57.727 53.9905 57.1445C53.253 56.562 52.3411 56.2444 51.4014 56.2426C50.4602 56.2449 49.5472 56.564 48.8095 57.1485C48.0719 57.733 47.5525 58.549 47.3352 59.4647V41.0382ZM35.5381 66.2485L42.5278 62.2956V43.7662L35.5381 47.8014V66.2485ZM60.316 62.8206L63.1572 64.6118C63.5519 64.4968 63.9608 64.4378 64.3719 64.4367C64.7188 64.4367 65.0643 64.4782 65.4013 64.5602L68.4278 62.5014V41.0382L60.3057 36.344L60.316 62.8206ZM73.2455 59.1249L80.2454 54.2661V47.8529L73.2455 43.8176V59.1249ZM100.34 59.9588C100.34 71.0979 95.9146 81.7808 88.0381 89.6573C80.1616 97.5338 69.4787 101.959 58.3396 101.959C52.8241 101.959 47.3625 100.872 42.2669 98.7618C37.1712 96.6511 32.5412 93.5574 28.6411 89.6573C24.7411 85.7572 21.6474 81.1272 19.5367 76.0315C17.426 70.9359 16.3396 65.4743 16.3396 59.9588C16.3396 54.4433 17.426 48.9817 19.5367 43.886C21.6474 38.7904 24.7411 34.1603 28.6411 30.2603C32.5412 26.3602 37.1712 23.2665 42.2669 21.1558C47.3625 19.0451 52.8241 17.9587 58.3396 17.9587C63.8564 17.9614 69.3185 19.0512 74.4139 21.1659C79.5093 23.2805 84.1381 26.3785 88.0357 30.2828C91.9333 34.1871 95.0233 38.8211 97.1292 43.9201C99.2351 49.0191 100.315 54.4832 100.309 60L100.34 59.9588ZM93.8851 59.9588C93.8742 50.5349 90.1258 41.5001 83.4621 34.8363C76.7984 28.1726 67.7635 24.4241 58.3396 24.4132C48.9174 24.4268 39.8852 28.1766 33.2237 34.84C26.5622 41.5034 22.8152 50.5366 22.8043 59.9588C22.8027 65.153 23.9424 70.284 26.1428 74.9891C28.3432 79.6941 31.5506 83.8581 35.5381 87.1867V72.5176L42.5278 68.5647V91.7676C44.0801 92.5424 45.6868 93.2029 47.3352 93.744V65.847L49.991 64.3544C50.4431 64.5185 50.9204 64.6021 51.4014 64.6014C51.8133 64.6019 52.223 64.5394 52.6161 64.4161L55.4675 66.2176V94.722H50.9381C53.3613 95.2357 55.8316 95.4944 58.3087 95.4941C60.7891 95.4944 63.2629 95.2356 65.6896 94.722H60.2852V69.5838C60.5028 70.4957 61.0214 71.3077 61.7574 71.8886C62.4933 72.4695 63.4035 72.7854 64.3411 72.7852C65.2915 72.7964 66.2174 72.4833 66.9659 71.8976C67.7145 71.3118 68.2411 70.4884 68.4587 69.5632V94.0323C70.1021 93.539 71.7085 92.9301 73.2661 92.2102V65.775L80.266 60.9162V87.9177C84.4983 84.598 87.9207 80.3598 90.2747 75.5234C92.6287 70.687 93.8527 65.3789 93.8543 60L93.8851 59.9588Z" fill="url(#paint1_linear_18_286)"/>
<path d="M85.8968 51.2397C85.2506 51.2425 84.6316 51.5003 84.1746 51.9573C83.7177 52.4142 83.4598 53.0332 83.4571 53.6794C83.4414 53.83 83.4414 53.9818 83.4571 54.1323L65.5556 66.5677C65.175 66.3329 64.7366 66.2081 64.2894 66.2073C63.809 66.2082 63.3398 66.3515 62.9409 66.6191L53.6762 60.8132C53.6861 60.6967 53.6861 60.5797 53.6762 60.4632C53.6762 59.8162 53.4191 59.1957 52.9616 58.7382C52.5041 58.2806 51.8835 58.0235 51.2365 58.0235C50.5894 58.0235 49.9689 58.2806 49.5113 58.7382C49.0538 59.1957 48.7968 59.8162 48.7968 60.4632C48.7916 60.5386 48.7916 60.6143 48.7968 60.6897L32.0276 70.1706C31.6107 69.8532 31.1002 69.6829 30.5762 69.6867C29.9291 69.6867 29.3086 69.9438 28.851 70.4014C28.3935 70.8589 28.1365 71.4794 28.1365 72.1264C28.1365 72.7735 28.3935 73.3941 28.851 73.8516C29.3086 74.3092 29.9291 74.5661 30.5762 74.5661C31.2232 74.5661 31.8438 74.3092 32.3013 73.8516C32.7588 73.3941 33.0159 72.7735 33.0159 72.1264C33.021 72.0476 33.021 71.9685 33.0159 71.8897L49.785 62.4191C50.2041 62.7325 50.7132 62.9022 51.2365 62.9029C51.72 62.9022 52.1926 62.759 52.5953 62.4911L61.7982 68.3073C61.788 68.4204 61.788 68.534 61.7982 68.647C61.7982 69.2941 62.0553 69.9147 62.5128 70.3722C62.9703 70.8297 63.5909 71.0867 64.2379 71.0867C64.885 71.0867 65.5055 70.8297 65.9631 70.3722C66.4206 69.9147 66.6776 69.2941 66.6776 68.647C66.6929 68.4964 66.6929 68.3447 66.6776 68.1941L84.5791 55.7589C84.9566 55.9924 85.3912 56.117 85.835 56.1191C86.483 56.1192 87.1046 55.8624 87.5638 55.4051C88.023 54.9479 88.2823 54.3274 88.285 53.6794C88.2826 53.042 88.0317 52.4306 87.5858 51.9751C87.1399 51.5196 86.534 51.2558 85.8968 51.2397Z" fill="url(#paint2_linear_18_286)"/>
</g>
<defs>
<radialGradient id="paint0_radial_18_286" cx="0" cy="0" r="1" gradientUnits="userSpaceOnUse" gradientTransform="translate(79.4301 28.7559) scale(90.6515 90.6514)">
<stop offset="0.15" stop-color="#353530"/>
<stop offset="0.18" stop-color="#33332E"/>
<stop offset="0.21" stop-color="#31312C"/>
<stop offset="0.7" stop-color="#11110F"/>
<stop offset="1"/>
</radialGradient>
<linearGradient id="paint1_linear_18_286" x1="29.6705" y1="90.7177" x2="86.9573" y2="29.2824" gradientUnits="userSpaceOnUse">
<stop stop-color="#1277C5"/>
<stop offset="0.75" stop-color="#5ED376"/>
</linearGradient>
<linearGradient id="paint2_linear_18_286" x1="28.2806" y1="62.9029" x2="88.3468" y2="62.9029" gradientUnits="userSpaceOnUse">
<stop stop-color="#5ED376"/>
<stop offset="1" stop-color="#5ED376"/>
</linearGradient>
<clipPath id="clip0_18_286">
<rect width="227.459" height="84" fill="white" transform="translate(16.3086 18)"/>
</clipPath>
</defs>
</svg>
