<svg width="249" height="120" viewBox="0 0 249 120" fill="none" xmlns="http://www.w3.org/2000/svg">
<g clip-path="url(#clip0_18_457)">
<path d="M115.83 86.1676C113.694 84.9303 111.92 83.1559 110.683 81.0206C109.407 78.835 108.745 76.3453 108.768 73.8147C108.747 71.2843 109.408 68.7949 110.683 66.6088C111.916 64.4705 113.691 62.6952 115.83 61.4617C118.019 60.195 120.507 59.5375 123.036 59.5574C125.281 59.5197 127.512 59.9218 129.603 60.7411V66.6397C127.662 65.3488 125.365 64.7006 123.036 64.7867C121.422 64.7696 119.833 65.1856 118.434 65.9912C117.066 66.7729 115.932 67.9068 115.15 69.275C114.345 70.6736 113.929 72.2625 113.946 73.8764C113.929 75.4904 114.345 77.0794 115.15 78.4779C115.924 79.8454 117.051 80.9795 118.414 81.7617C119.804 82.568 121.387 82.9841 122.994 82.9662C123.798 82.9595 124.599 82.8942 125.393 82.7706V73.3H130.633V86.2808C128.279 87.5119 125.65 88.1214 122.994 88.0515C120.481 88.0752 118.007 87.4247 115.83 86.1676Z" fill="white"/>
<path d="M151.715 85.3132C150.835 86.2007 149.785 86.9011 148.627 87.372C147.384 87.8569 146.059 88.098 144.725 88.0823C142.776 88.109 140.859 87.5921 139.187 86.5897C137.539 85.5945 136.191 84.1716 135.286 82.472C134.338 80.707 133.853 78.731 133.875 76.7279C133.854 74.7283 134.34 72.7559 135.286 70.9941C136.188 69.2924 137.536 67.8688 139.187 66.8765C140.859 65.874 142.776 65.3572 144.725 65.3838C146.059 65.3681 147.384 65.6092 148.627 66.0941C149.783 66.5675 150.833 67.2675 151.715 68.1529V65.95H156.553V87.5058H151.715V85.3132ZM148.483 82.5647C149.452 81.9943 150.248 81.1727 150.789 80.1867C151.362 79.144 151.653 77.9693 151.633 76.7794C151.657 75.5622 151.355 74.3608 150.758 73.3C150.217 72.314 149.421 71.4924 148.452 70.922C147.464 70.3403 146.335 70.0412 145.189 70.0573C144.036 70.0442 142.901 70.343 141.905 70.922C140.93 71.4885 140.129 72.3108 139.589 73.3C139.013 74.3387 138.719 75.5096 138.734 76.697C138.717 77.8878 139.012 79.0624 139.589 80.1044C140.129 81.0935 140.93 81.9159 141.905 82.4823C142.901 83.0613 144.036 83.3601 145.189 83.347C146.338 83.3938 147.477 83.1231 148.483 82.5647Z" fill="white"/>
<path d="M185.583 71.1794C185.244 70.8161 184.832 70.5284 184.374 70.335C183.917 70.1416 183.424 70.047 182.927 70.0574C182.389 70.0396 181.854 70.1297 181.351 70.3224C180.849 70.5152 180.391 70.8066 180.003 71.1794C179.618 71.5534 179.315 72.0041 179.115 72.5024C178.914 73.0007 178.821 73.5354 178.84 74.0721V87.5162H173.961V74.0721C173.989 73.5458 173.912 73.0192 173.736 72.5226C173.559 72.0261 173.286 71.5695 172.931 71.1794C172.586 70.8129 172.167 70.5235 171.703 70.3301C171.238 70.1367 170.737 70.0438 170.234 70.0574C169.704 70.0406 169.177 70.1315 168.683 70.3243C168.19 70.5172 167.74 70.8081 167.362 71.1794C166.985 71.558 166.69 72.0102 166.495 72.5079C166.3 73.0055 166.21 73.538 166.23 74.0721V87.5162H161.35V65.9603H166.199V68.0191C166.837 67.2448 167.634 66.6164 168.536 66.1765C169.433 65.7281 170.425 65.4987 171.428 65.5074C172.561 65.4978 173.68 65.759 174.692 66.2691C175.691 66.7893 176.555 67.5368 177.214 68.4515C178.008 67.5061 179.018 66.7648 180.158 66.2897C181.349 65.7699 182.636 65.5035 183.936 65.5074C185.318 65.466 186.683 65.8234 187.868 66.5368C189.037 67.2745 189.977 68.3223 190.586 69.5633C191.275 70.9511 191.627 72.4816 191.615 74.0309V87.5162H186.736V74.0721C186.748 73.5372 186.652 73.0054 186.453 72.5084C186.255 72.0114 185.959 71.5595 185.583 71.1794Z" fill="white"/>
<path d="M200.427 86.5587C198.715 85.574 197.294 84.1533 196.309 82.4411C195.299 80.7115 194.776 78.7409 194.796 76.7382C194.779 74.7358 195.302 72.7658 196.309 71.0352C197.296 69.3245 198.716 67.9042 200.427 66.9176C202.171 65.9072 204.155 65.3846 206.171 65.4043C208.118 65.3853 210.033 65.9093 211.699 66.9176C213.357 67.9174 214.72 69.338 215.652 71.0352C216.624 72.7776 217.128 74.7427 217.114 76.7382C217.104 77.4137 217.025 78.0863 216.877 78.7455H199.84C200.201 80.1453 201.029 81.3799 202.187 82.2455C203.325 83.1307 204.73 83.6026 206.171 83.5837C207.252 83.6101 208.321 83.3395 209.259 82.8014C210.136 82.3118 210.832 81.5541 211.246 80.6396H216.527C215.973 82.8241 214.65 84.7355 212.8 86.0234C210.883 87.4012 208.573 88.1232 206.212 88.0823C204.181 88.1063 202.182 87.5798 200.427 86.5587ZM212.111 74.772C211.788 73.3968 211.021 72.1665 209.928 71.272C208.875 70.3939 207.543 69.9194 206.171 69.9337C204.723 69.9142 203.312 70.386 202.167 71.272C201.019 72.1437 200.2 73.3768 199.84 74.772H212.111Z" fill="white"/>
<path d="M220.078 87.2486V82.328C221.591 83.0278 223.215 83.4563 224.875 83.5942C225.503 83.6251 226.123 83.4438 226.636 83.0794C226.862 82.8795 227.039 82.6291 227.152 82.3484C227.265 82.0677 227.31 81.7646 227.284 81.4633C227.278 81.1804 227.213 80.9019 227.095 80.6451C226.976 80.3883 226.806 80.1587 226.594 79.9706C225.895 79.3422 225.152 78.7643 224.371 78.2412C223.113 77.4232 221.961 76.4515 220.943 75.3486C220.123 74.3946 219.689 73.168 219.728 71.9104C219.67 71.0097 219.826 70.108 220.184 69.2794C220.542 68.4508 221.091 67.719 221.787 67.1442C223.296 66.0286 225.141 65.4621 227.017 65.5383C228.3 65.5539 229.575 65.7656 230.794 66.1662V71.0045C230.175 70.6675 229.524 70.395 228.849 70.1912C228.255 70.0093 227.638 69.9123 227.017 69.903C226.387 69.8676 225.762 70.0257 225.225 70.3559C225 70.5004 224.817 70.7025 224.696 70.9414C224.574 71.1804 224.519 71.4474 224.536 71.7148C224.548 71.9621 224.61 72.2043 224.718 72.4272C224.825 72.65 224.977 72.8488 225.164 73.0118C225.815 73.6154 226.503 74.1792 227.222 74.7C228.252 75.4618 229.075 76.1309 229.724 76.7588C230.385 77.3762 230.947 78.0914 231.392 78.8794C231.846 79.6906 232.084 80.6054 232.081 81.5353C232.141 82.4363 232 83.3393 231.669 84.1794C231.338 85.0195 230.825 85.7759 230.167 86.3941C228.669 87.5837 226.784 88.1777 224.875 88.0618C223.244 88.0374 221.626 87.7631 220.078 87.2486Z" fill="white"/>
<path d="M115.83 86.1676C113.694 84.9303 111.92 83.1559 110.683 81.0206C109.407 78.835 108.745 76.3453 108.768 73.8147C108.747 71.2843 109.408 68.7949 110.683 66.6088C111.916 64.4705 113.691 62.6952 115.83 61.4617C118.019 60.195 120.507 59.5375 123.036 59.5574C125.281 59.5197 127.512 59.9218 129.603 60.7411V66.6397C127.662 65.3488 125.365 64.7006 123.036 64.7867C121.422 64.7696 119.833 65.1856 118.434 65.9912C117.066 66.7729 115.932 67.9068 115.15 69.275C114.345 70.6736 113.929 72.2625 113.946 73.8764C113.929 75.4904 114.345 77.0794 115.15 78.4779C115.924 79.8454 117.051 80.9795 118.414 81.7617C119.804 82.568 121.387 82.9841 122.994 82.9662C123.798 82.9595 124.599 82.8942 125.393 82.7706V73.3H130.633V86.2808C128.279 87.5119 125.65 88.1214 122.994 88.0515C120.481 88.0752 118.007 87.4247 115.83 86.1676Z" fill="white"/>
<path d="M151.715 85.3132C150.835 86.2007 149.785 86.9011 148.627 87.372C147.384 87.8569 146.059 88.098 144.725 88.0823C142.776 88.109 140.859 87.5921 139.187 86.5897C137.539 85.5945 136.191 84.1716 135.286 82.472C134.338 80.707 133.853 78.731 133.875 76.7279C133.854 74.7283 134.34 72.7559 135.286 70.9941C136.188 69.2924 137.536 67.8688 139.187 66.8765C140.859 65.874 142.776 65.3572 144.725 65.3838C146.059 65.3681 147.384 65.6092 148.627 66.0941C149.783 66.5675 150.833 67.2675 151.715 68.1529V65.95H156.553V87.5058H151.715V85.3132ZM148.483 82.5647C149.452 81.9943 150.248 81.1727 150.789 80.1867C151.362 79.144 151.653 77.9693 151.633 76.7794C151.657 75.5622 151.355 74.3608 150.758 73.3C150.217 72.314 149.421 71.4924 148.452 70.922C147.464 70.3403 146.335 70.0412 145.189 70.0573C144.036 70.0442 142.901 70.343 141.905 70.922C140.93 71.4885 140.129 72.3108 139.589 73.3C139.013 74.3387 138.719 75.5096 138.734 76.697C138.717 77.8878 139.012 79.0624 139.589 80.1044C140.129 81.0935 140.93 81.9159 141.905 82.4823C142.901 83.0613 144.036 83.3601 145.189 83.347C146.338 83.3938 147.477 83.1231 148.483 82.5647Z" fill="white"/>
<path d="M185.583 71.1794C185.244 70.8161 184.832 70.5284 184.374 70.335C183.917 70.1416 183.424 70.047 182.927 70.0574C182.389 70.0396 181.854 70.1297 181.351 70.3224C180.849 70.5152 180.391 70.8066 180.003 71.1794C179.618 71.5534 179.315 72.0041 179.115 72.5024C178.914 73.0007 178.821 73.5354 178.84 74.0721V87.5162H173.961V74.0721C173.989 73.5458 173.912 73.0192 173.736 72.5226C173.559 72.0261 173.286 71.5695 172.931 71.1794C172.586 70.8129 172.167 70.5235 171.703 70.3301C171.238 70.1367 170.737 70.0438 170.234 70.0574C169.704 70.0406 169.177 70.1315 168.683 70.3243C168.19 70.5172 167.74 70.8081 167.362 71.1794C166.985 71.558 166.69 72.0102 166.495 72.5079C166.3 73.0055 166.21 73.538 166.23 74.0721V87.5162H161.35V65.9603H166.199V68.0191C166.837 67.2448 167.634 66.6164 168.536 66.1765C169.433 65.7281 170.425 65.4987 171.428 65.5074C172.561 65.4978 173.68 65.759 174.692 66.2691C175.691 66.7893 176.555 67.5368 177.214 68.4515C178.008 67.5061 179.018 66.7648 180.158 66.2897C181.349 65.7699 182.636 65.5035 183.936 65.5074C185.318 65.466 186.683 65.8234 187.868 66.5368C189.037 67.2745 189.977 68.3223 190.586 69.5633C191.275 70.9511 191.627 72.4816 191.615 74.0309V87.5162H186.736V74.0721C186.748 73.5372 186.652 73.0054 186.453 72.5084C186.255 72.0114 185.959 71.5595 185.583 71.1794Z" fill="white"/>
<path d="M200.427 86.5587C198.715 85.574 197.294 84.1533 196.309 82.4411C195.299 80.7115 194.776 78.7409 194.796 76.7382C194.779 74.7358 195.302 72.7658 196.309 71.0352C197.296 69.3245 198.716 67.9042 200.427 66.9176C202.171 65.9072 204.155 65.3846 206.171 65.4043C208.118 65.3853 210.033 65.9093 211.699 66.9176C213.357 67.9174 214.72 69.338 215.652 71.0352C216.624 72.7776 217.128 74.7427 217.114 76.7382C217.104 77.4137 217.025 78.0863 216.877 78.7455H199.84C200.201 80.1453 201.029 81.3799 202.187 82.2455C203.325 83.1307 204.73 83.6026 206.171 83.5837C207.252 83.6101 208.321 83.3395 209.259 82.8014C210.136 82.3118 210.832 81.5541 211.246 80.6396H216.527C215.973 82.8241 214.65 84.7355 212.8 86.0234C210.883 87.4012 208.573 88.1232 206.212 88.0823C204.181 88.1063 202.182 87.5798 200.427 86.5587ZM212.111 74.772C211.788 73.3968 211.021 72.1665 209.928 71.272C208.875 70.3939 207.543 69.9194 206.171 69.9337C204.723 69.9142 203.312 70.386 202.167 71.272C201.019 72.1437 200.2 73.3768 199.84 74.772H212.111Z" fill="white"/>
<path d="M220.078 87.2486V82.328C221.591 83.0278 223.215 83.4563 224.875 83.5942C225.503 83.6251 226.123 83.4438 226.636 83.0794C226.862 82.8795 227.039 82.6291 227.152 82.3484C227.265 82.0677 227.31 81.7646 227.284 81.4633C227.278 81.1804 227.213 80.9019 227.095 80.6451C226.976 80.3883 226.806 80.1587 226.594 79.9706C225.895 79.3422 225.152 78.7643 224.371 78.2412C223.113 77.4232 221.961 76.4515 220.943 75.3486C220.123 74.3946 219.689 73.168 219.728 71.9104C219.67 71.0097 219.826 70.108 220.184 69.2794C220.542 68.4508 221.091 67.719 221.787 67.1442C223.296 66.0286 225.141 65.4621 227.017 65.5383C228.3 65.5539 229.575 65.7656 230.794 66.1662V71.0045C230.175 70.6675 229.524 70.395 228.849 70.1912C228.255 70.0093 227.638 69.9123 227.017 69.903C226.387 69.8676 225.762 70.0257 225.225 70.3559C225 70.5004 224.817 70.7025 224.696 70.9414C224.574 71.1804 224.519 71.4474 224.536 71.7148C224.548 71.9621 224.61 72.2043 224.718 72.4272C224.825 72.65 224.977 72.8488 225.164 73.0118C225.815 73.6154 226.503 74.1792 227.222 74.7C228.252 75.4618 229.075 76.1309 229.724 76.7588C230.385 77.3762 230.947 78.0914 231.392 78.8794C231.846 79.6906 232.084 80.6054 232.081 81.5353C232.141 82.4363 232 83.3393 231.669 84.1794C231.338 85.0195 230.825 85.7759 230.167 86.3941C228.669 87.5837 226.784 88.1777 224.875 88.0618C223.244 88.0374 221.626 87.7631 220.078 87.2486Z" fill="white"/>
<path d="M120.061 46.9058L115.439 39.5044H113.318V46.9058H110.322V28.3764H116.859C118.604 28.2518 120.33 28.8048 121.677 29.9205C122.226 30.4515 122.656 31.0932 122.938 31.8032C123.221 32.5131 123.349 33.275 123.314 34.0382C123.368 35.3387 122.935 36.6127 122.099 37.6103C121.167 38.5988 119.917 39.229 118.568 39.3911L123.417 46.9264L120.061 46.9058ZM113.318 37.3735H116.622C119.042 37.3735 120.246 36.3441 120.246 34.172C120.27 33.7376 120.204 33.3028 120.052 32.8952C119.9 32.4876 119.664 32.1161 119.361 31.8044C118.596 31.1697 117.612 30.8626 116.622 30.9499H113.318V37.3735Z" fill="white"/>
<path d="M129.017 28.3765V46.9059H126.052V28.3765H129.017Z" fill="white"/>
<path d="M146.64 29.8485C148.105 30.9322 149.137 32.501 149.553 34.275H146.403C146.003 33.2933 145.309 32.4592 144.417 31.8868C143.438 31.2812 142.304 30.9736 141.153 31.0014C140.069 30.9886 139.002 31.2697 138.065 31.8147C137.142 32.3618 136.396 33.1621 135.914 34.1206C135.377 35.2151 135.112 36.4227 135.142 37.6412C135.107 38.9021 135.379 40.1525 135.934 41.2853C136.421 42.266 137.192 43.0768 138.147 43.6117C139.167 44.1634 140.313 44.4401 141.472 44.4147C142.925 44.4469 144.338 43.9368 145.436 42.9838C146.564 41.9704 147.273 40.5713 147.422 39.0618H140.628V36.8486H149.893V39.7103C149.7 41.0439 149.204 42.3153 148.442 43.4265C147.667 44.5465 146.632 45.4615 145.425 46.0927C144.102 46.7874 142.627 47.1412 141.133 47.1221C139.458 47.1557 137.805 46.7399 136.346 45.9177C134.985 45.1267 133.875 43.9669 133.144 42.5721C132.375 41.0553 131.99 39.3726 132.022 37.6721C131.988 35.9714 132.374 34.2885 133.144 32.7721C133.87 31.3826 134.977 30.2291 136.336 29.4471C137.788 28.6273 139.435 28.2148 141.102 28.2529C143.073 28.1646 145.018 28.7251 146.64 29.8485Z" fill="white"/>
<path d="M167.65 28.3765V46.9059H164.634V38.5883H155.905V46.9059H152.919V28.3765H155.905V36.1485H164.624V28.3765H167.65Z" fill="white"/>
<path d="M183.194 28.3765V30.7853H178.047V46.9059H175.031V30.7853H169.884V28.3765H183.194Z" fill="white"/>
<path d="M58.79 18C47.651 18 36.9681 22.425 29.0916 30.3015C21.215 38.178 16.79 48.8609 16.79 60C16.79 71.1391 21.215 81.8219 29.0916 89.6984C36.9681 97.575 47.651 102 58.79 102C69.9291 102 80.612 97.575 88.4885 89.6984C96.3651 81.8219 100.79 71.1391 100.79 60C100.79 48.8609 96.3651 38.178 88.4885 30.3015C80.612 22.425 69.9291 18 58.79 18Z" fill="url(#paint0_radial_18_457)"/>
<path d="M58.79 24.4647C68.2122 24.4756 77.2455 28.2226 83.9089 34.8841C90.5723 41.5456 94.322 50.5778 94.3356 60C94.3247 69.4239 90.5763 78.4587 83.9125 85.1224C77.2488 91.7862 68.214 95.5346 58.79 95.5455C49.3671 95.5346 40.3333 91.7858 33.6712 85.1218C27.0091 78.4578 23.2629 69.423 23.2547 60C23.2656 50.5788 27.013 41.5466 33.6748 34.8848C40.3366 28.223 49.3688 24.4756 58.79 24.4647ZM58.79 18C47.651 18 36.9681 22.425 29.0916 30.3015C21.215 38.178 16.79 48.8609 16.79 60C16.79 71.1391 21.215 81.8219 29.0916 89.6984C36.9681 97.575 47.651 102 58.79 102C69.9291 102 80.612 97.575 88.4885 89.6984C96.3651 81.8219 100.79 71.1391 100.79 60C100.79 48.8609 96.3651 38.178 88.4885 30.3015C80.612 22.425 69.9291 18 58.79 18Z" fill="url(#paint1_linear_18_457)"/>
<path d="M66.5724 52.3823L62.2283 55.6867C61.5581 56.1738 60.7509 56.4361 59.9224 56.4361C59.0939 56.4361 58.2867 56.1738 57.6165 55.6867L53.3136 52.3823C52.9939 52.1425 52.7345 51.8317 52.5559 51.4744C52.3772 51.117 52.2841 50.723 52.2841 50.3234V39.8646C52.3378 38.9787 52.7085 38.1418 53.3285 37.5067C53.9485 36.8716 54.7763 36.4808 55.6606 36.4058H64.2871C65.1696 36.4831 65.995 36.875 66.6128 37.5098C67.2307 38.1447 67.5999 38.9804 67.6533 39.8646V50.3234C67.6482 50.7275 67.5476 51.1247 67.3597 51.4825C67.1719 51.8403 66.9021 52.1486 66.5724 52.3823Z" fill="#111111"/>
<path d="M53.3547 69.9648L57.6577 66.6603C58.3279 66.1732 59.1351 65.9109 59.9636 65.9109C60.7921 65.9109 61.5993 66.1732 62.2694 66.6603L66.5724 69.9648C66.8926 70.2039 67.1525 70.5146 67.3312 70.8721C67.5099 71.2296 67.6026 71.6239 67.6018 72.0236V82.4824C67.5484 83.3667 67.1792 84.2023 66.5613 84.8372C65.9435 85.4721 65.1181 85.8639 64.2356 85.9413H55.6297C54.7454 85.8662 53.9176 85.4754 53.2976 84.8403C52.6777 84.2053 52.307 83.3683 52.2533 82.4824V72.0236C52.2615 71.6179 52.3656 71.2198 52.5571 70.862C52.7485 70.5042 53.0218 70.1968 53.3547 69.9648Z" fill="#111111"/>
<path d="M51.1621 54.5646L54.4768 58.8675C54.9594 59.5396 55.219 60.3461 55.219 61.1734C55.219 62.0008 54.9594 62.8073 54.4768 63.4794L51.1621 67.7823C50.9246 68.1043 50.6143 68.3655 50.2564 68.5444C49.8985 68.7234 49.5034 68.815 49.1033 68.8117H38.6856C37.8017 68.7601 36.9662 68.3912 36.3326 67.7727C35.699 67.1543 35.31 66.3279 35.2371 65.4455V56.8293C35.31 55.9469 35.699 55.1206 36.3326 54.5021C36.9662 53.8836 37.8017 53.5147 38.6856 53.4631H49.1547C49.5523 53.4762 49.9413 53.5827 50.29 53.7741C50.6388 53.9654 50.9375 54.2363 51.1621 54.5646Z" fill="#111111"/>
<path d="M68.7547 67.7825L65.4503 63.4796C64.9632 62.8094 64.7009 62.0021 64.7009 61.1736C64.7009 60.3451 64.9632 59.5379 65.4503 58.8677L68.7547 54.5648C68.9876 54.2503 69.2898 53.9939 69.638 53.8153C69.9862 53.6368 70.3708 53.541 70.7621 53.5354H81.2312C82.1162 53.5867 82.9531 53.9552 83.5883 54.5735C84.2236 55.1917 84.6148 56.0183 84.69 56.9016V65.5075C84.6148 66.3907 84.2236 67.2173 83.5883 67.8356C82.9531 68.4538 82.1162 68.8224 81.2312 68.8737H70.7621C70.3656 68.861 69.9775 68.7557 69.629 68.5662C69.2804 68.3768 68.981 68.1084 68.7547 67.7825Z" fill="#111111"/>
<path d="M65.9547 51.7647L61.6518 55.069C60.9816 55.5561 60.1744 55.8186 59.3459 55.8186C58.5174 55.8186 57.7102 55.5561 57.04 55.069L52.7371 51.7647C52.4151 51.5272 52.1539 51.2168 51.9749 50.859C51.796 50.5011 51.7044 50.1059 51.7077 49.7059V39.3294C51.7616 38.4446 52.1327 37.6089 52.7529 36.9755C53.373 36.3421 54.2007 35.9535 55.0841 35.8809H63.6797C64.5632 35.9535 65.3909 36.3421 66.011 36.9755C66.6312 37.6089 67.0022 38.4446 67.0562 39.3294V49.7985C67.0361 50.1888 66.9262 50.5692 66.7352 50.9102C66.5442 51.2512 66.2771 51.5437 65.9547 51.7647Z" fill="#111111"/>
<path d="M52.7371 69.3574L57.0812 66.0942C57.7514 65.6071 58.5586 65.3447 59.3871 65.3447C60.2156 65.3447 61.0228 65.6071 61.693 66.0942L65.9959 69.3986C66.3173 69.6366 66.5781 69.9471 66.7569 70.3048C66.9358 70.6625 67.0278 71.0575 67.0253 71.4574V81.9265C66.9717 82.8124 66.6009 83.6494 65.981 84.2845C65.361 84.9196 64.5332 85.3103 63.6489 85.3853H55.0224C54.138 85.3103 53.3102 84.9196 52.6903 84.2845C52.0703 83.6494 51.6996 82.8124 51.6459 81.9265V71.4574C51.643 71.045 51.7409 70.6381 51.9311 70.2721C52.1213 69.9061 52.398 69.5921 52.7371 69.3574Z" fill="#111111"/>
<path d="M50.5547 53.9574L53.8592 58.2501C54.3456 58.9224 54.6075 59.7312 54.6075 60.5611C54.6075 61.391 54.3456 62.1997 53.8592 62.8721L50.5547 67.175C50.315 67.4947 50.0042 67.7541 49.6468 67.9328C49.2895 68.1115 48.8954 68.2045 48.4959 68.2045H38.0783C37.1924 68.1508 36.3554 67.7801 35.7203 67.1601C35.0852 66.5401 34.6945 65.7124 34.6194 64.828V56.2324C34.6945 55.3481 35.0852 54.5203 35.7203 53.9003C36.3554 53.2804 37.1924 52.9096 38.0783 52.856H48.5474C48.9446 52.8706 49.333 52.9778 49.6815 53.169C50.03 53.3603 50.329 53.6302 50.5547 53.9574Z" fill="#111111"/>
<path d="M68.1474 67.175L64.8327 62.8721C64.3507 62.1979 64.0915 61.3898 64.0915 60.561C64.0915 59.7323 64.3507 58.9242 64.8327 58.25L68.1474 53.9574C68.3802 53.6429 68.6825 53.3864 69.0307 53.2078C69.3788 53.0293 69.7635 52.9335 70.1547 52.928H80.6239C81.5086 52.9819 82.3443 53.353 82.9777 53.9732C83.6111 54.5933 83.9998 55.421 84.0724 56.3044V64.9C83.9998 65.7835 83.6111 66.6111 82.9777 67.2313C82.3443 67.8514 81.5086 68.2225 80.6239 68.2765H70.1547C69.7577 68.261 69.3696 68.1535 69.0212 67.9623C68.6729 67.7712 68.3737 67.5016 68.1474 67.175Z" fill="#111111"/>
<path d="M65.3165 51.1574L61.0136 54.4618C60.3434 54.9489 59.5362 55.2113 58.7077 55.2113C57.8792 55.2113 57.072 54.9489 56.4018 54.4618L52.0989 51.1574C51.7786 50.9182 51.5188 50.6075 51.3401 50.2501C51.1613 49.8926 51.0686 49.4982 51.0694 49.0986V38.6295C51.1207 37.7445 51.4893 36.9076 52.1075 36.2723C52.7258 35.637 53.5523 35.2459 54.4356 35.1707H63.0415C63.9248 35.2459 64.7513 35.637 65.3696 36.2723C65.9878 36.9076 66.3564 37.7445 66.4077 38.6295V49.0986C66.4014 49.5035 66.2992 49.9013 66.1096 50.2592C65.9199 50.617 65.6481 50.9248 65.3165 51.1574Z" fill="#111111"/>
<path d="M52.1298 68.7397L56.4327 65.4352C57.1029 64.9481 57.9101 64.6858 58.7386 64.6858C59.5671 64.6858 60.3743 64.9481 61.0445 65.4352L65.3474 68.7397C65.6676 68.9788 65.9275 69.2895 66.1062 69.647C66.285 70.0045 66.3776 70.3988 66.3768 70.7985V81.2573C66.3255 82.1423 65.957 82.9791 65.3387 83.6144C64.7204 84.2497 63.8939 84.6409 63.0106 84.7162H54.4048C53.5215 84.6409 52.6949 84.2497 52.0767 83.6144C51.4584 82.9791 51.0898 82.1423 51.0386 81.2573V70.7985C51.0449 70.3935 51.147 69.9958 51.3367 69.6379C51.5264 69.28 51.7981 68.9722 52.1298 68.7397Z" fill="#111111"/>
<path d="M49.9474 53.3397L53.2518 57.6426C53.7389 58.3128 54.0013 59.1201 54.0013 59.9486C54.0013 60.7771 53.7389 61.5843 53.2518 62.2545L49.9474 66.5574C49.7082 66.8776 49.3975 67.1374 49.04 67.3162C48.6826 67.4949 48.2882 67.5876 47.8886 67.5868H37.5224C36.6374 67.5355 35.8005 67.167 35.1653 66.5487C34.53 65.9304 34.1388 65.1039 34.0636 64.2206V55.6147C34.1388 54.7315 34.53 53.9049 35.1653 53.2866C35.8005 52.6684 36.6374 52.2998 37.5224 52.2485H47.9812C48.3703 52.269 48.7496 52.3779 49.0903 52.567C49.431 52.7561 49.7242 53.0203 49.9474 53.3397Z" fill="#111111"/>
<path d="M67.5297 66.5574L64.2253 62.2545C63.7382 61.5843 63.4759 60.7771 63.4759 59.9486C63.4759 59.1201 63.7382 58.3128 64.2253 57.6426L67.5297 53.3397C67.7626 53.0252 68.0648 52.7688 68.413 52.5902C68.7612 52.4117 69.1459 52.3159 69.5371 52.3103H80.0062C80.8912 52.3616 81.7281 52.7301 82.3633 53.3484C82.9986 53.9667 83.3898 54.7932 83.465 55.6765V64.2824C83.3898 65.1656 82.9986 65.9922 82.3633 66.6105C81.7281 67.2287 80.8912 67.5973 80.0062 67.6486H69.5371C69.1406 67.6359 68.7525 67.5306 68.404 67.3411C68.0554 67.1517 67.756 66.8833 67.5297 66.5574Z" fill="#111111"/>
<path d="M65.3165 51.1574L61.0136 54.4618C60.3434 54.9489 59.5362 55.2113 58.7077 55.2113C57.8792 55.2113 57.072 54.9489 56.4018 54.4618L52.0989 51.1574C51.7786 50.9182 51.5188 50.6075 51.3401 50.2501C51.1613 49.8926 51.0686 49.4982 51.0694 49.0986V38.6295C51.1207 37.7445 51.4893 36.9076 52.1075 36.2723C52.7258 35.637 53.5523 35.2459 54.4356 35.1707H63.0415C63.9248 35.2459 64.7513 35.637 65.3696 36.2723C65.9878 36.9076 66.3564 37.7445 66.4077 38.6295V49.0986C66.4014 49.5035 66.2992 49.9013 66.1096 50.2592C65.9199 50.617 65.6481 50.9248 65.3165 51.1574Z" fill="url(#paint2_linear_18_457)"/>
<path d="M52.1298 68.7397L56.4327 65.4352C57.1029 64.9481 57.9101 64.6858 58.7386 64.6858C59.5671 64.6858 60.3743 64.9481 61.0445 65.4352L65.3474 68.7397C65.6676 68.9788 65.9275 69.2895 66.1062 69.647C66.285 70.0045 66.3776 70.3988 66.3768 70.7985V81.2573C66.3255 82.1423 65.957 82.9791 65.3387 83.6144C64.7204 84.2497 63.8939 84.6409 63.0106 84.7162H54.4048C53.5215 84.6409 52.6949 84.2497 52.0767 83.6144C51.4584 82.9791 51.0898 82.1423 51.0386 81.2573V70.7985C51.0449 70.3935 51.147 69.9958 51.3367 69.6379C51.5264 69.28 51.7981 68.9722 52.1298 68.7397Z" fill="url(#paint3_linear_18_457)"/>
<path d="M49.9474 53.3397L53.2518 57.6426C53.7389 58.3128 54.0013 59.1201 54.0013 59.9486C54.0013 60.7771 53.7389 61.5843 53.2518 62.2545L49.9474 66.5574C49.7082 66.8776 49.3975 67.1374 49.04 67.3162C48.6826 67.4949 48.2882 67.5876 47.8886 67.5868H37.5224C36.6374 67.5355 35.8005 67.167 35.1653 66.5487C34.53 65.9304 34.1388 65.1039 34.0636 64.2206V55.6147C34.1388 54.7315 34.53 53.9049 35.1653 53.2866C35.8005 52.6684 36.6374 52.2998 37.5224 52.2485H47.9812C48.3703 52.269 48.7496 52.3779 49.0903 52.567C49.431 52.7561 49.7242 53.0203 49.9474 53.3397Z" fill="url(#paint4_linear_18_457)"/>
<path d="M67.5297 66.5574L64.2253 62.2545C63.7382 61.5843 63.4759 60.7771 63.4759 59.9486C63.4759 59.1201 63.7382 58.3128 64.2253 57.6426L67.5297 53.3397C67.7626 53.0252 68.0648 52.7688 68.413 52.5902C68.7612 52.4117 69.1459 52.3159 69.5371 52.3103H80.0062C80.8912 52.3616 81.7281 52.7301 82.3633 53.3484C82.9986 53.9667 83.3898 54.7932 83.465 55.6765V64.2824C83.3898 65.1656 82.9986 65.9922 82.3633 66.6105C81.7281 67.2287 80.8912 67.5973 80.0062 67.6486H69.5371C69.1406 67.6359 68.7525 67.5306 68.404 67.3411C68.0554 67.1517 67.756 66.8833 67.5297 66.5574Z" fill="url(#paint5_linear_18_457)"/>
</g>
<defs>
<radialGradient id="paint0_radial_18_457" cx="0" cy="0" r="1" gradientUnits="userSpaceOnUse" gradientTransform="translate(78.7625 29.6764) scale(90.6514 90.6514)">
<stop offset="0.15" stop-color="#353530"/>
<stop offset="0.18" stop-color="#33332E"/>
<stop offset="0.21" stop-color="#31312C"/>
<stop offset="0.7" stop-color="#11110F"/>
<stop offset="1"/>
</radialGradient>
<linearGradient id="paint1_linear_18_457" x1="16.79" y1="60" x2="100.79" y2="60" gradientUnits="userSpaceOnUse">
<stop stop-color="#5C1CB2"/>
<stop offset="0.1" stop-color="#7118B4"/>
<stop offset="0.31" stop-color="#A90FB9"/>
<stop offset="0.59" stop-color="#FF00C1"/>
</linearGradient>
<linearGradient id="paint2_linear_18_457" x1="51.0694" y1="45.2177" x2="66.4077" y2="45.2177" gradientUnits="userSpaceOnUse">
<stop stop-color="#A90004"/>
<stop offset="0.5" stop-color="#D40076"/>
<stop offset="1" stop-color="#E900DD"/>
</linearGradient>
<linearGradient id="paint3_linear_18_457" x1="51.0695" y1="74.6794" x2="66.4077" y2="74.6794" gradientUnits="userSpaceOnUse">
<stop stop-color="#A90004"/>
<stop offset="0.5" stop-color="#D40076"/>
<stop offset="1" stop-color="#E900DD"/>
</linearGradient>
<linearGradient id="paint4_linear_18_457" x1="34.0121" y1="59.9485" x2="53.993" y2="59.9485" gradientUnits="userSpaceOnUse">
<stop stop-color="#A90004"/>
<stop offset="0.5" stop-color="#D40076"/>
<stop offset="1" stop-color="#E900DD"/>
</linearGradient>
<linearGradient id="paint5_linear_18_457" x1="63.4739" y1="59.9486" x2="83.465" y2="59.9486" gradientUnits="userSpaceOnUse">
<stop stop-color="#A90004"/>
<stop offset="0.5" stop-color="#D40076"/>
<stop offset="1" stop-color="#E900DD"/>
</linearGradient>
<clipPath id="clip0_18_457">
<rect width="215.332" height="84" fill="white" transform="translate(16.79 18)"/>
</clipPath>
</defs>
</svg>
