<svg width="341" height="120" viewBox="0 0 341 120" fill="none" xmlns="http://www.w3.org/2000/svg">
<path d="M118.178 72.0956V66.6294C119.105 67.1479 120.085 67.5654 121.102 67.875C122.002 68.1579 122.938 68.3104 123.881 68.3279C126.424 68.3279 127.69 67.2059 127.69 64.9823C127.686 64.5822 127.601 64.1871 127.44 63.8208C127.279 63.4545 127.045 63.1247 126.753 62.8514C125.842 62.0019 124.853 61.2403 123.799 60.5765C122.543 59.6809 121.513 58.8985 120.71 58.2088C119.882 57.5072 119.185 56.6636 118.652 55.7176C118.074 54.691 117.779 53.5294 117.797 52.3515C117.725 51.2687 117.905 50.1838 118.325 49.1831C118.745 48.1824 119.393 47.2934 120.216 46.5867C121.985 45.2366 124.17 44.5482 126.393 44.6411C127.987 44.65 129.569 44.9177 131.077 45.4338V50.8588C130.368 50.4085 129.598 50.0619 128.791 49.8294C128.012 49.6024 127.205 49.4846 126.393 49.4794C125.513 49.4418 124.644 49.6754 123.902 50.1485C123.579 50.3815 123.321 50.6927 123.152 51.0528C122.982 51.413 122.908 51.8103 122.934 52.2073C122.95 52.5662 123.039 52.918 123.195 53.2417C123.35 53.5654 123.57 53.8544 123.84 54.0912C124.725 54.9316 125.672 55.7057 126.671 56.4074C127.978 57.4368 129.038 58.2294 129.841 58.9706C130.659 59.7379 131.354 60.6268 131.9 61.6059C132.498 62.6443 132.804 63.8253 132.785 65.0235C132.785 67.7686 131.979 69.8069 130.366 71.1383C128.5 72.5479 126.196 73.2517 123.86 73.125C121.917 73.161 119.986 72.8111 118.178 72.0956Z" fill="white"/>
<path d="M141.031 71.7662C139.321 70.7795 137.9 69.3592 136.914 67.6485C135.906 65.9179 135.383 63.9479 135.4 61.9455C135.382 59.9397 135.905 57.9661 136.914 56.2323C137.895 54.5177 139.317 53.0962 141.031 52.1147C142.779 51.1153 144.762 50.6 146.775 50.622C148.769 50.6005 150.732 51.1161 152.458 52.1147C154.175 53.093 155.597 54.5152 156.575 56.2323C157.573 57.9697 158.089 59.9421 158.068 61.9455C158.087 63.9455 157.572 65.9144 156.575 67.6485C155.592 69.3616 154.171 70.7827 152.458 71.7662C150.736 72.7757 148.772 73.2987 146.775 73.2794C144.759 73.3017 142.775 72.7789 141.031 71.7662ZM149.987 67.7309C150.962 67.1559 151.763 66.3269 152.303 65.3324C152.878 64.3074 153.18 63.1516 153.178 61.9765C153.193 60.7976 152.895 59.636 152.314 58.6103C151.763 57.6284 150.965 56.8083 149.997 56.2323C149.019 55.6546 147.901 55.3556 146.765 55.3677C145.626 55.3584 144.506 55.6572 143.522 56.2323C142.548 56.7988 141.747 57.6211 141.206 58.6103C140.633 59.6388 140.339 60.7992 140.352 61.9765C140.341 63.1567 140.636 64.3198 141.206 65.353C141.746 66.3553 142.555 67.1863 143.543 67.7514C144.534 68.3255 145.661 68.624 146.806 68.6162C147.927 68.6106 149.025 68.3049 149.987 67.7309Z" fill="white"/>
<path d="M165.953 71.7663C164.242 70.7797 162.822 69.3594 161.835 67.6487C160.825 65.9189 160.299 63.949 160.312 61.9457C160.297 59.939 160.824 57.9654 161.835 56.2325C162.822 54.5218 164.242 53.1015 165.953 52.1148C167.705 51.1183 169.693 50.6133 171.708 50.6531C172.83 50.6417 173.946 50.8156 175.012 51.1678V56.3148C174.046 55.6333 172.89 55.2731 171.708 55.2854C170.562 55.275 169.435 55.5738 168.444 56.1501C167.456 56.7154 166.638 57.5369 166.077 58.5281C165.496 59.5538 165.197 60.7154 165.212 61.8942C165.199 63.0696 165.497 64.2276 166.077 65.2501C166.638 66.2413 167.456 67.0628 168.444 67.6281C169.435 68.2044 170.562 68.5032 171.708 68.4928C172.883 68.5127 174.037 68.1713 175.012 67.5148V72.6619C173.946 73.0141 172.83 73.188 171.708 73.1766C169.698 73.2321 167.71 72.7449 165.953 71.7663Z" fill="white"/>
<path d="M179.099 44.1367H184.061V48.6559H179.099V44.1367ZM179.099 51.1676H184.061V72.7853H179.181L179.099 51.1676Z" fill="white"/>
<path d="M205.421 70.531C204.541 71.4185 203.491 72.1188 202.333 72.5898C201.103 73.0697 199.793 73.3108 198.473 73.3001C196.52 73.327 194.599 72.8102 192.924 71.8074C191.276 70.8144 189.931 69.3908 189.033 67.6898C188.064 65.9416 187.557 63.9752 187.561 61.9765C187.537 59.972 188.026 57.9947 188.981 56.2324C189.88 54.5314 191.225 53.1077 192.873 52.1148C194.566 51.1135 196.506 50.6071 198.473 50.653C199.803 50.6383 201.124 50.8795 202.364 51.3633C203.523 51.8312 204.574 52.5319 205.452 53.4221V51.2089H210.29V72.8265H205.452L205.421 70.531ZM202.199 67.731C203.163 67.1572 203.955 66.3362 204.495 65.353C205.067 64.3135 205.358 63.1425 205.339 61.9559C205.359 60.766 205.068 59.5913 204.495 58.5486C203.955 57.5655 203.163 56.7445 202.199 56.1706C201.207 55.5891 200.075 55.2901 198.925 55.306C197.773 55.2929 196.638 55.5916 195.642 56.1706C194.67 56.7408 193.87 57.5622 193.325 58.5486C192.752 59.5913 192.461 60.766 192.481 61.9559C192.462 63.1425 192.753 64.3135 193.325 65.353C193.87 66.3394 194.67 67.1609 195.642 67.731C196.638 68.31 197.773 68.6087 198.925 68.5957C200.075 68.6115 201.207 68.3125 202.199 67.731Z" fill="white"/>
<path d="M215.005 43.7043H219.884V72.7338H215.005V43.7043Z" fill="white"/>
<path d="M234.749 45.197H243.406C244.86 45.1684 246.299 45.4972 247.596 46.1544C248.772 46.761 249.759 47.6799 250.447 48.8103C251.133 49.9504 251.489 51.258 251.477 52.5882C251.496 53.8087 251.183 55.0116 250.571 56.0676C250.004 57.0757 249.162 57.9008 248.142 58.4456C249.53 58.7826 250.755 59.5992 251.6 60.7514C252.486 61.981 252.941 63.4678 252.897 64.9823C252.908 66.3741 252.553 67.7444 251.868 68.9559C251.207 70.1224 250.234 71.0813 249.058 71.7249C247.796 72.4162 246.378 72.7707 244.94 72.7543H234.749V45.197ZM242.778 56.6029C243.239 56.6193 243.698 56.5439 244.129 56.3813C244.56 56.2188 244.955 55.9722 245.29 55.6558C245.625 55.3453 245.89 54.9672 246.067 54.5466C246.244 54.126 246.33 53.6725 246.319 53.2161C246.328 52.7662 246.241 52.3196 246.063 51.9061C245.886 51.4925 245.622 51.1214 245.29 50.8176C244.955 50.5013 244.56 50.2547 244.129 50.0921C243.698 49.9295 243.239 49.8542 242.778 49.8705H239.783V56.6029H242.778ZM244.353 68.05C244.806 68.0562 245.255 67.9678 245.671 67.7906C246.088 67.6133 246.463 67.3511 246.772 67.0206C247.089 66.6939 247.337 66.3069 247.502 65.8825C247.666 65.4581 247.744 65.0049 247.73 64.55C247.745 64.0748 247.661 63.6016 247.484 63.1604C247.307 62.7192 247.04 62.3196 246.7 61.9867C246.363 61.662 245.965 61.4082 245.528 61.2403C245.091 61.0723 244.625 60.9935 244.158 61.0088H239.752V68.0088L244.353 68.05Z" fill="white"/>
<path d="M261.143 71.7662C259.431 70.7815 258.01 69.3608 257.026 67.6486C256.018 65.918 255.495 63.948 255.512 61.9456C255.494 59.9398 256.017 57.9662 257.026 56.2324C258.005 54.5162 259.427 53.0943 261.143 52.1147C262.887 51.1143 264.867 50.5989 266.877 50.6221C268.874 50.5993 270.841 51.1149 272.57 52.1147C274.266 53.1023 275.67 54.5235 276.636 56.2324C277.634 57.9698 278.149 59.9422 278.128 61.9456C278.148 63.9456 277.632 65.9144 276.636 67.6486C275.665 69.3537 274.262 70.7736 272.57 71.7662C270.844 72.7771 268.877 73.3001 266.877 73.2795C264.864 73.3004 262.883 72.7776 261.143 71.7662ZM270.089 67.731C271.064 67.156 271.864 66.327 272.405 65.3324C272.973 64.2984 273.263 63.1353 273.249 61.9559C273.264 60.7771 272.965 59.6155 272.384 58.5898C271.834 57.6079 271.035 56.7879 270.068 56.2118C269.094 55.6335 267.979 55.3343 266.846 55.3471C265.704 55.3365 264.58 55.6354 263.593 56.2118C262.621 56.782 261.821 57.6034 261.277 58.5898C260.707 59.6192 260.416 60.7795 260.433 61.9559C260.419 63.1353 260.709 64.2984 261.277 65.3324C261.82 66.3319 262.629 67.1619 263.614 67.731C264.605 68.305 265.732 68.6035 266.877 68.5956C268.006 68.6034 269.116 68.3046 270.089 67.731Z" fill="white"/>
<path d="M286.055 71.7662C284.344 70.7795 282.924 69.3592 281.937 67.6485C280.93 65.9179 280.407 63.9479 280.424 61.9455C280.406 59.9397 280.928 57.9661 281.937 56.2323C282.919 54.5177 284.34 53.0962 286.055 52.1147C287.803 51.1153 289.786 50.6 291.799 50.622C293.793 50.6005 295.756 51.1161 297.481 52.1147C299.198 53.093 300.621 54.5152 301.599 56.2323C302.593 57.9712 303.108 59.9426 303.092 61.9455C303.106 63.945 302.591 65.9127 301.599 67.6485C300.615 69.3616 299.194 70.7827 297.481 71.7662C295.759 72.7757 293.795 73.2987 291.799 73.2794C289.783 73.3017 287.798 72.7789 286.055 71.7662ZM295 67.7309C295.982 67.1603 296.787 66.3304 297.327 65.3324C297.895 64.2984 298.185 63.1353 298.171 61.9558C298.186 60.777 297.887 59.6155 297.306 58.5897C296.756 57.6078 295.957 56.7878 294.99 56.2118C294.012 55.6341 292.894 55.335 291.758 55.347C290.619 55.3378 289.498 55.6366 288.515 56.2118C287.541 56.7782 286.74 57.6006 286.199 58.5897C285.626 59.6183 285.332 60.7785 285.345 61.9558C285.334 63.1361 285.628 64.2992 286.199 65.3324C286.738 66.3347 287.548 67.1657 288.536 67.7309C289.526 68.3063 290.653 68.6049 291.799 68.5956C292.925 68.6046 294.032 68.3056 295 67.7309Z" fill="white"/>
<path d="M311.43 63.0059V72.7647H306.56V43.7354H311.44V60.8853L318.553 51.1986H324.421L316.35 61.9456L324.421 72.7647H318.553L311.43 63.0059Z" fill="white"/>
<path d="M118.178 72.0956V66.6294C119.105 67.1479 120.085 67.5654 121.102 67.875C122.002 68.1579 122.938 68.3104 123.881 68.3279C126.424 68.3279 127.69 67.2059 127.69 64.9823C127.686 64.5822 127.601 64.1871 127.44 63.8208C127.279 63.4545 127.045 63.1247 126.753 62.8514C125.842 62.0019 124.853 61.2403 123.799 60.5765C122.543 59.6809 121.513 58.8985 120.71 58.2088C119.882 57.5072 119.185 56.6636 118.652 55.7176C118.074 54.691 117.779 53.5294 117.797 52.3515C117.725 51.2687 117.905 50.1838 118.325 49.1831C118.745 48.1824 119.393 47.2934 120.216 46.5867C121.985 45.2366 124.17 44.5482 126.393 44.6411C127.987 44.65 129.569 44.9177 131.077 45.4338V50.8588C130.368 50.4085 129.598 50.0619 128.791 49.8294C128.012 49.6024 127.205 49.4846 126.393 49.4794C125.513 49.4418 124.644 49.6754 123.902 50.1485C123.579 50.3815 123.321 50.6927 123.152 51.0528C122.982 51.413 122.908 51.8103 122.934 52.2073C122.95 52.5662 123.039 52.918 123.195 53.2417C123.35 53.5654 123.57 53.8544 123.84 54.0912C124.725 54.9316 125.672 55.7057 126.671 56.4074C127.978 57.4368 129.038 58.2294 129.841 58.9706C130.659 59.7379 131.354 60.6268 131.9 61.6059C132.498 62.6443 132.804 63.8253 132.785 65.0235C132.785 67.7686 131.979 69.8069 130.366 71.1383C128.5 72.5479 126.196 73.2517 123.86 73.125C121.917 73.161 119.986 72.8111 118.178 72.0956Z" fill="white"/>
<path d="M141.031 71.7662C139.321 70.7795 137.9 69.3592 136.914 67.6485C135.906 65.9179 135.383 63.9479 135.4 61.9455C135.382 59.9397 135.905 57.9661 136.914 56.2323C137.895 54.5177 139.317 53.0962 141.031 52.1147C142.779 51.1153 144.762 50.6 146.775 50.622C148.769 50.6005 150.732 51.1161 152.458 52.1147C154.175 53.093 155.597 54.5152 156.575 56.2323C157.573 57.9697 158.089 59.9421 158.068 61.9455C158.087 63.9455 157.572 65.9144 156.575 67.6485C155.592 69.3616 154.171 70.7827 152.458 71.7662C150.736 72.7757 148.772 73.2987 146.775 73.2794C144.759 73.3017 142.775 72.7789 141.031 71.7662ZM149.987 67.7309C150.962 67.1559 151.763 66.3269 152.303 65.3324C152.878 64.3074 153.18 63.1516 153.178 61.9765C153.193 60.7976 152.895 59.636 152.314 58.6103C151.763 57.6284 150.965 56.8083 149.997 56.2323C149.019 55.6546 147.901 55.3556 146.765 55.3677C145.626 55.3584 144.506 55.6572 143.522 56.2323C142.548 56.7988 141.747 57.6211 141.206 58.6103C140.633 59.6388 140.339 60.7992 140.352 61.9765C140.341 63.1567 140.636 64.3198 141.206 65.353C141.746 66.3553 142.555 67.1863 143.543 67.7514C144.534 68.3255 145.661 68.624 146.806 68.6162C147.927 68.6106 149.025 68.3049 149.987 67.7309Z" fill="white"/>
<path d="M165.953 71.7663C164.242 70.7797 162.822 69.3594 161.835 67.6487C160.825 65.9189 160.299 63.949 160.312 61.9457C160.297 59.939 160.824 57.9654 161.835 56.2325C162.822 54.5218 164.242 53.1015 165.953 52.1148C167.705 51.1183 169.693 50.6133 171.708 50.6531C172.83 50.6417 173.946 50.8156 175.012 51.1678V56.3148C174.046 55.6333 172.89 55.2731 171.708 55.2854C170.562 55.275 169.435 55.5738 168.444 56.1501C167.456 56.7154 166.638 57.5369 166.077 58.5281C165.496 59.5538 165.197 60.7154 165.212 61.8942C165.199 63.0696 165.497 64.2276 166.077 65.2501C166.638 66.2413 167.456 67.0628 168.444 67.6281C169.435 68.2044 170.562 68.5032 171.708 68.4928C172.883 68.5127 174.037 68.1713 175.012 67.5148V72.6619C173.946 73.0141 172.83 73.188 171.708 73.1766C169.698 73.2321 167.71 72.7449 165.953 71.7663Z" fill="white"/>
<path d="M179.099 44.1367H184.061V48.6559H179.099V44.1367ZM179.099 51.1676H184.061V72.7853H179.181L179.099 51.1676Z" fill="white"/>
<path d="M205.421 70.531C204.541 71.4185 203.491 72.1188 202.333 72.5898C201.103 73.0697 199.793 73.3108 198.473 73.3001C196.52 73.327 194.599 72.8102 192.924 71.8074C191.276 70.8144 189.931 69.3908 189.033 67.6898C188.064 65.9416 187.557 63.9752 187.561 61.9765C187.537 59.972 188.026 57.9947 188.981 56.2324C189.88 54.5314 191.225 53.1077 192.873 52.1148C194.566 51.1135 196.506 50.6071 198.473 50.653C199.803 50.6383 201.124 50.8795 202.364 51.3633C203.523 51.8312 204.574 52.5319 205.452 53.4221V51.2089H210.29V72.8265H205.452L205.421 70.531ZM202.199 67.731C203.163 67.1572 203.955 66.3362 204.495 65.353C205.067 64.3135 205.358 63.1425 205.339 61.9559C205.359 60.766 205.068 59.5913 204.495 58.5486C203.955 57.5655 203.163 56.7445 202.199 56.1706C201.207 55.5891 200.075 55.2901 198.925 55.306C197.773 55.2929 196.638 55.5916 195.642 56.1706C194.67 56.7408 193.87 57.5622 193.325 58.5486C192.752 59.5913 192.461 60.766 192.481 61.9559C192.462 63.1425 192.753 64.3135 193.325 65.353C193.87 66.3394 194.67 67.1609 195.642 67.731C196.638 68.31 197.773 68.6087 198.925 68.5957C200.075 68.6115 201.207 68.3125 202.199 67.731Z" fill="white"/>
<path d="M215.005 43.7043H219.884V72.7338H215.005V43.7043Z" fill="white"/>
<path d="M234.749 45.197H243.406C244.86 45.1684 246.299 45.4972 247.596 46.1544C248.772 46.761 249.759 47.6799 250.447 48.8103C251.133 49.9504 251.489 51.258 251.477 52.5882C251.496 53.8087 251.183 55.0116 250.571 56.0676C250.004 57.0757 249.162 57.9008 248.142 58.4456C249.53 58.7826 250.755 59.5992 251.6 60.7514C252.486 61.981 252.941 63.4678 252.897 64.9823C252.908 66.3741 252.553 67.7444 251.868 68.9559C251.207 70.1224 250.234 71.0813 249.058 71.7249C247.796 72.4162 246.378 72.7707 244.94 72.7543H234.749V45.197ZM242.778 56.6029C243.239 56.6193 243.698 56.5439 244.129 56.3813C244.56 56.2188 244.955 55.9722 245.29 55.6558C245.625 55.3453 245.89 54.9672 246.067 54.5466C246.244 54.126 246.33 53.6725 246.319 53.2161C246.328 52.7662 246.241 52.3196 246.063 51.9061C245.886 51.4925 245.622 51.1214 245.29 50.8176C244.955 50.5013 244.56 50.2547 244.129 50.0921C243.698 49.9295 243.239 49.8542 242.778 49.8705H239.783V56.6029H242.778ZM244.353 68.05C244.806 68.0562 245.255 67.9678 245.671 67.7906C246.088 67.6133 246.463 67.3511 246.772 67.0206C247.089 66.6939 247.337 66.3069 247.502 65.8825C247.666 65.4581 247.744 65.0049 247.73 64.55C247.745 64.0748 247.661 63.6016 247.484 63.1604C247.307 62.7192 247.04 62.3196 246.7 61.9867C246.363 61.662 245.965 61.4082 245.528 61.2403C245.091 61.0723 244.625 60.9935 244.158 61.0088H239.752V68.0088L244.353 68.05Z" fill="white"/>
<path d="M261.143 71.7662C259.431 70.7815 258.01 69.3608 257.026 67.6486C256.018 65.918 255.495 63.948 255.512 61.9456C255.494 59.9398 256.017 57.9662 257.026 56.2324C258.005 54.5162 259.427 53.0943 261.143 52.1147C262.887 51.1143 264.867 50.5989 266.877 50.6221C268.874 50.5993 270.841 51.1149 272.57 52.1147C274.266 53.1023 275.67 54.5235 276.636 56.2324C277.634 57.9698 278.149 59.9422 278.128 61.9456C278.148 63.9456 277.632 65.9144 276.636 67.6486C275.665 69.3537 274.262 70.7736 272.57 71.7662C270.844 72.7771 268.877 73.3001 266.877 73.2795C264.864 73.3004 262.883 72.7776 261.143 71.7662ZM270.089 67.731C271.064 67.156 271.864 66.327 272.405 65.3324C272.973 64.2984 273.263 63.1353 273.249 61.9559C273.264 60.7771 272.965 59.6155 272.384 58.5898C271.834 57.6079 271.035 56.7879 270.068 56.2118C269.094 55.6335 267.979 55.3343 266.846 55.3471C265.704 55.3365 264.58 55.6354 263.593 56.2118C262.621 56.782 261.821 57.6034 261.277 58.5898C260.707 59.6192 260.416 60.7795 260.433 61.9559C260.419 63.1353 260.709 64.2984 261.277 65.3324C261.82 66.3319 262.629 67.1619 263.614 67.731C264.605 68.305 265.732 68.6035 266.877 68.5956C268.006 68.6034 269.116 68.3046 270.089 67.731Z" fill="white"/>
<path d="M286.055 71.7662C284.344 70.7795 282.924 69.3592 281.937 67.6485C280.93 65.9179 280.407 63.9479 280.424 61.9455C280.406 59.9397 280.928 57.9661 281.937 56.2323C282.919 54.5177 284.34 53.0962 286.055 52.1147C287.803 51.1153 289.786 50.6 291.799 50.622C293.793 50.6005 295.756 51.1161 297.481 52.1147C299.198 53.093 300.621 54.5152 301.599 56.2323C302.593 57.9712 303.108 59.9426 303.092 61.9455C303.106 63.945 302.591 65.9127 301.599 67.6485C300.615 69.3616 299.194 70.7827 297.481 71.7662C295.759 72.7757 293.795 73.2987 291.799 73.2794C289.783 73.3017 287.798 72.7789 286.055 71.7662ZM295 67.7309C295.982 67.1603 296.787 66.3304 297.327 65.3324C297.895 64.2984 298.185 63.1353 298.171 61.9558C298.186 60.777 297.887 59.6155 297.306 58.5897C296.756 57.6078 295.957 56.7878 294.99 56.2118C294.012 55.6341 292.894 55.335 291.758 55.347C290.619 55.3378 289.498 55.6366 288.515 56.2118C287.541 56.7782 286.74 57.6006 286.199 58.5897C285.626 59.6183 285.332 60.7785 285.345 61.9558C285.334 63.1361 285.628 64.2992 286.199 65.3324C286.738 66.3347 287.548 67.1657 288.536 67.7309C289.526 68.3063 290.653 68.6049 291.799 68.5956C292.925 68.6046 294.032 68.3056 295 67.7309Z" fill="white"/>
<path d="M311.43 63.0059V72.7647H306.56V43.7354H311.44V60.8853L318.553 51.1986H324.421L316.35 61.9456L324.421 72.7647H318.553L311.43 63.0059Z" fill="white"/>
<path d="M58.1223 18C46.9832 18 36.3004 22.425 28.4238 30.3015C20.5473 38.178 16.1223 48.8609 16.1223 60C16.1223 71.1391 20.5473 81.8219 28.4238 89.6984C36.3004 97.575 46.9832 102 58.1223 102C63.6382 102.001 69.1004 100.916 74.1967 98.8057C79.293 96.6955 83.9235 93.6018 87.8239 89.7015C91.7242 85.8011 94.8178 81.1706 96.9281 76.0743C99.0383 70.978 100.124 65.5159 100.122 60C100.122 48.8609 95.6974 38.178 87.8209 30.3015C79.9443 22.425 69.2614 18 58.1223 18Z" fill="url(#paint0_radial_18_492)"/>
<path d="M58.1223 24.4647C67.5445 24.4756 76.5778 28.2226 83.2412 34.8841C89.9047 41.5456 93.6544 50.5778 93.668 60C93.6571 69.4239 89.9086 78.4587 83.2449 85.1225C76.5811 91.7862 67.5463 95.5347 58.1223 95.5456C48.7002 95.5319 39.668 91.7823 33.0065 85.1189C26.345 78.4554 22.5979 69.4222 22.587 60C22.5979 50.5788 26.3453 41.5466 33.0071 34.8848C39.6689 28.223 48.7011 24.4756 58.1223 24.4647ZM58.1223 18C46.9832 18 36.3004 22.425 28.4238 30.3015C20.5473 38.178 16.1223 48.8609 16.1223 60C16.1223 71.1391 20.5473 81.8219 28.4238 89.6984C36.3004 97.575 46.9832 102 58.1223 102C63.6382 102.001 69.1004 100.916 74.1967 98.8057C79.293 96.6955 83.9235 93.6018 87.8239 89.7015C91.7242 85.8011 94.8178 81.1706 96.9281 76.0743C99.0383 70.978 100.124 65.5159 100.122 60C100.122 48.8609 95.6974 38.178 87.8209 30.3015C79.9443 22.425 69.2614 18 58.1223 18Z" fill="url(#paint1_linear_18_492)"/>
<path d="M32.5619 62.4192V75.4927V77.0677L65.9252 88.6692V74.0207L32.5619 62.4192ZM58.9767 76.5428V81.4222L45.6458 76.7795V71.9104L58.9767 76.5428Z" fill="url(#paint2_linear_18_492)"/>
<path d="M39.8194 69.8308L42.6296 70.8088L42.6502 75.6779L39.8194 74.6999V69.8308Z" fill="#00042D"/>
<path d="M83.6311 60.2266L65.9663 74.0207V88.6692L83.6928 74.8854L83.6311 60.2266Z" fill="url(#paint3_linear_18_492)"/>
<g style="mix-blend-mode:multiply">
<path d="M32.5518 75.4722L65.9665 87.0736V88.6692L32.6135 77.0575L32.5518 75.4722Z" fill="url(#paint4_linear_18_492)"/>
<path d="M83.6312 73.2898L65.9665 87.0736V88.6692L83.693 74.8854L83.6312 73.2898Z" fill="url(#paint5_linear_18_492)"/>
</g>
<path d="M32.5619 45.1147V58.1986V59.7736L65.9252 71.3751V56.7265L32.5619 45.1147ZM58.9767 59.2589V64.128L45.6458 59.4957V54.6162L58.9767 59.2589Z" fill="url(#paint6_linear_18_492)"/>
<path d="M39.8194 52.5369L42.6296 53.5148L42.6502 58.3839L39.8194 57.406V52.5369Z" fill="#00042D"/>
<path d="M83.6311 42.9426L65.9663 56.7265V71.375L83.6928 57.5912L83.6311 42.9426Z" fill="url(#paint7_linear_18_492)"/>
<mask id="mask0_18_492" style="mask-type:luminance" maskUnits="userSpaceOnUse" x="32" y="31" width="52" height="26">
<path d="M32.5619 45.1147L65.9767 56.7265L83.6414 42.9426L50.2473 31.3308L32.5619 45.1147Z" fill="white"/>
</mask>
<g mask="url(#mask0_18_492)">
<path d="M49.7016 41.8207C50.2258 42.0175 50.7846 42.1053 51.344 42.0788C51.9033 42.0522 52.4513 41.9119 52.9545 41.6663L74.9428 50.0252L75.5398 49.4795L53.5824 41.131C53.9736 40.4825 53.5824 39.731 52.481 39.3296C51.892 39.0946 51.2543 39.0083 50.6241 39.0783C49.994 39.1483 49.3907 39.3725 48.8677 39.731C48.0751 40.4105 48.4663 41.3884 49.7016 41.8207Z" fill="url(#paint8_linear_18_492)"/>
<path d="M52.8821 47.1737C53.4085 47.3684 53.9687 47.455 54.5294 47.4285C55.0901 47.402 55.6396 47.2628 56.1453 47.0192L78.1027 55.3781L78.6998 54.8325L56.7424 46.5354C57.1336 45.8869 56.7424 45.1354 55.6306 44.734C55.0436 44.4981 54.4073 44.4113 53.7786 44.4813C53.1499 44.5514 52.5483 44.7761 52.0277 45.1354C51.2659 45.7737 51.6468 46.7001 52.8821 47.1737Z" fill="url(#paint9_linear_18_492)"/>
<path d="M64.0824 43.2412C64.6066 43.438 65.1654 43.5258 65.7248 43.4993C66.2841 43.4727 66.8321 43.3324 67.3353 43.0869L89.2927 51.4457L89.8898 50.9001L67.9324 42.5515C68.3235 41.903 67.9324 41.1515 66.8309 40.7501C66.2416 40.5169 65.6042 40.4315 64.9744 40.5015C64.3445 40.5715 63.7413 40.7947 63.2176 41.1516C62.4559 41.8413 62.8471 42.7677 64.0824 43.2412Z" fill="url(#paint10_linear_18_492)"/>
</g>
<g style="mix-blend-mode:multiply">
<path d="M32.5518 58.178L65.9665 69.7795V71.375L32.6135 59.7633L32.5518 58.178Z" fill="url(#paint11_linear_18_492)"/>
<path d="M83.6312 55.9956L65.9665 69.7794V71.375L83.693 57.5912L83.6312 55.9956Z" fill="url(#paint12_linear_18_492)"/>
</g>
<defs>
<radialGradient id="paint0_radial_18_492" cx="0" cy="0" r="1" gradientUnits="userSpaceOnUse" gradientTransform="translate(79.2439 29.6764) scale(90.6516 90.6514)">
<stop offset="0.15" stop-color="#353530"/>
<stop offset="0.18" stop-color="#33332E"/>
<stop offset="0.21" stop-color="#31312C"/>
<stop offset="0.7" stop-color="#11110F"/>
<stop offset="1"/>
</radialGradient>
<linearGradient id="paint1_linear_18_492" x1="27.7135" y1="31.0426" x2="88.5414" y2="88.9677" gradientUnits="userSpaceOnUse">
<stop stop-color="#5C1CB2"/>
<stop offset="0.08" stop-color="#7118B4"/>
<stop offset="0.25" stop-color="#A90FB9"/>
<stop offset="0.48" stop-color="#FF00C1"/>
<stop offset="0.57" stop-color="#FE15AD"/>
<stop offset="0.74" stop-color="#FA4D7B"/>
<stop offset="0.98" stop-color="#F4A52A"/>
<stop offset="1" stop-color="#F4AC24"/>
</linearGradient>
<linearGradient id="paint2_linear_18_492" x1="58.0193" y1="89.7604" x2="32.3767" y2="47.9971" gradientUnits="userSpaceOnUse">
<stop stop-color="#5C1CB2"/>
<stop offset="0.09" stop-color="#7118B4"/>
<stop offset="0.28" stop-color="#A90FB9"/>
<stop offset="0.55" stop-color="#FF00C1"/>
<stop offset="0.62" stop-color="#FE15AD"/>
<stop offset="0.77" stop-color="#FA4D7B"/>
<stop offset="0.98" stop-color="#F4A52A"/>
<stop offset="1" stop-color="#F4AC24"/>
</linearGradient>
<linearGradient id="paint3_linear_18_492" x1="81.109" y1="80.3104" x2="53.8708" y2="54.9662" gradientUnits="userSpaceOnUse">
<stop stop-color="#5C1CB2"/>
<stop offset="0.09" stop-color="#7118B4"/>
<stop offset="0.28" stop-color="#A90FB9"/>
<stop offset="0.55" stop-color="#FF00C1"/>
<stop offset="0.62" stop-color="#FE15AD"/>
<stop offset="0.77" stop-color="#FA4D7B"/>
<stop offset="0.98" stop-color="#F4A52A"/>
<stop offset="1" stop-color="#F4AC24"/>
</linearGradient>
<linearGradient id="paint4_linear_18_492" x1="50.34" y1="78.4678" x2="48.5488" y2="84.4589" gradientUnits="userSpaceOnUse">
<stop stop-color="white" stop-opacity="0"/>
<stop offset="0.32" stop-color="#C1A9E2" stop-opacity="0.38"/>
<stop offset="0.64" stop-color="#8B5DC8" stop-opacity="0.71"/>
<stop offset="0.88" stop-color="#692EB8" stop-opacity="0.92"/>
<stop offset="1" stop-color="#5C1CB2"/>
</linearGradient>
<linearGradient id="paint5_linear_18_492" x1="72.1841" y1="72.9398" x2="75.8694" y2="84.2633" gradientUnits="userSpaceOnUse">
<stop stop-color="white" stop-opacity="0"/>
<stop offset="0.32" stop-color="#C1A9E2" stop-opacity="0.38"/>
<stop offset="0.64" stop-color="#8B5DC8" stop-opacity="0.71"/>
<stop offset="0.88" stop-color="#692EB8" stop-opacity="0.92"/>
<stop offset="1" stop-color="#5C1CB2"/>
</linearGradient>
<linearGradient id="paint6_linear_18_492" x1="65.7296" y1="85.0148" x2="40.087" y2="43.2515" gradientUnits="userSpaceOnUse">
<stop stop-color="#5C1CB2"/>
<stop offset="0.09" stop-color="#7118B4"/>
<stop offset="0.28" stop-color="#A90FB9"/>
<stop offset="0.55" stop-color="#FF00C1"/>
<stop offset="0.62" stop-color="#FE15AD"/>
<stop offset="0.77" stop-color="#FA4D7B"/>
<stop offset="0.98" stop-color="#F4A52A"/>
<stop offset="1" stop-color="#F4AC24"/>
</linearGradient>
<linearGradient id="paint7_linear_18_492" x1="89.7149" y1="71.0353" x2="62.4767" y2="45.6911" gradientUnits="userSpaceOnUse">
<stop stop-color="#5C1CB2"/>
<stop offset="0.09" stop-color="#7118B4"/>
<stop offset="0.28" stop-color="#A90FB9"/>
<stop offset="0.55" stop-color="#FF00C1"/>
<stop offset="0.62" stop-color="#FE15AD"/>
<stop offset="0.77" stop-color="#FA4D7B"/>
<stop offset="0.98" stop-color="#F4A52A"/>
<stop offset="1" stop-color="#F4AC24"/>
</linearGradient>
<linearGradient id="paint8_linear_18_492" x1="64.6486" y1="55.934" x2="60.6648" y2="39.6795" gradientUnits="userSpaceOnUse">
<stop stop-color="#5C1CB2"/>
<stop offset="0.09" stop-color="#7118B4"/>
<stop offset="0.28" stop-color="#A90FB9"/>
<stop offset="0.55" stop-color="#FF00C1"/>
<stop offset="0.62" stop-color="#FE15AD"/>
<stop offset="0.77" stop-color="#FA4D7B"/>
<stop offset="0.98" stop-color="#F4A52A"/>
<stop offset="1" stop-color="#F4AC24"/>
</linearGradient>
<linearGradient id="paint9_linear_18_492" x1="66.4189" y1="55.5016" x2="62.435" y2="39.2472" gradientUnits="userSpaceOnUse">
<stop stop-color="#5C1CB2"/>
<stop offset="0.09" stop-color="#7118B4"/>
<stop offset="0.28" stop-color="#A90FB9"/>
<stop offset="0.55" stop-color="#FF00C1"/>
<stop offset="0.62" stop-color="#FE15AD"/>
<stop offset="0.77" stop-color="#FA4D7B"/>
<stop offset="0.98" stop-color="#F4A52A"/>
<stop offset="1" stop-color="#F4AC24"/>
</linearGradient>
<linearGradient id="paint10_linear_18_492" x1="77.8868" y1="52.6913" x2="73.9029" y2="36.4368" gradientUnits="userSpaceOnUse">
<stop stop-color="#5C1CB2"/>
<stop offset="0.09" stop-color="#7118B4"/>
<stop offset="0.28" stop-color="#A90FB9"/>
<stop offset="0.55" stop-color="#FF00C1"/>
<stop offset="0.62" stop-color="#FE15AD"/>
<stop offset="0.77" stop-color="#FA4D7B"/>
<stop offset="0.98" stop-color="#F4A52A"/>
<stop offset="1" stop-color="#F4AC24"/>
</linearGradient>
<linearGradient id="paint11_linear_18_492" x1="50.34" y1="61.1839" x2="48.5488" y2="67.1647" gradientUnits="userSpaceOnUse">
<stop stop-color="white" stop-opacity="0"/>
<stop offset="0.32" stop-color="#C1A9E2" stop-opacity="0.38"/>
<stop offset="0.64" stop-color="#8B5DC8" stop-opacity="0.71"/>
<stop offset="0.88" stop-color="#692EB8" stop-opacity="0.92"/>
<stop offset="1" stop-color="#5C1CB2"/>
</linearGradient>
<linearGradient id="paint12_linear_18_492" x1="72.1841" y1="55.6456" x2="75.8694" y2="66.9691" gradientUnits="userSpaceOnUse">
<stop stop-color="white" stop-opacity="0"/>
<stop offset="0.32" stop-color="#C1A9E2" stop-opacity="0.38"/>
<stop offset="0.64" stop-color="#8B5DC8" stop-opacity="0.71"/>
<stop offset="0.88" stop-color="#692EB8" stop-opacity="0.92"/>
<stop offset="1" stop-color="#5C1CB2"/>
</linearGradient>
</defs>
</svg>
