<svg width="251" height="120" viewBox="0 0 251 120" fill="none" xmlns="http://www.w3.org/2000/svg">
<g clip-path="url(#clip0_18_431)">
<path d="M114.637 59.6089H119.784L126.012 80.0015L132.58 59.6295H136.512L143.121 80.0015L149.369 59.6603H154.516L145.983 87.1971H140.589L134.587 68.678L128.565 87.125H123.14L114.637 59.6089Z" fill="white"/>
<path d="M172.418 84.9426C171.536 85.8273 170.486 86.5273 169.33 87.0014C168.088 87.4769 166.768 87.7144 165.439 87.7014C163.486 87.7294 161.565 87.2126 159.89 86.2088C158.241 85.2149 156.892 83.7917 155.989 82.0912C155.041 80.3262 154.556 78.3501 154.578 76.347C154.556 74.344 155.041 72.3679 155.989 70.6029C156.89 68.9006 158.239 67.4768 159.89 66.4853C161.564 65.4779 163.485 64.9574 165.439 64.9823C166.769 64.9676 168.09 65.2088 169.33 65.6926C170.487 66.1635 171.538 66.8639 172.418 67.7514V65.5897H177.256V87.1456H172.418V84.9426ZM169.186 82.1426C170.154 81.5723 170.951 80.7507 171.492 79.7647C172.064 78.7252 172.355 77.5541 172.336 76.3676C172.355 75.1778 172.064 74.0035 171.492 72.9602C170.951 71.9743 170.154 71.1527 169.186 70.5823C168.198 70.0006 167.069 69.7015 165.922 69.7176C164.77 69.7046 163.635 70.0033 162.639 70.5823C161.664 71.1487 160.863 71.9711 160.322 72.9602C159.75 74.0035 159.459 75.1778 159.478 76.3676C159.459 77.5541 159.75 78.7252 160.322 79.7647C160.863 80.7539 161.664 81.5762 162.639 82.1426C163.632 82.7296 164.768 83.0323 165.922 83.0176C167.07 83.0349 168.2 82.7319 169.186 82.1426Z" fill="white"/>
<path d="M182.002 58.1162H186.881V87.1456H182.002V58.1162Z" fill="white"/>
<path d="M191.637 58.1162H196.516V87.1456H191.637V58.1162Z" fill="white"/>
<path d="M205.709 86.178C203.998 85.1914 202.578 83.7711 201.591 82.0604C200.583 80.3302 200.06 78.36 200.078 76.3575C200.06 74.355 200.583 72.3847 201.591 70.6545C202.582 68.9464 204.001 67.527 205.709 66.5368C207.453 65.5241 209.437 65.0013 211.453 65.0236C213.401 65.0046 215.315 65.5286 216.981 66.5368C218.636 67.5405 219.999 68.9602 220.934 70.6545C221.905 72.3972 222.405 74.3627 222.386 76.3575C222.38 77.0332 222.301 77.7063 222.149 78.3648H205.122C205.486 79.7607 206.309 80.9936 207.459 81.8648C208.604 82.7443 210.01 83.2154 211.453 83.203C212.536 83.2247 213.603 82.9507 214.541 82.4104C215.416 81.918 216.111 81.1611 216.528 80.2486H221.799C221.253 82.4368 219.933 84.3531 218.083 85.6427C216.163 87.0152 213.854 87.7367 211.494 87.7015C209.463 87.7282 207.464 87.2015 205.709 86.178ZM217.393 74.4016C217.069 73.027 216.302 71.7971 215.211 70.9015C214.159 70.0202 212.825 69.5454 211.453 69.5633C210.001 69.5373 208.584 70.0096 207.438 70.9015C206.296 71.7754 205.48 73.0081 205.122 74.4016H217.393Z" fill="white"/>
<path d="M227.471 85.5088C226.156 83.8739 225.499 81.8071 225.628 79.7132V60.4426H230.508V65.5897H234.79V70.2735H230.508V79.3529C230.508 81.5833 231.537 82.6985 233.596 82.6985H234.811V87.5779H233.205C230.617 87.5779 228.706 86.8882 227.471 85.5088Z" fill="white"/>
<path d="M114.637 59.6089H119.784L126.012 80.0015L132.58 59.6295H136.512L143.121 80.0015L149.369 59.6603H154.516L145.983 87.1971H140.589L134.587 68.678L128.565 87.125H123.14L114.637 59.6089Z" fill="white"/>
<path d="M172.418 84.9426C171.536 85.8273 170.486 86.5273 169.33 87.0014C168.088 87.4769 166.768 87.7144 165.439 87.7014C163.486 87.7294 161.565 87.2126 159.89 86.2088C158.241 85.2149 156.892 83.7917 155.989 82.0912C155.041 80.3262 154.556 78.3501 154.578 76.347C154.556 74.344 155.041 72.3679 155.989 70.6029C156.89 68.9006 158.239 67.4768 159.89 66.4853C161.564 65.4779 163.485 64.9574 165.439 64.9823C166.769 64.9676 168.09 65.2088 169.33 65.6926C170.487 66.1635 171.538 66.8639 172.418 67.7514V65.5897H177.256V87.1456H172.418V84.9426ZM169.186 82.1426C170.154 81.5723 170.951 80.7507 171.492 79.7647C172.064 78.7252 172.355 77.5541 172.336 76.3676C172.355 75.1778 172.064 74.0035 171.492 72.9602C170.951 71.9743 170.154 71.1527 169.186 70.5823C168.198 70.0006 167.069 69.7015 165.922 69.7176C164.77 69.7046 163.635 70.0033 162.639 70.5823C161.664 71.1487 160.863 71.9711 160.322 72.9602C159.75 74.0035 159.459 75.1778 159.478 76.3676C159.459 77.5541 159.75 78.7252 160.322 79.7647C160.863 80.7539 161.664 81.5762 162.639 82.1426C163.632 82.7296 164.768 83.0323 165.922 83.0176C167.07 83.0349 168.2 82.7319 169.186 82.1426Z" fill="white"/>
<path d="M182.002 58.1162H186.881V87.1456H182.002V58.1162Z" fill="white"/>
<path d="M191.637 58.1162H196.516V87.1456H191.637V58.1162Z" fill="white"/>
<path d="M205.709 86.178C203.998 85.1914 202.578 83.7711 201.591 82.0604C200.583 80.3302 200.06 78.36 200.078 76.3575C200.06 74.355 200.583 72.3847 201.591 70.6545C202.582 68.9464 204.001 67.527 205.709 66.5368C207.453 65.5241 209.437 65.0013 211.453 65.0236C213.401 65.0046 215.315 65.5286 216.981 66.5368C218.636 67.5405 219.999 68.9602 220.934 70.6545C221.905 72.3972 222.405 74.3627 222.386 76.3575C222.38 77.0332 222.301 77.7063 222.149 78.3648H205.122C205.486 79.7607 206.309 80.9936 207.459 81.8648C208.604 82.7443 210.01 83.2154 211.453 83.203C212.536 83.2247 213.603 82.9507 214.541 82.4104C215.416 81.918 216.111 81.1611 216.528 80.2486H221.799C221.253 82.4368 219.933 84.3531 218.083 85.6427C216.163 87.0152 213.854 87.7367 211.494 87.7015C209.463 87.7282 207.464 87.2015 205.709 86.178ZM217.393 74.4016C217.069 73.027 216.302 71.7971 215.211 70.9015C214.159 70.0202 212.825 69.5454 211.453 69.5633C210.001 69.5373 208.584 70.0096 207.438 70.9015C206.296 71.7754 205.48 73.0081 205.122 74.4016H217.393Z" fill="white"/>
<path d="M227.471 85.5088C226.156 83.8739 225.499 81.8071 225.628 79.7132V60.4426H230.508V65.5897H234.79V70.2735H230.508V79.3529C230.508 81.5833 231.537 82.6985 233.596 82.6985H234.811V87.5779H233.205C230.617 87.5779 228.706 86.8882 227.471 85.5088Z" fill="white"/>
<path d="M126.537 46.5251L121.915 39.1236H119.794V46.5251H116.799V27.9956H123.336C125.083 27.8673 126.811 28.4249 128.153 29.5501C128.704 30.0798 129.135 30.7213 129.418 31.4316C129.7 32.1418 129.827 32.9043 129.79 33.6677C129.847 34.9685 129.413 36.2433 128.575 37.2398C127.641 38.2279 126.393 38.861 125.044 39.031L129.903 46.556L126.537 46.5251ZM119.794 37.003H123.099C125.515 37.003 126.722 35.9359 126.722 33.8015C126.749 33.3662 126.685 32.9301 126.535 32.5207C126.384 32.1114 126.15 31.7378 125.847 31.4236C125.077 30.7932 124.091 30.4868 123.099 30.5692H119.794V37.003Z" fill="white"/>
<path d="M135.493 27.9956V46.525H132.477V27.9956H135.493Z" fill="white"/>
<path d="M153.065 29.4677C154.536 30.5502 155.57 32.1245 155.978 33.9044H152.828C152.437 32.9173 151.741 32.0808 150.842 31.5163C149.866 30.9026 148.73 30.591 147.578 30.6207C146.494 30.6058 145.426 30.8869 144.49 31.4339C143.565 31.9824 142.817 32.7867 142.339 33.7501C141.793 34.8379 141.524 36.0437 141.556 37.2603C141.524 38.5244 141.795 39.7778 142.349 40.9148C142.839 41.8906 143.61 42.6973 144.562 43.231C145.582 43.7813 146.728 44.0579 147.887 44.0339C149.34 44.068 150.754 43.5577 151.85 42.603C152.986 41.5938 153.699 40.1931 153.847 38.6809H147.043V36.478H156.369V39.3398C156.167 40.6724 155.667 41.9423 154.908 43.0559C154.137 44.1767 153.101 45.0892 151.891 45.7118C150.568 46.4065 149.093 46.7603 147.599 46.7412C145.928 46.7751 144.278 46.3591 142.822 45.5368C141.457 44.7508 140.346 43.5897 139.621 42.1913C138.847 40.6756 138.458 38.9928 138.489 37.2912C138.457 35.5929 138.846 33.9131 139.621 32.4015C140.339 31.0038 141.447 29.845 142.812 29.0663C144.262 28.2511 145.905 27.8388 147.568 27.8721C149.525 27.7959 151.453 28.3557 153.065 29.4677Z" fill="white"/>
<path d="M174.127 27.9956V46.525H171.111V38.2074H162.402V46.525H159.406V27.9956H162.402V35.7677H171.111V27.9956H174.127Z" fill="white"/>
<path d="M189.671 27.9956V30.4148H184.524V46.525H181.497V30.4148H176.35V27.9956H189.671Z" fill="white"/>
<path d="M58.1945 18C47.0554 18 36.3725 22.425 28.496 30.3015C20.6195 38.178 16.1945 48.8609 16.1945 60C16.1945 71.1391 20.6195 81.822 28.496 89.6985C36.3725 97.575 47.0554 102 58.1945 102C69.3336 102 80.0164 97.575 87.893 89.6985C95.7695 81.822 100.194 71.1391 100.194 60C100.194 48.8609 95.7695 38.178 87.893 30.3015C80.0164 22.425 69.3336 18 58.1945 18Z" fill="url(#paint0_radial_18_431)"/>
<path d="M58.1945 24.4132C67.6184 24.4241 76.6532 28.1726 83.317 34.8363C89.9807 41.5 93.7292 50.5349 93.7401 59.9588C93.7264 69.3809 89.9767 78.4131 83.3133 85.0746C76.6499 91.7361 67.6167 95.4832 58.1945 95.494C48.7724 95.4832 39.7391 91.7361 33.0756 85.0746C26.4122 78.4131 22.6625 69.3809 22.6489 59.9588C22.6598 50.5349 26.4083 41.5 33.072 34.8363C39.7357 28.1726 48.7706 24.4241 58.1945 24.4132ZM58.1945 17.9587C47.0554 17.9587 36.3725 22.3838 28.496 30.2603C20.6195 38.1368 16.1945 48.8197 16.1945 59.9588C16.1945 71.0979 20.6195 81.7807 28.496 89.6572C36.3725 97.5338 47.0554 101.959 58.1945 101.959C69.3336 101.959 80.0164 97.5338 87.893 89.6572C95.7695 81.7807 100.194 71.0979 100.194 59.9588C100.194 48.8197 95.7695 38.1368 87.893 30.2603C80.0164 22.3838 69.3336 17.9587 58.1945 17.9587Z" fill="url(#paint1_linear_18_431)"/>
<path d="M43.3606 73.4854C42.1157 73.4854 40.9217 72.9908 40.0414 72.1105C39.1611 71.2302 38.6665 70.0362 38.6665 68.7912V48.0074C38.6508 47.7881 38.6508 47.568 38.6665 47.3486C37.9785 47.6695 37.3962 48.1797 36.9878 48.8197C36.5794 49.4596 36.3619 50.2027 36.3607 50.9618V68.678C36.3607 70.56 37.1076 72.3651 38.4374 73.6969C39.7672 75.0287 41.5713 75.7783 43.4533 75.781H72.9768C73.736 75.7797 74.479 75.5621 75.119 75.1537C75.7589 74.7454 76.2692 74.163 76.5901 73.475C76.3708 73.4908 76.1506 73.4908 75.9312 73.475L43.3606 73.4854Z" fill="white"/>
<path d="M75.3959 54.8735H79.9768V48.0073C79.9768 46.948 79.556 45.9321 78.807 45.1831C78.058 44.434 77.042 44.0132 75.9827 44.0132H43.3607C42.3889 44.022 41.4544 44.3884 40.7357 45.0426C40.3084 45.416 39.9661 45.8765 39.7317 46.3932C39.4973 46.9099 39.3763 47.4708 39.3768 48.0382V68.822C39.3768 69.8786 39.7965 70.8919 40.5437 71.639C41.2908 72.3862 42.3041 72.8059 43.3607 72.8059H75.9827C77.0402 72.8059 78.0546 72.3865 78.8034 71.6397C79.5521 70.8929 79.9741 69.8796 79.9768 68.822V61.9558H75.3959C74.4613 61.9531 73.5659 61.5799 72.9059 60.9181C72.246 60.2562 71.8754 59.3596 71.8754 58.4249C71.8713 57.96 71.9593 57.4989 72.1344 57.0682C72.3095 56.6375 72.5682 56.2458 72.8955 55.9156C73.2229 55.5854 73.6123 55.3232 74.0415 55.1444C74.4707 54.9655 74.931 54.8735 75.3959 54.8735Z" fill="url(#paint2_linear_18_431)"/>
<path d="M76.0754 60.1339C77.0305 60.1339 77.8048 59.3596 77.8048 58.4045C77.8048 57.4493 77.0305 56.675 76.0754 56.675C75.1202 56.675 74.3459 57.4493 74.3459 58.4045C74.3459 59.3596 75.1202 60.1339 76.0754 60.1339Z" fill="white"/>
<path d="M70.7121 49.5515L61.5915 66.7221C61.4903 66.908 61.3418 67.064 61.1611 67.1742C60.9804 67.2845 60.7738 67.3451 60.5621 67.3501H52.09C52.7512 67.3045 53.39 67.0916 53.9464 66.7315C54.5028 66.3713 54.9586 65.8758 55.2709 65.2913L56.3827 63.2324L58.8842 58.528L63.2798 50.2413C63.3816 50.0566 63.5304 49.9021 63.7112 49.7937C63.892 49.6852 64.0984 49.6265 64.3092 49.6236L70.7121 49.5515Z" fill="white"/>
<path d="M56.3621 63.1705L55.2503 65.2294C54.938 65.8139 54.4822 66.3094 53.9258 66.6695C53.3694 67.0297 52.7307 67.2426 52.0695 67.2882H50.1239C49.912 67.2843 49.705 67.224 49.5241 67.1136C49.3432 67.0033 49.1949 66.8468 49.0945 66.6602L48.343 65.2499V65.1984L44.7195 58.394H51.843L54.3445 63.0985C54.444 63.2749 54.5873 63.4228 54.7604 63.528C54.9335 63.6333 55.1307 63.6923 55.3332 63.6996C55.5356 63.7068 55.7365 63.6619 55.9167 63.5693C56.0968 63.4767 56.2502 63.3394 56.3621 63.1705Z" fill="white"/>
</g>
<defs>
<radialGradient id="paint0_radial_18_431" cx="0" cy="0" r="1" gradientUnits="userSpaceOnUse" gradientTransform="translate(80.4483 29.2002) scale(90.6515 90.6514)">
<stop offset="0.15" stop-color="#353530"/>
<stop offset="0.18" stop-color="#33332E"/>
<stop offset="0.21" stop-color="#31312C"/>
<stop offset="0.7" stop-color="#11110F"/>
<stop offset="1"/>
</radialGradient>
<linearGradient id="paint1_linear_18_431" x1="16.1945" y1="59.9999" x2="100.194" y2="59.9999" gradientUnits="userSpaceOnUse">
<stop stop-color="#5C1CB2"/>
<stop offset="0.12" stop-color="#7118B4"/>
<stop offset="0.37" stop-color="#A90FB9"/>
<stop offset="0.71" stop-color="#FF00C1"/>
</linearGradient>
<linearGradient id="paint2_linear_18_431" x1="39.3768" y1="58.3941" x2="126.547" y2="58.3941" gradientUnits="userSpaceOnUse">
<stop stop-color="#5C1CB2"/>
<stop offset="0.12" stop-color="#7118B4"/>
<stop offset="0.37" stop-color="#A90FB9"/>
<stop offset="0.71" stop-color="#FF00C1"/>
</linearGradient>
<clipPath id="clip0_18_431">
<rect width="218.596" height="84" fill="white" transform="translate(16.1945 18)"/>
</clipPath>
</defs>
</svg>
