<svg width="21" height="21" viewBox="0 0 21 21" fill="none" xmlns="http://www.w3.org/2000/svg">
<path d="M9.05488 15.4518L7.12443 17.3822C6.15769 18.349 4.58468 18.3493 3.61745 17.3822C2.65086 16.4155 2.65119 14.8425 3.61793 13.8757L7.49405 9.99961C8.38982 9.10384 9.80646 9.03767 10.7785 9.80206C10.8554 9.86246 10.9296 9.92831 11.0006 9.99929C11.4311 10.4296 12.0985 10.4367 12.5201 10.015L13.7348 8.80022C13.5352 8.49725 13.3045 8.21463 13.0448 7.95492C12.6787 7.58899 12.2727 7.28666 11.8401 7.04874C10.1476 6.11515 8.05433 6.16178 6.40138 7.18844C6.05803 7.40169 5.73327 7.65724 5.43527 7.9554L1.57357 11.8171C-0.524469 13.9151 -0.524469 17.3287 1.57325 19.4266C3.67144 21.5246 7.08486 21.5246 9.18306 19.4266L12.657 15.9526C11.4436 16.1132 10.1945 15.9465 9.05488 15.4518Z" fill="white" fill-opacity="0.6"/>
<path d="M19.4259 1.57337C17.328 -0.524509 13.9146 -0.524509 11.8164 1.57369L8.34275 5.04735C9.55623 4.88665 10.8053 5.05327 11.9449 5.54818L13.8755 3.61757C14.8423 2.65082 16.4149 2.65082 17.3817 3.61757C18.3488 4.58464 18.3488 6.15733 17.382 7.12407L13.5054 11.0007C12.6196 11.8865 11.2137 11.9477 10.2428 11.187C10.1633 11.1253 10.0873 11.0579 10.0144 10.985C9.59115 10.5617 8.9027 10.562 8.47941 10.9853L7.26465 12.2001C7.46444 12.5024 7.69547 12.7853 7.9547 13.0446C8.32336 13.4132 8.73287 13.717 9.1685 13.9562C10.8703 14.8904 12.9741 14.8358 14.6282 13.7929C14.9605 13.5835 15.275 13.3341 15.564 13.0449L19.4259 9.18318C21.5239 7.08498 21.5239 3.67157 19.4259 1.57337Z" fill="white" fill-opacity="0.6"/>
</svg>
