<svg width="22" height="22" viewBox="0 0 22 22" fill="none" xmlns="http://www.w3.org/2000/svg">
<path d="M21.9763 6.25331L19.8445 14.7817C19.6754 15.4584 19.07 15.931 18.3721 15.931H5.22592C4.45592 15.931 3.80806 15.3545 3.7193 14.5898L2.18309 2.27586H1.13695C0.508058 2.27586 -0.000976562 1.76683 -0.000976562 1.13793C-0.000976562 0.509034 0.508058 0 1.13695 0H3.17537C3.74433 0 4.2253 0.420276 4.30268 0.983172L4.89592 5.31034H21.2404C21.7335 5.31034 22.0961 5.77462 21.9763 6.25331Z" fill="#FF00C1"/>
<path d="M4.55078 19.7241C4.55078 20.9789 5.57188 22 6.82664 22C8.0814 22 9.10251 20.9789 9.10251 19.7241C9.10251 18.4693 8.0814 17.4482 6.82664 17.4482C5.57188 17.4482 4.55078 18.4693 4.55078 19.7241Z" fill="#FF00C1"/>
<path d="M18.206 19.7241C18.206 18.4693 17.1849 17.4482 15.9302 17.4482C14.6754 17.4482 13.6543 18.4693 13.6543 19.7241C13.6543 20.9789 14.6754 22 15.9302 22C17.1849 22 18.206 20.9789 18.206 19.7241Z" fill="#FF00C1"/>
</svg>
