<svg width="588" height="173" viewBox="0 0 588 173" fill="none" xmlns="http://www.w3.org/2000/svg">
<path d="M339.32 0.594238L257.839 166.228C256.001 169.978 252.325 172.404 248.445 172.404H172.682C183.913 171.521 194.941 164.684 201.067 152.333L211.074 132.263L233.333 86.8298L272.747 6.54912C274.584 2.79975 278.26 0.594238 281.936 0.594238H339.32Z" fill="url(#paint0_linear_2189_2319)"/>
<path d="M211.071 132.044L201.065 152.334C194.939 164.906 183.911 171.522 172.679 172.405H154.913C151.032 172.405 147.357 169.979 145.519 166.229L138.78 152.555C138.78 152.334 138.575 152.334 138.575 152.114L106.31 86.3896H169.82V86.6102L192.079 132.044C196.368 140.204 206.987 140.204 211.071 132.044Z" fill="url(#paint1_linear_2189_2319)"/>
<path d="M158.045 1.81494C149.862 4.84504 142.504 11.1248 137.883 20.4407L137.881 20.4454L128.487 39.6334L128.465 39.6786L128.448 39.7258L128.057 40.7812L105.822 86.1649L105.82 86.1694L66.2043 166.004L66.2021 166.009C64.5268 169.426 61.1926 171.404 57.9104 171.404H2.33686L83.1092 7.21123L83.1098 7.20998C84.7802 3.80236 88.1083 1.81494 91.6057 1.81494H158.045Z" stroke="url(#paint2_linear_2189_2319)" stroke-width="2"/>
<path d="M231.935 85.6092H170.758L148.67 40.5257C148.669 40.5239 148.669 40.5222 148.668 40.5204C145.492 33.8488 138.06 32.1845 132.65 35.4643L139.68 21.1041L139.681 21.1025C145.643 8.86781 156.338 2.46118 167.207 1.59424H184.934C188.4 1.59424 191.75 3.77342 193.436 7.00138L200.104 20.5303C200.13 20.6398 200.171 20.7434 200.225 20.8399C200.251 20.8871 200.279 20.9302 200.306 20.9679L200.373 21.1039L231.935 85.6092ZM200.447 21.1361C200.446 21.1357 200.444 21.1331 200.44 21.1286C200.445 21.1342 200.447 21.1365 200.447 21.1361Z" stroke="url(#paint3_linear_2189_2319)" stroke-width="2"/>
<path d="M369.838 107.008C369.838 109.385 369.297 111.653 368.217 113.814C367.191 115.975 365.516 117.758 363.193 119.162C360.87 120.567 357.926 121.269 354.361 121.269C350.958 121.269 347.933 120.594 345.286 119.243C342.693 117.893 340.613 116.137 339.046 113.976C337.534 111.815 336.643 109.493 336.372 107.008H337.993C338.263 108.844 338.992 110.762 340.181 112.761C341.423 114.705 343.233 116.38 345.61 117.785C347.987 119.135 350.904 119.81 354.361 119.81C358.845 119.81 362.275 118.595 364.652 116.164C367.029 113.733 368.217 110.681 368.217 107.008C368.217 103.875 367.488 101.363 366.029 99.4719C364.625 97.5812 362.869 96.1497 360.762 95.1773C358.71 94.205 355.928 93.2056 352.416 92.1792C348.851 91.1529 345.988 90.1535 343.827 89.1811C341.666 88.1548 339.83 86.6692 338.317 84.7245C336.859 82.7258 336.129 80.0518 336.129 76.7026C336.129 72.7591 337.453 69.5179 340.1 66.979C342.801 64.3861 346.609 63.0896 351.525 63.0896C356.387 63.0896 360.249 64.3321 363.112 66.817C365.975 69.3019 367.758 72.1649 368.46 75.4061H366.84C366.461 73.7855 365.678 72.1649 364.49 70.5443C363.301 68.8697 361.627 67.4652 359.466 66.3308C357.305 65.1424 354.658 64.5481 351.525 64.5481C347.365 64.5481 344.016 65.6285 341.477 67.7893C338.992 69.8961 337.75 72.8672 337.75 76.7026C337.75 79.6737 338.425 82.0505 339.776 83.8332C341.18 85.6158 342.882 86.9663 344.881 87.8847C346.879 88.803 349.634 89.7754 353.146 90.8017C356.765 91.8281 359.682 92.8545 361.897 93.8809C364.112 94.9072 365.975 96.4738 367.488 98.5806C369.054 100.687 369.838 103.496 369.838 107.008ZM413.118 76.9457V120.702H411.498V108.385C410.471 112.815 408.365 116.137 405.177 118.352C402.044 120.567 398.425 121.674 394.319 121.674C389.188 121.674 384.974 120.08 381.679 116.893C378.384 113.706 376.736 108.898 376.736 102.47V76.9457H378.276V102.632C378.276 108.358 379.707 112.734 382.57 115.759C385.433 118.73 389.35 120.215 394.319 120.215C399.505 120.215 403.665 118.541 406.798 115.192C409.931 111.788 411.498 106.792 411.498 100.201V76.9457H413.118ZM442.664 76.3785C448.228 76.3785 452.766 77.81 456.277 80.673C459.843 83.4821 462.003 87.1824 462.76 91.7741H461.139C460.437 87.4525 458.411 84.0493 455.062 81.5644C451.713 79.0794 447.58 77.837 442.664 77.837C439.153 77.837 435.912 78.6203 432.941 80.1869C430.024 81.6994 427.674 84.0223 425.891 87.1554C424.109 90.2885 423.217 94.178 423.217 98.8237C423.217 103.469 424.109 107.359 425.891 110.492C427.674 113.625 430.024 115.975 432.941 117.542C435.912 119.054 439.153 119.81 442.664 119.81C447.58 119.81 451.713 118.568 455.062 116.083C458.411 113.598 460.437 110.195 461.139 105.873H462.76C462.003 110.465 459.843 114.192 456.277 117.055C452.766 119.864 448.228 121.269 442.664 121.269C438.613 121.269 434.994 120.378 431.806 118.595C428.619 116.812 426.107 114.219 424.271 110.816C422.488 107.413 421.597 103.415 421.597 98.8237C421.597 94.232 422.488 90.2345 424.271 86.8313C426.107 83.428 428.619 80.8351 431.806 79.0524C434.994 77.2698 438.613 76.3785 442.664 76.3785ZM490.304 119.81C495.22 119.81 499.352 118.568 502.702 116.083C506.051 113.598 508.077 110.195 508.779 105.873H510.399C509.643 110.465 507.482 114.192 503.917 117.055C500.406 119.864 495.868 121.269 490.304 121.269C486.253 121.269 482.633 120.378 479.446 118.595C476.259 116.812 473.747 114.219 471.91 110.816C470.128 107.413 469.236 103.415 469.236 98.8237C469.236 94.232 470.128 90.2345 471.91 86.8313C473.747 83.428 476.259 80.8351 479.446 79.0524C482.633 77.2698 486.253 76.3785 490.304 76.3785C494.572 76.3785 498.218 77.2968 501.243 79.1335C504.268 80.9161 506.537 83.239 508.05 86.102C509.616 88.9651 510.399 91.9902 510.399 95.1773C510.399 96.7979 510.291 98.2565 510.075 99.5529H470.857C470.911 104.037 471.829 107.791 473.612 110.816C475.449 113.841 477.825 116.11 480.743 117.623C483.66 119.081 486.847 119.81 490.304 119.81ZM490.304 77.837C486.847 77.837 483.66 78.5933 480.743 80.1058C477.825 81.5644 475.449 83.8062 473.612 86.8313C471.829 89.8564 470.911 93.6108 470.857 98.0944H508.941C509.211 93.6108 508.482 89.8564 506.753 86.8313C505.078 83.8062 502.756 81.5644 499.785 80.1058C496.867 78.5933 493.707 77.837 490.304 77.837ZM530.651 76.3785C534.973 76.3785 538.484 77.5669 541.185 79.9438C543.886 82.3206 545.48 85.5888 545.966 89.7483H544.345C543.967 86.3991 542.616 83.5901 540.294 81.3213C537.971 78.9984 534.757 77.837 530.651 77.837C527.032 77.837 524.169 78.7553 522.062 80.592C520.009 82.3746 518.983 84.7515 518.983 87.7226C518.983 89.9374 519.55 91.6931 520.684 92.9895C521.873 94.232 523.304 95.1773 524.979 95.8256C526.654 96.4198 528.949 97.068 531.867 97.7703C535.054 98.5266 537.593 99.2828 539.483 100.039C541.374 100.741 542.968 101.903 544.264 103.523C545.615 105.09 546.29 107.224 546.29 109.925C546.29 113.274 545.101 116.002 542.724 118.109C540.402 120.215 537.35 121.269 533.568 121.269C528.922 121.269 525.087 120.08 522.062 117.704C519.091 115.273 517.362 112.004 516.876 107.899H518.497C518.821 111.302 520.279 114.138 522.872 116.407C525.519 118.676 529.112 119.81 533.649 119.81C537.106 119.81 539.807 118.892 541.752 117.055C543.697 115.219 544.669 112.842 544.669 109.925C544.669 107.602 544.075 105.765 542.887 104.415C541.698 103.01 540.213 101.984 538.43 101.336C536.647 100.633 534.297 99.9581 531.38 99.3098C528.301 98.6076 525.816 97.9053 523.926 97.2031C522.089 96.4468 520.522 95.3394 519.226 93.8809C517.983 92.3683 517.362 90.3156 517.362 87.7226C517.362 84.2653 518.578 81.5103 521.009 79.4576C523.439 77.4048 526.654 76.3785 530.651 76.3785ZM566.579 76.3785C570.901 76.3785 574.412 77.5669 577.113 79.9438C579.814 82.3206 581.408 85.5888 581.894 89.7483H580.273C579.895 86.3991 578.545 83.5901 576.222 81.3213C573.899 78.9984 570.685 77.837 566.579 77.837C562.96 77.837 560.097 78.7553 557.99 80.592C555.938 82.3746 554.911 84.7515 554.911 87.7226C554.911 89.9374 555.478 91.6931 556.613 92.9895C557.801 94.232 559.233 95.1773 560.907 95.8256C562.582 96.4198 564.878 97.068 567.795 97.7703C570.982 98.5266 573.521 99.2828 575.412 100.039C577.302 100.741 578.896 101.903 580.192 103.523C581.543 105.09 582.218 107.224 582.218 109.925C582.218 113.274 581.03 116.002 578.653 118.109C576.33 120.215 573.278 121.269 569.497 121.269C564.851 121.269 561.015 120.08 557.99 117.704C555.019 115.273 553.291 112.004 552.804 107.899H554.425C554.749 111.302 556.208 114.138 558.801 116.407C561.448 118.676 565.04 119.81 569.578 119.81C573.035 119.81 575.736 118.892 577.681 117.055C579.625 115.219 580.598 112.842 580.598 109.925C580.598 107.602 580.003 105.765 578.815 104.415C577.627 103.01 576.141 101.984 574.358 101.336C572.576 100.633 570.226 99.9581 567.309 99.3098C564.23 98.6076 561.745 97.9053 559.854 97.2031C558.017 96.4468 556.451 95.3394 555.154 93.8809C553.912 92.3683 553.291 90.3156 553.291 87.7226C553.291 84.2653 554.506 81.5103 556.937 79.4576C559.368 77.4048 562.582 76.3785 566.579 76.3785Z" fill="#72EC01"/>
<defs>
<linearGradient id="paint0_linear_2189_2319" x1="229.702" y1="146.285" x2="310.553" y2="-11.369" gradientUnits="userSpaceOnUse">
<stop stop-color="#167300"/>
<stop offset="1" stop-color="#72EC01"/>
</linearGradient>
<linearGradient id="paint1_linear_2189_2319" x1="141.703" y1="86.3896" x2="187.879" y2="166.989" gradientUnits="userSpaceOnUse">
<stop stop-color="#167300"/>
<stop offset="1" stop-color="#72EC01"/>
</linearGradient>
<linearGradient id="paint2_linear_2189_2319" x1="56.9596" y1="0.814941" x2="158.198" y2="141.545" gradientUnits="userSpaceOnUse">
<stop stop-color="#167300"/>
<stop offset="1" stop-color="#72EC01"/>
</linearGradient>
<linearGradient id="paint3_linear_2189_2319" x1="164.304" y1="0.594238" x2="210.525" y2="81.1159" gradientUnits="userSpaceOnUse">
<stop stop-color="#167300"/>
<stop offset="1" stop-color="#72EC01"/>
</linearGradient>
</defs>
</svg>
