<svg width="21" height="18" viewBox="0 0 21 18" fill="none" xmlns="http://www.w3.org/2000/svg">
<path d="M7.91305 16.1203C7.3214 16.1203 7.42199 15.8969 7.21792 15.3336L5.47827 9.60836L18.8696 1.66382" fill="#CBD9E8"/>
<path d="M7.91309 16.1203C8.36961 16.1203 8.57124 15.9115 8.82613 15.6638L11.2609 13.2963L8.22382 11.4648" fill="#AFC9DE"/>
<path d="M8.22342 11.4654L15.5826 16.9024C16.4224 17.3658 17.0284 17.1258 17.2376 16.1228L20.2331 2.00673C20.5398 0.777162 19.7644 0.219293 18.961 0.584054L1.37119 7.3666C0.170534 7.84823 0.177687 8.5181 1.15236 8.81651L5.66629 10.2255L16.1165 3.63255C16.6099 3.33338 17.0627 3.49408 16.6911 3.82399" fill="white"/>
</svg>
