<svg width="42" height="42" viewBox="0 0 42 42" fill="none" xmlns="http://www.w3.org/2000/svg">
<g clip-path="url(#clip0_2189_2340)">
<path d="M21 0C9.4024 0 0 9.4017 0 21C0 32.5983 9.4024 42 21 42C32.5976 42 42 32.5983 42 21C42 9.4017 32.5983 0 21 0Z" fill="white"/>
<path d="M26.2088 13.0967H3.95508L5.46008 15.7L10.6366 24.6656L15.0879 32.3747L16.5901 29.7686L13.6445 24.6656H14.2892C15.0207 24.7288 15.7263 24.9674 16.3461 25.3611C16.966 25.7548 17.4818 26.292 17.8501 26.9273L21.0001 32.3747L22.5023 29.7728L19.5392 24.6474L24.7059 15.7L26.2088 13.0967ZM18.4101 21.3931H11.7552L8.46518 15.7H21.7001L18.4101 21.3931Z" fill="#FF00C1"/>
<path d="M29.1208 13.0967L22.4512 24.6488L26.9109 32.3747L32.1245 23.3468H29.1208L26.913 27.1702L25.457 24.6474L30.6237 15.7H33.5322L31.0444 20.0918H34.0047L38.0444 13.0967H29.1208Z" fill="#FF00C1"/>
</g>
<defs>
<clipPath id="clip0_2189_2340">
<rect width="42" height="42" fill="white"/>
</clipPath>
</defs>
</svg>
