<svg width="690" height="500" viewBox="0 0 690 500" fill="none" xmlns="http://www.w3.org/2000/svg">
<path d="M564.156 85.0542V90.3462H562.878V77.6562H566.676C568.104 77.6562 569.166 77.9862 569.862 78.6462C570.57 79.3062 570.924 80.2122 570.924 81.3642C570.924 82.5402 570.558 83.4522 569.826 84.1002C569.106 84.7362 568.056 85.0542 566.676 85.0542H564.156ZM566.568 83.9742C567.66 83.9742 568.446 83.7522 568.926 83.3082C569.406 82.8522 569.646 82.2042 569.646 81.3642C569.646 80.5002 569.406 79.8462 568.926 79.4022C568.446 78.9462 567.66 78.7182 566.568 78.7182H564.156V83.9742H566.568ZM582.113 80.5182V90.3462H580.853V87.9162C580.601 88.7682 580.145 89.4162 579.485 89.8602C578.825 90.3042 578.069 90.5262 577.217 90.5262C576.065 90.5262 575.129 90.1662 574.409 89.4462C573.701 88.7142 573.347 87.6462 573.347 86.2422V80.5182H574.607V86.1342C574.607 87.2142 574.877 88.0422 575.417 88.6182C575.957 89.1822 576.695 89.4642 577.631 89.4642C578.615 89.4642 579.395 89.1522 579.971 88.5282C580.559 87.8922 580.853 86.9622 580.853 85.7382V80.5182H582.113ZM590.844 80.3922C591.744 80.3922 592.536 80.5962 593.22 81.0042C593.916 81.4002 594.456 81.9822 594.84 82.7502C595.236 83.5062 595.434 84.4002 595.434 85.4322C595.434 86.4522 595.236 87.3462 594.84 88.1142C594.456 88.8702 593.916 89.4522 593.22 89.8602C592.524 90.2682 591.732 90.4722 590.844 90.4722C589.836 90.4722 588.984 90.2142 588.288 89.6982C587.592 89.1822 587.112 88.4982 586.848 87.6462V90.3462H585.588V77.0262H586.848V83.2182C587.112 82.3662 587.592 81.6822 588.288 81.1662C588.984 80.6502 589.836 80.3922 590.844 80.3922ZM590.502 81.5082C589.806 81.5082 589.176 81.6702 588.612 81.9942C588.06 82.3182 587.628 82.7802 587.316 83.3802C587.004 83.9682 586.848 84.6522 586.848 85.4322C586.848 86.2122 587.004 86.9022 587.316 87.5022C587.628 88.0902 588.06 88.5462 588.612 88.8702C589.176 89.1942 589.806 89.3562 590.502 89.3562C591.618 89.3562 592.506 89.0082 593.166 88.3122C593.826 87.6042 594.156 86.6442 594.156 85.4322C594.156 84.2202 593.826 83.2662 593.166 82.5702C592.506 81.8622 591.618 81.5082 590.502 81.5082ZM599.697 77.0262V90.3462H598.419V77.0262H599.697ZM602.859 77.6022C602.859 77.3382 602.943 77.1282 603.111 76.9722C603.291 76.8162 603.519 76.7382 603.795 76.7382C604.071 76.7382 604.293 76.8162 604.461 76.9722C604.629 77.1282 604.713 77.3382 604.713 77.6022C604.713 77.8542 604.629 78.0582 604.461 78.2142C604.293 78.3702 604.071 78.4482 603.795 78.4482C603.519 78.4482 603.291 78.3702 603.111 78.2142C602.943 78.0582 602.859 77.8542 602.859 77.6022ZM604.425 80.5182V90.3462H603.147V80.5182H604.425ZM612.212 80.3922C613.46 80.3922 614.492 80.7222 615.308 81.3822C616.136 82.0422 616.64 82.9182 616.82 84.0102H615.506C615.374 83.2302 615.008 82.6182 614.408 82.1742C613.808 81.7182 613.07 81.4902 612.194 81.4902C611.558 81.4902 610.97 81.6342 610.43 81.9222C609.902 82.2102 609.476 82.6542 609.152 83.2542C608.84 83.8422 608.684 84.5682 608.684 85.4322C608.684 86.2962 608.84 87.0282 609.152 87.6282C609.476 88.2162 609.902 88.6542 610.43 88.9422C610.97 89.2302 611.558 89.3742 612.194 89.3742C613.07 89.3742 613.808 89.1522 614.408 88.7082C615.008 88.2522 615.374 87.6342 615.506 86.8542H616.82C616.64 87.9462 616.136 88.8222 615.308 89.4822C614.492 90.1422 613.46 90.4722 612.212 90.4722C611.276 90.4722 610.442 90.2742 609.71 89.8782C608.99 89.4702 608.426 88.8882 608.018 88.1322C607.61 87.3642 607.406 86.4642 607.406 85.4322C607.406 84.4002 607.61 83.5062 608.018 82.7502C608.426 81.9822 608.99 81.4002 609.71 81.0042C610.442 80.5962 611.276 80.3922 612.212 80.3922ZM624.867 73.4262L619.917 93.3522H618.693L623.625 73.4262H624.867ZM639.468 77.9262V90.3462H638.208V79.9422L633.906 90.3462H632.772L628.452 79.9782V90.3462H627.174V77.9262H628.668L633.348 88.7802L637.992 77.9262H639.468ZM647.081 80.3922C648.077 80.3922 648.923 80.6502 649.619 81.1662C650.327 81.6822 650.813 82.3662 651.077 83.2182V80.5182H652.319V90.3462H651.077V87.6462C650.813 88.4982 650.327 89.1822 649.619 89.6982C648.923 90.2142 648.077 90.4722 647.081 90.4722C646.193 90.4722 645.395 90.2682 644.687 89.8602C643.991 89.4522 643.445 88.8702 643.049 88.1142C642.665 87.3462 642.473 86.4522 642.473 85.4322C642.473 84.4002 642.665 83.5062 643.049 82.7502C643.445 81.9822 643.991 81.4002 644.687 81.0042C645.383 80.5962 646.181 80.3922 647.081 80.3922ZM647.405 81.5082C646.301 81.5082 645.413 81.8622 644.741 82.5702C644.081 83.2662 643.751 84.2202 643.751 85.4322C643.751 86.6442 644.081 87.6042 644.741 88.3122C645.413 89.0082 646.301 89.3562 647.405 89.3562C648.101 89.3562 648.725 89.1942 649.277 88.8702C649.841 88.5462 650.279 88.0902 650.591 87.5022C650.915 86.9022 651.077 86.2122 651.077 85.4322C651.077 84.6522 650.915 83.9682 650.591 83.3802C650.279 82.7802 649.841 82.3182 649.277 81.9942C648.725 81.6702 648.101 81.5082 647.405 81.5082ZM657.05 82.5522C657.338 81.8442 657.8 81.2982 658.436 80.9142C659.072 80.5302 659.846 80.3382 660.758 80.3382V81.7062H660.344C659.396 81.7062 658.61 81.9642 657.986 82.4802C657.362 82.9842 657.05 83.8122 657.05 84.9642V90.3462H655.772V80.5182H657.05V82.5522ZM668.41 90.3462L664.432 85.8462V90.3462H663.154V77.0262H664.432V84.8382L668.338 80.5182H669.904L665.386 85.3782L670.03 90.3462H668.41ZM676.525 89.4282C677.413 89.4282 678.157 89.2062 678.757 88.7622C679.357 88.3182 679.717 87.7182 679.837 86.9622H681.169C680.989 88.0062 680.491 88.8522 679.675 89.5002C678.859 90.1482 677.827 90.4722 676.579 90.4722C675.643 90.4722 674.809 90.2742 674.077 89.8782C673.357 89.4702 672.793 88.8882 672.385 88.1322C671.977 87.3642 671.773 86.4642 671.773 85.4322C671.773 84.4002 671.977 83.5062 672.385 82.7502C672.793 81.9822 673.357 81.4002 674.077 81.0042C674.809 80.5962 675.643 80.3922 676.579 80.3922C677.539 80.3922 678.367 80.5962 679.063 81.0042C679.771 81.4002 680.305 81.9342 680.665 82.6062C681.037 83.2782 681.223 84.0102 681.223 84.8022C681.223 85.1382 681.199 85.4442 681.151 85.7202H673.015C673.027 86.5482 673.195 87.2442 673.519 87.8082C673.855 88.3602 674.287 88.7682 674.815 89.0322C675.343 89.2962 675.913 89.4282 676.525 89.4282ZM676.579 81.4182C675.943 81.4182 675.361 81.5502 674.833 81.8142C674.305 82.0782 673.873 82.4862 673.537 83.0382C673.213 83.5782 673.039 84.2562 673.015 85.0722H679.963C680.011 84.2682 679.879 83.5902 679.567 83.0382C679.255 82.4862 678.835 82.0782 678.307 81.8142C677.779 81.5502 677.203 81.4182 676.579 81.4182ZM688.675 89.2302V90.3462H687.505C686.557 90.3462 685.849 90.1242 685.381 89.6802C684.913 89.2242 684.679 88.4622 684.679 87.3942V81.6162H683.185V80.5182H684.679V78.0342H685.957V80.5182H688.657V81.6162H685.957V87.4122C685.957 88.1082 686.083 88.5882 686.335 88.8522C686.587 89.1042 687.031 89.2302 687.667 89.2302H688.675Z" fill="white" fill-opacity="0.8"/>
<path d="M7.27546 400.31C8.45146 400.31 9.50746 400.586 10.4435 401.138C11.3795 401.69 12.1115 402.458 12.6395 403.442C13.1795 404.426 13.4495 405.542 13.4495 406.79C13.4495 408.038 13.1795 409.16 12.6395 410.156C12.1115 411.14 11.3795 411.908 10.4435 412.46C9.50746 413.012 8.45146 413.288 7.27546 413.288C6.09946 413.288 5.04346 413.012 4.10746 412.46C3.17146 411.908 2.43346 411.14 1.89346 410.156C1.36546 409.16 1.10146 408.038 1.10146 406.79C1.10146 405.542 1.36546 404.426 1.89346 403.442C2.43346 402.458 3.17146 401.69 4.10746 401.138C5.04346 400.586 6.09946 400.31 7.27546 400.31ZM7.27546 401.48C6.35146 401.48 5.51746 401.696 4.77346 402.128C4.04146 402.56 3.45946 403.178 3.02746 403.982C2.60746 404.786 2.39746 405.722 2.39746 406.79C2.39746 407.858 2.60746 408.794 3.02746 409.598C3.45946 410.402 4.04146 411.02 4.77346 411.452C5.51746 411.884 6.35146 412.1 7.27546 412.1C8.19946 412.1 9.02746 411.884 9.75946 411.452C10.5035 411.02 11.0855 410.402 11.5055 409.598C11.9375 408.794 12.1535 407.858 12.1535 406.79C12.1535 405.722 11.9375 404.786 11.5055 403.982C11.0855 403.178 10.5035 402.56 9.75946 402.128C9.02746 401.696 8.19946 401.48 7.27546 401.48ZM29.7577 403.316L26.8597 413.144H25.5277L22.5757 404.792L19.5877 413.144H18.2737L15.3757 403.316H16.6537L18.9937 411.83L21.9457 403.316H23.2417L26.2117 411.83L28.5337 403.316H29.7577ZM37.014 403.136C38.154 403.136 39.078 403.502 39.786 404.234C40.506 404.954 40.866 406.016 40.866 407.42V413.144H39.624V407.51C39.624 406.442 39.354 405.626 38.814 405.062C38.274 404.486 37.536 404.198 36.6 404.198C35.616 404.198 34.83 404.516 34.242 405.152C33.666 405.776 33.378 406.7 33.378 407.924V413.144H32.1V403.316H33.378V405.728C33.63 404.888 34.086 404.246 34.746 403.802C35.406 403.358 36.162 403.136 37.014 403.136ZM48.5298 412.226C49.4178 412.226 50.1618 412.004 50.7618 411.56C51.3618 411.116 51.7218 410.516 51.8418 409.76H53.1738C52.9938 410.804 52.4958 411.65 51.6798 412.298C50.8638 412.946 49.8318 413.27 48.5838 413.27C47.6478 413.27 46.8138 413.072 46.0818 412.676C45.3618 412.268 44.7978 411.686 44.3898 410.93C43.9818 410.162 43.7778 409.262 43.7778 408.23C43.7778 407.198 43.9818 406.304 44.3898 405.548C44.7978 404.78 45.3618 404.198 46.0818 403.802C46.8138 403.394 47.6478 403.19 48.5838 403.19C49.5438 403.19 50.3718 403.394 51.0678 403.802C51.7758 404.198 52.3098 404.732 52.6698 405.404C53.0418 406.076 53.2278 406.808 53.2278 407.6C53.2278 407.936 53.2038 408.242 53.1558 408.518H45.0198C45.0318 409.346 45.1998 410.042 45.5238 410.606C45.8598 411.158 46.2918 411.566 46.8198 411.83C47.3478 412.094 47.9178 412.226 48.5298 412.226ZM48.5838 404.216C47.9478 404.216 47.3658 404.348 46.8378 404.612C46.3098 404.876 45.8778 405.284 45.5418 405.836C45.2178 406.376 45.0438 407.054 45.0198 407.87H51.9678C52.0158 407.066 51.8838 406.388 51.5718 405.836C51.2598 405.284 50.8398 404.876 50.3118 404.612C49.7838 404.348 49.2078 404.216 48.5838 404.216ZM57.4938 405.35C57.7818 404.642 58.2438 404.096 58.8798 403.712C59.5158 403.328 60.2898 403.136 61.2018 403.136V404.504H60.7878C59.8398 404.504 59.0538 404.762 58.4298 405.278C57.8058 405.782 57.4938 406.61 57.4938 407.762V413.144H56.2158V403.316H57.4938V405.35Z" fill="white" fill-opacity="0.8"/>
<g clip-path="url(#clip0_27_10)">
<path d="M207.161 180.266C193.37 200.905 186.01 225.169 186.01 249.99C186.01 283.275 199.232 315.196 222.768 338.732C246.304 362.268 278.225 375.49 311.51 375.49C336.332 375.49 360.596 368.13 381.234 354.34C401.872 340.55 417.958 320.949 427.457 298.017C436.956 275.085 439.441 249.851 434.599 225.506C429.756 201.162 417.803 178.8 400.252 161.248C382.7 143.697 360.338 131.744 335.994 126.902C311.649 122.059 286.415 124.545 263.483 134.043C240.551 143.542 220.951 159.628 207.161 180.266ZM311.51 499.49C173.716 499.49 62.01 387.784 62.01 249.99C62.01 112.186 173.716 0.490234 311.51 0.490234C449.304 0.490234 561.01 112.186 561.01 249.99C561.01 387.794 449.304 499.49 311.51 499.49Z" fill="white" fill-opacity="0.03"/>
<path d="M207.161 180.266C193.37 200.905 186.01 225.169 186.01 249.99C186.01 283.275 199.232 315.196 222.768 338.732C246.304 362.268 278.225 375.49 311.51 375.49C336.332 375.49 360.596 368.13 381.234 354.34C401.872 340.55 417.958 320.949 427.457 298.017C436.956 275.085 439.441 249.851 434.599 225.506C429.756 201.162 417.803 178.8 400.252 161.248C382.7 143.697 360.338 131.744 335.994 126.902C311.649 122.059 286.415 124.545 263.483 134.043C240.551 143.542 220.951 159.628 207.161 180.266ZM311.51 499.49C173.716 499.49 62.01 387.784 62.01 249.99C62.01 112.186 173.716 0.490234 311.51 0.490234C449.304 0.490234 561.01 112.186 561.01 249.99C561.01 387.794 449.304 499.49 311.51 499.49Z" stroke="url(#paint0_radial_27_10)"/>
<path d="M207.161 180.266C193.37 200.905 186.01 225.169 186.01 249.99C186.01 283.275 199.232 315.196 222.768 338.732C246.304 362.268 278.225 375.49 311.51 375.49C336.332 375.49 360.596 368.13 381.234 354.34C401.872 340.55 417.958 320.949 427.457 298.017C436.956 275.085 439.441 249.851 434.599 225.506C429.756 201.162 417.803 178.8 400.252 161.248C382.7 143.697 360.338 131.744 335.994 126.902C311.649 122.059 286.415 124.545 263.483 134.043C240.551 143.542 220.951 159.628 207.161 180.266ZM311.51 499.49C173.716 499.49 62.01 387.784 62.01 249.99C62.01 112.186 173.716 0.490234 311.51 0.490234C449.304 0.490234 561.01 112.186 561.01 249.99C561.01 387.794 449.304 499.49 311.51 499.49Z" stroke="url(#paint1_radial_27_10)"/>
<path opacity="0.1" d="M167.51 249.99C167.51 170.58 232.11 105.99 311.51 105.99C390.91 105.99 455.51 170.59 455.51 249.99C455.51 329.39 390.91 393.99 311.51 393.99C232.11 393.99 167.51 329.39 167.51 249.99ZM148.17 86.6499C110.378 124.438 86.8576 174.161 81.6167 227.347C76.3758 280.533 89.7385 333.89 119.428 378.328C149.117 422.766 193.297 455.534 244.438 471.05C295.579 486.566 350.519 483.87 399.895 463.42C449.271 442.97 490.028 406.032 515.223 358.9C540.418 311.768 548.491 257.359 538.066 204.942C527.642 152.525 499.365 105.344 458.054 71.4391C416.743 37.5337 364.953 19.0014 311.51 18.9999C281.163 18.9163 251.101 24.8523 223.064 36.4644C195.027 48.0765 169.571 65.1341 148.17 86.6499Z" fill="white"/>
<path d="M316.4 24.9502L314.77 99.9502C335.746 100.381 356.397 105.217 375.384 114.145C394.37 123.072 411.267 135.891 424.98 151.77L481.71 102.68C461.14 78.864 435.794 59.6371 407.316 46.2464C378.838 32.8557 347.863 25.6001 316.4 24.9502Z" fill="url(#paint2_linear_27_10)"/>
<path d="M488.07 110.38L429.22 156.91C450.188 183.435 461.58 216.265 461.548 250.076C461.516 283.888 450.061 316.696 429.042 343.181C408.024 369.665 378.673 388.271 345.753 395.981C312.832 403.691 278.273 400.053 247.679 385.657C217.086 371.26 192.254 346.95 177.211 316.669C162.168 286.389 157.797 251.914 164.807 218.837C171.816 185.76 189.795 156.022 215.827 134.445C241.859 112.869 274.417 100.72 308.22 99.9702L306.59 24.9702C184.59 27.5702 86.4199 127.32 86.4199 249.97C86.4199 374.27 187.19 475.04 311.48 475.04C435.77 475.04 536.57 374.26 536.57 249.96C536.649 199.288 519.552 150.086 488.07 110.38Z" fill="url(#paint3_linear_27_10)"/>
<path d="M325.503 253.549H353.376L343.552 272.03L343.518 272.089C343.115 272.825 342.52 273.438 341.796 273.863C341.072 274.288 340.247 274.509 339.407 274.503C338.568 274.497 337.746 274.264 337.028 273.829C336.311 273.394 335.724 272.772 335.331 272.03L325.503 253.549ZM307.4 235.014L297.575 253.495H325.445L315.616 235.014C315.222 234.267 314.632 233.641 313.909 233.204C313.187 232.767 312.359 232.535 311.514 232.533C310.669 232.531 309.84 232.759 309.115 233.192C308.391 233.626 307.797 234.248 307.4 234.993V235.014ZM431.473 250C431.473 316.253 377.767 369.963 311.51 369.963C245.253 369.963 191.547 316.253 191.547 250C191.547 183.747 245.257 130.016 311.51 130.016C377.763 130.016 431.473 183.731 431.473 249.979V250ZM241.691 253.474H269.623L252.33 220.951C251.928 220.222 251.338 219.614 250.621 219.191C249.904 218.767 249.086 218.544 248.253 218.544H223.11L241.691 253.474ZM399.922 218.54H374.779C373.946 218.54 373.128 218.763 372.41 219.186C371.692 219.61 371.101 220.217 370.698 220.947L353.405 253.474L339.213 226.777L339.109 226.594L336.171 221.055C335.771 220.311 335.178 219.688 334.454 219.255C333.729 218.821 332.901 218.591 332.056 218.59H326.666C325.873 218.524 325.075 218.524 324.281 218.59H290.984C290.14 218.592 289.313 218.822 288.589 219.256C287.866 219.69 287.273 220.311 286.874 221.055L251.042 288.459H276.185C277.018 288.459 277.835 288.236 278.552 287.812C279.269 287.389 279.86 286.781 280.262 286.052L297.546 253.549V253.52L311.751 280.247L311.855 280.429L314.793 285.957C315.188 286.706 315.78 287.335 316.504 287.774C317.229 288.213 318.06 288.447 318.907 288.45H324.285C325.071 288.513 325.86 288.513 326.646 288.45H359.955C360.802 288.448 361.632 288.214 362.356 287.775C363.081 287.335 363.671 286.707 364.065 285.957L399.922 218.54Z" fill="#222222"/>
<path d="M375.015 79.1717V75.1717H382.165V92.8467H377.665V79.1717H375.015ZM384.876 89.5967V86.0217L392.951 74.9467H397.551V85.8717H399.676V89.5967H397.551V92.8467H393.226V89.5967H384.876ZM393.576 79.8967L389.226 85.8717H393.576V79.8967ZM405.523 74.8717C406.74 74.8717 407.731 75.2383 408.498 75.9717C409.281 76.705 409.673 77.7383 409.673 79.0717C409.673 80.405 409.281 81.4383 408.498 82.1717C407.731 82.905 406.74 83.2717 405.523 83.2717C404.273 83.2717 403.256 82.905 402.473 82.1717C401.706 81.4383 401.323 80.405 401.323 79.0717C401.323 77.7383 401.706 76.705 402.473 75.9717C403.256 75.2383 404.273 74.8717 405.523 74.8717ZM417.648 75.1217L407.998 92.8467H403.873L413.523 75.1217H417.648ZM404.173 79.0717C404.173 79.5883 404.29 79.9967 404.523 80.2967C404.756 80.58 405.073 80.7217 405.473 80.7217C405.89 80.7217 406.223 80.58 406.473 80.2967C406.723 79.9967 406.848 79.5883 406.848 79.0717C406.848 78.555 406.723 78.155 406.473 77.8717C406.223 77.5717 405.89 77.4217 405.473 77.4217C405.073 77.4217 404.756 77.5717 404.523 77.8717C404.29 78.155 404.173 78.555 404.173 79.0717ZM416.023 84.6717C417.256 84.6717 418.256 85.0383 419.023 85.7717C419.79 86.505 420.173 87.5383 420.173 88.8717C420.173 90.205 419.79 91.2467 419.023 91.9967C418.256 92.73 417.256 93.0967 416.023 93.0967C414.806 93.0967 413.806 92.73 413.023 91.9967C412.256 91.2467 411.873 90.205 411.873 88.8717C411.873 87.5383 412.256 86.505 413.023 85.7717C413.806 85.0383 414.806 84.6717 416.023 84.6717ZM414.698 88.8717C414.698 89.405 414.815 89.8217 415.048 90.1217C415.281 90.405 415.606 90.5467 416.023 90.5467C416.423 90.5467 416.74 90.405 416.973 90.1217C417.223 89.8217 417.348 89.405 417.348 88.8717C417.348 88.355 417.223 87.955 416.973 87.6717C416.74 87.3717 416.423 87.2217 416.023 87.2217C415.606 87.2217 415.281 87.3717 415.048 87.6717C414.815 87.955 414.698 88.355 414.698 88.8717Z" fill="white"/>
<path d="M193.222 403.785C193.222 402.935 193.463 402.135 193.947 401.385C194.43 400.635 195.147 400.027 196.097 399.56C197.063 399.094 198.23 398.86 199.597 398.86C200.98 398.86 202.147 399.094 203.097 399.56C204.063 400.027 204.78 400.635 205.247 401.385C205.73 402.135 205.972 402.935 205.972 403.785C205.972 404.719 205.755 405.519 205.322 406.185C204.888 406.835 204.255 407.335 203.422 407.685C205.405 408.569 206.397 410.06 206.397 412.16C206.397 413.36 206.097 414.394 205.497 415.26C204.897 416.11 204.08 416.76 203.047 417.21C202.03 417.644 200.88 417.86 199.597 417.86C198.33 417.86 197.18 417.644 196.147 417.21C195.113 416.76 194.297 416.11 193.697 415.26C193.097 414.394 192.797 413.36 192.797 412.16C192.797 410.06 193.788 408.569 195.772 407.685C194.938 407.335 194.305 406.835 193.872 406.185C193.438 405.519 193.222 404.719 193.222 403.785ZM197.422 404.51C197.422 405.194 197.613 405.719 197.997 406.085C198.397 406.435 198.93 406.61 199.597 406.61C200.263 406.61 200.788 406.435 201.172 406.085C201.572 405.719 201.772 405.194 201.772 404.51C201.772 403.844 201.572 403.319 201.172 402.935C200.772 402.552 200.247 402.36 199.597 402.36C198.947 402.36 198.422 402.552 198.022 402.935C197.622 403.319 197.422 403.844 197.422 404.51ZM196.947 411.91C196.947 412.66 197.18 413.252 197.647 413.685C198.13 414.119 198.78 414.335 199.597 414.335C200.413 414.335 201.055 414.119 201.522 413.685C202.005 413.252 202.247 412.66 202.247 411.91C202.247 411.16 201.997 410.577 201.497 410.16C201.013 409.727 200.38 409.51 199.597 409.51C198.813 409.51 198.172 409.727 197.672 410.16C197.188 410.577 196.947 411.16 196.947 411.91ZM217.785 404.685C217.668 403.969 217.435 403.427 217.085 403.06C216.752 402.694 216.268 402.51 215.635 402.51C214.668 402.51 213.977 402.96 213.56 403.86C213.16 404.744 212.977 406.11 213.01 407.96C213.293 407.277 213.777 406.744 214.46 406.36C215.16 405.96 215.968 405.76 216.885 405.76C218.552 405.76 219.868 406.269 220.835 407.285C221.802 408.285 222.285 409.727 222.285 411.61C222.285 412.794 222.043 413.844 221.56 414.76C221.077 415.677 220.36 416.394 219.41 416.91C218.477 417.41 217.352 417.66 216.035 417.66C213.452 417.66 211.668 416.86 210.685 415.26C209.702 413.66 209.21 411.444 209.21 408.61C209.21 405.344 209.735 402.944 210.785 401.41C211.835 399.86 213.543 399.085 215.91 399.085C217.777 399.085 219.193 399.619 220.16 400.685C221.127 401.735 221.668 403.069 221.785 404.685H217.785ZM213.335 411.41C213.335 412.177 213.552 412.802 213.985 413.285C214.418 413.752 215.052 413.985 215.885 413.985C216.635 413.985 217.218 413.777 217.635 413.36C218.068 412.944 218.285 412.335 218.285 411.535C218.285 410.735 218.068 410.127 217.635 409.71C217.202 409.277 216.61 409.06 215.86 409.06C215.143 409.06 214.543 409.269 214.06 409.685C213.577 410.085 213.335 410.66 213.335 411.41ZM228.433 399.51C229.65 399.51 230.641 399.877 231.408 400.61C232.191 401.344 232.583 402.377 232.583 403.71C232.583 405.044 232.191 406.077 231.408 406.81C230.641 407.544 229.65 407.91 228.433 407.91C227.183 407.91 226.166 407.544 225.383 406.81C224.616 406.077 224.233 405.044 224.233 403.71C224.233 402.377 224.616 401.344 225.383 400.61C226.166 399.877 227.183 399.51 228.433 399.51ZM240.558 399.76L230.908 417.485H226.783L236.433 399.76H240.558ZM227.083 403.71C227.083 404.227 227.2 404.635 227.433 404.935C227.666 405.219 227.983 405.36 228.383 405.36C228.8 405.36 229.133 405.219 229.383 404.935C229.633 404.635 229.758 404.227 229.758 403.71C229.758 403.194 229.633 402.794 229.383 402.51C229.133 402.21 228.8 402.06 228.383 402.06C227.983 402.06 227.666 402.21 227.433 402.51C227.2 402.794 227.083 403.194 227.083 403.71ZM238.933 409.31C240.166 409.31 241.166 409.677 241.933 410.41C242.7 411.144 243.083 412.177 243.083 413.51C243.083 414.844 242.7 415.885 241.933 416.635C241.166 417.369 240.166 417.735 238.933 417.735C237.716 417.735 236.716 417.369 235.933 416.635C235.166 415.885 234.783 414.844 234.783 413.51C234.783 412.177 235.166 411.144 235.933 410.41C236.716 409.677 237.716 409.31 238.933 409.31ZM237.608 413.51C237.608 414.044 237.725 414.46 237.958 414.76C238.191 415.044 238.516 415.185 238.933 415.185C239.333 415.185 239.65 415.044 239.883 414.76C240.133 414.46 240.258 414.044 240.258 413.51C240.258 412.994 240.133 412.594 239.883 412.31C239.65 412.01 239.333 411.86 238.933 411.86C238.516 411.86 238.191 412.01 237.958 412.31C237.725 412.594 237.608 412.994 237.608 413.51Z" fill="white"/>
</g>
<path d="M428.548 83.8462C428.548 86.7917 430.936 89.1795 433.881 89.1795C436.827 89.1795 439.215 86.7917 439.215 83.8462C439.215 80.9007 436.827 78.5129 433.881 78.5129C430.936 78.5129 428.548 80.9007 428.548 83.8462ZM433.881 84.8462H549.296V82.8462H433.881V84.8462Z" fill="white"/>
<path d="M165.998 408.938C165.998 411.883 168.386 414.271 171.332 414.271C174.277 414.271 176.665 411.883 176.665 408.938C176.665 405.992 174.277 403.604 171.332 403.604C168.386 403.604 165.998 405.992 165.998 408.938ZM72.104 409.938H171.332V407.938H72.104V409.938Z" fill="white"/>
<defs>
<radialGradient id="paint0_radial_27_10" cx="0" cy="0" r="1" gradientUnits="userSpaceOnUse" gradientTransform="translate(61.51 499.99) rotate(-45) scale(707.107 335.61)">
<stop stop-color="#A90004"/>
<stop offset="0.701799" stop-color="#FF00C1" stop-opacity="0"/>
</radialGradient>
<radialGradient id="paint1_radial_27_10" cx="0" cy="0" r="1" gradientUnits="userSpaceOnUse" gradientTransform="translate(561.51 -0.00976563) rotate(135) scale(707.107 346.44)">
<stop stop-color="#646464"/>
<stop offset="0.706286" stop-opacity="0"/>
</radialGradient>
<linearGradient id="paint2_linear_27_10" x1="315.56" y1="45.4102" x2="458.99" y2="130.84" gradientUnits="userSpaceOnUse">
<stop offset="0.06" stop-color="#FF00C1"/>
<stop offset="0.51" stop-color="#A90FB9"/>
<stop offset="0.84" stop-color="#7118B4"/>
<stop offset="1" stop-color="#5C1CB2"/>
</linearGradient>
<linearGradient id="paint3_linear_27_10" x1="86.4499" y1="249.99" x2="536.57" y2="249.99" gradientUnits="userSpaceOnUse">
<stop stop-color="#5C1CB2"/>
<stop offset="0.13" stop-color="#7118B4"/>
<stop offset="0.41" stop-color="#A90FB9"/>
<stop offset="0.78" stop-color="#FF00C1"/>
</linearGradient>
<clipPath id="clip0_27_10">
<rect width="499.98" height="499.99" fill="white" transform="translate(61.51)"/>
</clipPath>
</defs>
</svg>
