<svg width="281" height="296" viewBox="0 0 281 296" fill="none" xmlns="http://www.w3.org/2000/svg">
<path d="M239 -255H987C1012.41 -255 1033 -234.405 1033 -209V62C1033 87.4051 1012.41 108 987 108H268.975C234.497 108 201.431 121.696 177.051 146.076L154.076 169.051C129.696 193.431 116 226.497 116 260.975V671C116 696.405 95.4051 717 70 717H-678C-703.405 717 -724 696.405 -724 671V230C-724 204.595 -703.405 184 -678 184H40.0249C74.5031 184 107.569 170.304 131.949 145.924L154.924 122.949C179.304 98.569 193 65.503 193 31.0248V-209C193 -234.405 213.595 -255 239 -255Z" fill="#191919"/>
</svg>
